<mxfile host="Electron" modified="2024-05-11T21:41:42.855Z" agent="Mozilla/5.0 (Windows NT 10.0; Win64; x64) AppleWebKit/537.36 (KHTML, like Gecko) draw.io/24.2.5 Chrome/120.0.6099.109 Electron/28.1.0 Safari/537.36" etag="mD2JXyJcayfCzLCxWFDB" version="24.2.5" type="device" pages="3">
  <diagram id="AXTmXrIDjooNN9v1IJw9" name="White Class Diagram">
    <mxGraphModel dx="1203" dy="3039" grid="1" gridSize="10" guides="1" tooltips="1" connect="1" arrows="1" fold="1" page="1" pageScale="1" pageWidth="1654" pageHeight="2336" math="0" shadow="0">
      <root>
        <mxCell id="0" />
        <mxCell id="1" parent="0" />
        <mxCell id="tXNTw_c_ti29l-Amt4pW-14" value="External Services" style="shape=folder;xSize=90;align=left;spacingLeft=10;align=left;verticalAlign=top;spacingLeft=5;spacingTop=-4;tabWidth=120;tabHeight=20;tabPosition=left;html=1;recursiveResize=0;fillColor=#F8E4E4;strokeColor=#b85450;fontStyle=1" parent="1" vertex="1">
          <mxGeometry x="320" y="1040" width="1080" height="180" as="geometry" />
        </mxCell>
        <mxCell id="cR6-7HmDqcwB-q8sTzB7-1" value="Domain Layer" style="shape=folder;xSize=90;align=left;spacingLeft=10;align=left;verticalAlign=top;spacingLeft=5;spacingTop=-4;tabWidth=100;tabHeight=20;tabPosition=left;html=1;recursiveResize=0;fontStyle=1" parent="1" vertex="1">
          <mxGeometry x="320" y="230" width="1080" height="790" as="geometry" />
        </mxCell>
        <mxCell id="OiI4JRpYvR2Bn_D_iNX7-17" value="Market Package" style="shape=folder;xSize=90;align=left;spacingLeft=10;align=left;verticalAlign=top;spacingLeft=5;spacingTop=-4;tabWidth=100;tabHeight=20;tabPosition=left;html=1;recursiveResize=0;fontStyle=0;fillColor=#dae8fc;strokeColor=#6c8ebf;" parent="1" vertex="1">
          <mxGeometry x="326" y="259" width="1064" height="751" as="geometry" />
        </mxCell>
        <mxCell id="tXNTw_c_ti29l-Amt4pW-11" value="Store Package" style="shape=folder;xSize=90;align=left;spacingLeft=10;align=left;verticalAlign=top;spacingLeft=5;spacingTop=-4;tabWidth=90;tabHeight=20;tabPosition=left;html=1;recursiveResize=0;" parent="1" vertex="1">
          <mxGeometry x="330" y="290" width="450" height="710" as="geometry" />
        </mxCell>
        <mxCell id="cR6-7HmDqcwB-q8sTzB7-2" value="User Package" style="shape=folder;xSize=90;align=left;spacingLeft=10;align=left;verticalAlign=top;spacingLeft=5;spacingTop=-4;tabWidth=90;tabHeight=20;tabPosition=left;html=1;recursiveResize=0;" parent="1" vertex="1">
          <mxGeometry x="790" y="291" width="590" height="709" as="geometry" />
        </mxCell>
        <mxCell id="cR6-7HmDqcwB-q8sTzB7-3" value="has a" style="edgeStyle=orthogonalEdgeStyle;rounded=0;orthogonalLoop=1;jettySize=auto;html=1;exitX=0;exitY=0.25;exitDx=0;exitDy=0;entryX=1;entryY=0.5;entryDx=0;entryDy=0;" parent="1" source="cR6-7HmDqcwB-q8sTzB7-4" target="cR6-7HmDqcwB-q8sTzB7-35" edge="1">
          <mxGeometry relative="1" as="geometry">
            <mxPoint x="530.48" y="478.5640000000003" as="targetPoint" />
            <Array as="points">
              <mxPoint x="560" y="518" />
              <mxPoint x="560" y="464" />
            </Array>
            <mxPoint x="584.74" y="446.91600000000017" as="sourcePoint" />
          </mxGeometry>
        </mxCell>
        <mxCell id="-gloQtON4wZspu8cm-jV-23" style="edgeStyle=orthogonalEdgeStyle;rounded=0;orthogonalLoop=1;jettySize=auto;html=1;entryX=0.5;entryY=0;entryDx=0;entryDy=0;endArrow=none;endFill=0;" parent="1" source="cR6-7HmDqcwB-q8sTzB7-4" target="-gloQtON4wZspu8cm-jV-21" edge="1">
          <mxGeometry relative="1" as="geometry">
            <Array as="points">
              <mxPoint x="680" y="560" />
              <mxPoint x="680" y="560" />
            </Array>
          </mxGeometry>
        </mxCell>
        <mxCell id="-gloQtON4wZspu8cm-jV-24" value="1" style="edgeLabel;html=1;align=center;verticalAlign=middle;resizable=0;points=[];" parent="-gloQtON4wZspu8cm-jV-23" vertex="1" connectable="0">
          <mxGeometry x="-0.704" y="-2" relative="1" as="geometry">
            <mxPoint x="7" y="2" as="offset" />
          </mxGeometry>
        </mxCell>
        <mxCell id="-gloQtON4wZspu8cm-jV-25" value="1" style="edgeLabel;html=1;align=center;verticalAlign=middle;resizable=0;points=[];" parent="-gloQtON4wZspu8cm-jV-23" vertex="1" connectable="0">
          <mxGeometry x="0.6329" relative="1" as="geometry">
            <mxPoint x="6" as="offset" />
          </mxGeometry>
        </mxCell>
        <mxCell id="cR6-7HmDqcwB-q8sTzB7-4" value="Store" style="swimlane;fontStyle=1;align=center;verticalAlign=top;childLayout=stackLayout;horizontal=1;startSize=26;horizontalStack=0;resizeParent=1;resizeParentMax=0;resizeLast=0;collapsible=1;marginBottom=0;whiteSpace=wrap;html=1;" parent="1" vertex="1">
          <mxGeometry x="586.5" y="497" width="160" height="86" as="geometry" />
        </mxCell>
        <mxCell id="6cY5vgY6TItl-3wK11CW-3" value="- storeID" style="text;strokeColor=none;fillColor=none;align=left;verticalAlign=top;spacingLeft=4;spacingRight=4;overflow=hidden;rotatable=0;points=[[0,0.5],[1,0.5]];portConstraint=eastwest;whiteSpace=wrap;html=1;" parent="cR6-7HmDqcwB-q8sTzB7-4" vertex="1">
          <mxGeometry y="26" width="160" height="26" as="geometry" />
        </mxCell>
        <mxCell id="eDnMlg8a8wfs5ZMG_Kfq-17" value="- isOpen" style="text;strokeColor=none;fillColor=none;align=left;verticalAlign=top;spacingLeft=4;spacingRight=4;overflow=hidden;rotatable=0;points=[[0,0.5],[1,0.5]];portConstraint=eastwest;whiteSpace=wrap;html=1;" parent="cR6-7HmDqcwB-q8sTzB7-4" vertex="1">
          <mxGeometry y="52" width="160" height="26" as="geometry" />
        </mxCell>
        <mxCell id="cR6-7HmDqcwB-q8sTzB7-7" value="" style="line;strokeWidth=1;fillColor=none;align=left;verticalAlign=middle;spacingTop=-1;spacingLeft=3;spacingRight=3;rotatable=0;labelPosition=right;points=[];portConstraint=eastwest;strokeColor=inherit;" parent="cR6-7HmDqcwB-q8sTzB7-4" vertex="1">
          <mxGeometry y="78" width="160" height="8" as="geometry" />
        </mxCell>
        <mxCell id="OiI4JRpYvR2Bn_D_iNX7-8" value="notifies" style="edgeStyle=orthogonalEdgeStyle;rounded=0;orthogonalLoop=1;jettySize=auto;html=1;entryX=0.25;entryY=1;entryDx=0;entryDy=0;endArrow=none;endFill=0;" parent="1" edge="1">
          <mxGeometry x="0.0959" relative="1" as="geometry">
            <mxPoint x="914" y="520" as="sourcePoint" />
            <mxPoint x="914" y="447" as="targetPoint" />
            <Array as="points">
              <mxPoint x="914" y="447" />
            </Array>
            <mxPoint as="offset" />
          </mxGeometry>
        </mxCell>
        <mxCell id="OiI4JRpYvR2Bn_D_iNX7-9" value="1" style="edgeLabel;html=1;align=center;verticalAlign=middle;resizable=0;points=[];" parent="OiI4JRpYvR2Bn_D_iNX7-8" vertex="1" connectable="0">
          <mxGeometry x="0.7808" y="1" relative="1" as="geometry">
            <mxPoint x="6" y="1" as="offset" />
          </mxGeometry>
        </mxCell>
        <mxCell id="OiI4JRpYvR2Bn_D_iNX7-10" value="0..*" style="edgeLabel;html=1;align=center;verticalAlign=middle;resizable=0;points=[];" parent="OiI4JRpYvR2Bn_D_iNX7-8" vertex="1" connectable="0">
          <mxGeometry x="-0.726" y="1" relative="1" as="geometry">
            <mxPoint x="10" y="1" as="offset" />
          </mxGeometry>
        </mxCell>
        <mxCell id="cR6-7HmDqcwB-q8sTzB7-9" value="Owner" style="swimlane;fontStyle=1;align=center;verticalAlign=top;childLayout=stackLayout;horizontal=1;startSize=26;horizontalStack=0;resizeParent=1;resizeParentMax=0;resizeLast=0;collapsible=1;marginBottom=0;whiteSpace=wrap;html=1;" parent="1" vertex="1">
          <mxGeometry x="850" y="520" width="190" height="34" as="geometry" />
        </mxCell>
        <mxCell id="cR6-7HmDqcwB-q8sTzB7-11" value="" style="line;strokeWidth=1;fillColor=none;align=left;verticalAlign=middle;spacingTop=-1;spacingLeft=3;spacingRight=3;rotatable=0;labelPosition=right;points=[];portConstraint=eastwest;strokeColor=inherit;" parent="cR6-7HmDqcwB-q8sTzB7-9" vertex="1">
          <mxGeometry y="26" width="190" height="8" as="geometry" />
        </mxCell>
        <mxCell id="cR6-7HmDqcwB-q8sTzB7-13" value="owned by" style="edgeStyle=orthogonalEdgeStyle;rounded=0;orthogonalLoop=1;jettySize=auto;html=1;endArrow=none;endFill=0;entryX=0;entryY=0.5;entryDx=0;entryDy=0;exitX=1;exitY=0.233;exitDx=0;exitDy=0;exitPerimeter=0;" parent="1" source="cR6-7HmDqcwB-q8sTzB7-4" target="cR6-7HmDqcwB-q8sTzB7-9" edge="1">
          <mxGeometry x="0.4235" relative="1" as="geometry">
            <mxPoint x="730" y="530" as="sourcePoint" />
            <mxPoint x="850" y="560" as="targetPoint" />
            <Array as="points">
              <mxPoint x="770" y="517" />
              <mxPoint x="770" y="537" />
            </Array>
            <mxPoint as="offset" />
          </mxGeometry>
        </mxCell>
        <mxCell id="cR6-7HmDqcwB-q8sTzB7-14" value="1..*" style="edgeLabel;html=1;align=center;verticalAlign=middle;resizable=0;points=[];" parent="cR6-7HmDqcwB-q8sTzB7-13" vertex="1" connectable="0">
          <mxGeometry x="0.7917" relative="1" as="geometry">
            <mxPoint x="-1" y="-9" as="offset" />
          </mxGeometry>
        </mxCell>
        <mxCell id="cR6-7HmDqcwB-q8sTzB7-15" value="1" style="edgeLabel;html=1;align=center;verticalAlign=middle;resizable=0;points=[];" parent="cR6-7HmDqcwB-q8sTzB7-13" vertex="1" connectable="0">
          <mxGeometry x="-0.6847" y="-1" relative="1" as="geometry">
            <mxPoint x="-8" y="8" as="offset" />
          </mxGeometry>
        </mxCell>
        <mxCell id="cR6-7HmDqcwB-q8sTzB7-16" value="Manager" style="swimlane;fontStyle=1;align=center;verticalAlign=top;childLayout=stackLayout;horizontal=1;startSize=26;horizontalStack=0;resizeParent=1;resizeParentMax=0;resizeLast=0;collapsible=1;marginBottom=0;whiteSpace=wrap;html=1;" parent="1" vertex="1">
          <mxGeometry x="850" y="630" width="210" height="34" as="geometry" />
        </mxCell>
        <mxCell id="cR6-7HmDqcwB-q8sTzB7-18" value="" style="line;strokeWidth=1;fillColor=none;align=left;verticalAlign=middle;spacingTop=-1;spacingLeft=3;spacingRight=3;rotatable=0;labelPosition=right;points=[];portConstraint=eastwest;strokeColor=inherit;" parent="cR6-7HmDqcwB-q8sTzB7-16" vertex="1">
          <mxGeometry y="26" width="210" height="8" as="geometry" />
        </mxCell>
        <mxCell id="cR6-7HmDqcwB-q8sTzB7-22" value="managed by" style="edgeStyle=orthogonalEdgeStyle;rounded=0;orthogonalLoop=1;jettySize=auto;html=1;endArrow=none;endFill=0;entryX=0;entryY=0.5;entryDx=0;entryDy=0;" parent="1" source="cR6-7HmDqcwB-q8sTzB7-4" target="cR6-7HmDqcwB-q8sTzB7-16" edge="1">
          <mxGeometry x="0.3317" y="10" relative="1" as="geometry">
            <mxPoint x="850" y="650" as="targetPoint" />
            <Array as="points">
              <mxPoint x="830" y="550" />
              <mxPoint x="830" y="647" />
            </Array>
            <mxPoint as="offset" />
          </mxGeometry>
        </mxCell>
        <mxCell id="cR6-7HmDqcwB-q8sTzB7-23" value="0..*" style="edgeLabel;html=1;align=center;verticalAlign=middle;resizable=0;points=[];" parent="cR6-7HmDqcwB-q8sTzB7-22" vertex="1" connectable="0">
          <mxGeometry x="0.8337" y="1" relative="1" as="geometry">
            <mxPoint x="6" y="-8" as="offset" />
          </mxGeometry>
        </mxCell>
        <mxCell id="cR6-7HmDqcwB-q8sTzB7-24" value="1" style="edgeLabel;html=1;align=center;verticalAlign=middle;resizable=0;points=[];" parent="cR6-7HmDqcwB-q8sTzB7-22" vertex="1" connectable="0">
          <mxGeometry x="-0.9315" relative="1" as="geometry">
            <mxPoint x="4" y="10" as="offset" />
          </mxGeometry>
        </mxCell>
        <mxCell id="cR6-7HmDqcwB-q8sTzB7-25" value="Service Layer" style="shape=folder;xSize=90;align=left;spacingLeft=10;align=left;verticalAlign=top;spacingLeft=5;spacingTop=-4;tabWidth=100;tabHeight=20;tabPosition=left;html=1;recursiveResize=0;fontStyle=1" parent="1" vertex="1">
          <mxGeometry x="320" y="-20" width="1080" height="230" as="geometry" />
        </mxCell>
        <mxCell id="cR6-7HmDqcwB-q8sTzB7-26" value="has a" style="edgeStyle=orthogonalEdgeStyle;rounded=0;orthogonalLoop=1;jettySize=auto;html=1;endArrow=none;endFill=0;startArrow=classic;startFill=1;entryX=0.084;entryY=-0.002;entryDx=0;entryDy=0;entryPerimeter=0;" parent="1" source="cR6-7HmDqcwB-q8sTzB7-27" target="cR6-7HmDqcwB-q8sTzB7-4" edge="1">
          <mxGeometry relative="1" as="geometry">
            <mxPoint x="650" y="530" as="targetPoint" />
            <Array as="points">
              <mxPoint x="600" y="387" />
              <mxPoint x="600" y="497" />
            </Array>
          </mxGeometry>
        </mxCell>
        <mxCell id="cR6-7HmDqcwB-q8sTzB7-27" value="PurchasePolicy" style="swimlane;fontStyle=1;align=center;verticalAlign=top;childLayout=stackLayout;horizontal=1;startSize=26;horizontalStack=0;resizeParent=1;resizeParentMax=0;resizeLast=0;collapsible=1;marginBottom=0;whiteSpace=wrap;html=1;" parent="1" vertex="1">
          <mxGeometry x="376" y="370" width="160" height="34" as="geometry" />
        </mxCell>
        <mxCell id="cR6-7HmDqcwB-q8sTzB7-29" value="" style="line;strokeWidth=1;fillColor=none;align=left;verticalAlign=middle;spacingTop=-1;spacingLeft=3;spacingRight=3;rotatable=0;labelPosition=right;points=[];portConstraint=eastwest;strokeColor=inherit;" parent="cR6-7HmDqcwB-q8sTzB7-27" vertex="1">
          <mxGeometry y="26" width="160" height="8" as="geometry" />
        </mxCell>
        <mxCell id="-gloQtON4wZspu8cm-jV-43" style="edgeStyle=orthogonalEdgeStyle;rounded=0;orthogonalLoop=1;jettySize=auto;html=1;entryX=1;entryY=0.163;entryDx=0;entryDy=0;endArrow=none;endFill=0;entryPerimeter=0;" parent="1" source="cR6-7HmDqcwB-q8sTzB7-31" target="-gloQtON4wZspu8cm-jV-34" edge="1">
          <mxGeometry relative="1" as="geometry">
            <Array as="points">
              <mxPoint x="1340" y="423" />
            </Array>
          </mxGeometry>
        </mxCell>
        <mxCell id="6cY5vgY6TItl-3wK11CW-2" value="0..*" style="edgeLabel;html=1;align=center;verticalAlign=middle;resizable=0;points=[];" parent="-gloQtON4wZspu8cm-jV-43" vertex="1" connectable="0">
          <mxGeometry x="-0.9405" y="-2" relative="1" as="geometry">
            <mxPoint x="10" y="4" as="offset" />
          </mxGeometry>
        </mxCell>
        <mxCell id="-gloQtON4wZspu8cm-jV-46" value="uses" style="edgeStyle=orthogonalEdgeStyle;rounded=0;orthogonalLoop=1;jettySize=auto;html=1;entryX=0.5;entryY=0;entryDx=0;entryDy=0;dashed=1;dashPattern=12 12;" parent="1" source="cR6-7HmDqcwB-q8sTzB7-31" target="tXNTw_c_ti29l-Amt4pW-15" edge="1">
          <mxGeometry relative="1" as="geometry">
            <Array as="points">
              <mxPoint x="1250" y="1040" />
              <mxPoint x="900" y="1040" />
            </Array>
          </mxGeometry>
        </mxCell>
        <mxCell id="OiI4JRpYvR2Bn_D_iNX7-1" value="created&lt;br&gt;from" style="edgeStyle=orthogonalEdgeStyle;rounded=0;orthogonalLoop=1;jettySize=auto;html=1;entryX=1;entryY=0.25;entryDx=0;entryDy=0;" parent="1" source="cR6-7HmDqcwB-q8sTzB7-31" target="cR6-7HmDqcwB-q8sTzB7-62" edge="1">
          <mxGeometry relative="1" as="geometry">
            <Array as="points">
              <mxPoint x="1300" y="682" />
            </Array>
          </mxGeometry>
        </mxCell>
        <mxCell id="OiI4JRpYvR2Bn_D_iNX7-2" value="0..1" style="edgeLabel;html=1;align=center;verticalAlign=middle;resizable=0;points=[];" parent="OiI4JRpYvR2Bn_D_iNX7-1" vertex="1" connectable="0">
          <mxGeometry x="-0.8963" y="-1" relative="1" as="geometry">
            <mxPoint x="10" y="-2" as="offset" />
          </mxGeometry>
        </mxCell>
        <mxCell id="OiI4JRpYvR2Bn_D_iNX7-3" value="0..1" style="edgeLabel;html=1;align=center;verticalAlign=middle;resizable=0;points=[];" parent="OiI4JRpYvR2Bn_D_iNX7-1" vertex="1" connectable="0">
          <mxGeometry x="0.8349" y="-2" relative="1" as="geometry">
            <mxPoint x="1" y="-11" as="offset" />
          </mxGeometry>
        </mxCell>
        <mxCell id="cR6-7HmDqcwB-q8sTzB7-31" value="Order" style="swimlane;fontStyle=1;align=center;verticalAlign=top;childLayout=stackLayout;horizontal=1;startSize=26;horizontalStack=0;resizeParent=1;resizeParentMax=0;resizeLast=0;collapsible=1;marginBottom=0;whiteSpace=wrap;html=1;" parent="1" vertex="1">
          <mxGeometry x="1220" y="840" width="135" height="60" as="geometry" />
        </mxCell>
        <mxCell id="eDnMlg8a8wfs5ZMG_Kfq-12" value="- isComplete" style="text;strokeColor=none;fillColor=none;align=left;verticalAlign=top;spacingLeft=4;spacingRight=4;overflow=hidden;rotatable=0;points=[[0,0.5],[1,0.5]];portConstraint=eastwest;whiteSpace=wrap;html=1;" parent="cR6-7HmDqcwB-q8sTzB7-31" vertex="1">
          <mxGeometry y="26" width="135" height="26" as="geometry" />
        </mxCell>
        <mxCell id="cR6-7HmDqcwB-q8sTzB7-33" value="" style="line;strokeWidth=1;fillColor=none;align=left;verticalAlign=middle;spacingTop=-1;spacingLeft=3;spacingRight=3;rotatable=0;labelPosition=right;points=[];portConstraint=eastwest;strokeColor=inherit;" parent="cR6-7HmDqcwB-q8sTzB7-31" vertex="1">
          <mxGeometry y="52" width="135" height="8" as="geometry" />
        </mxCell>
        <mxCell id="-gloQtON4wZspu8cm-jV-8" style="edgeStyle=orthogonalEdgeStyle;rounded=0;orthogonalLoop=1;jettySize=auto;html=1;endArrow=none;endFill=0;" parent="1" source="cR6-7HmDqcwB-q8sTzB7-35" edge="1">
          <mxGeometry relative="1" as="geometry">
            <mxPoint x="456" y="557" as="targetPoint" />
          </mxGeometry>
        </mxCell>
        <mxCell id="-gloQtON4wZspu8cm-jV-9" value="1" style="edgeLabel;html=1;align=center;verticalAlign=middle;resizable=0;points=[];" parent="-gloQtON4wZspu8cm-jV-8" vertex="1" connectable="0">
          <mxGeometry x="-0.8176" relative="1" as="geometry">
            <mxPoint x="6" y="1" as="offset" />
          </mxGeometry>
        </mxCell>
        <mxCell id="-gloQtON4wZspu8cm-jV-10" value="0..*" style="edgeLabel;html=1;align=center;verticalAlign=middle;resizable=0;points=[];" parent="-gloQtON4wZspu8cm-jV-8" vertex="1" connectable="0">
          <mxGeometry x="0.7795" y="1" relative="1" as="geometry">
            <mxPoint x="12" y="-4" as="offset" />
          </mxGeometry>
        </mxCell>
        <mxCell id="cR6-7HmDqcwB-q8sTzB7-35" value="DiscountPolicy" style="swimlane;fontStyle=1;align=center;verticalAlign=top;childLayout=stackLayout;horizontal=1;startSize=26;horizontalStack=0;resizeParent=1;resizeParentMax=0;resizeLast=0;collapsible=1;marginBottom=0;whiteSpace=wrap;html=1;" parent="1" vertex="1">
          <mxGeometry x="376" y="447" width="160" height="34" as="geometry" />
        </mxCell>
        <mxCell id="cR6-7HmDqcwB-q8sTzB7-37" value="" style="line;strokeWidth=1;fillColor=none;align=left;verticalAlign=middle;spacingTop=-1;spacingLeft=3;spacingRight=3;rotatable=0;labelPosition=right;points=[];portConstraint=eastwest;strokeColor=inherit;" parent="cR6-7HmDqcwB-q8sTzB7-35" vertex="1">
          <mxGeometry y="26" width="160" height="8" as="geometry" />
        </mxCell>
        <mxCell id="cR6-7HmDqcwB-q8sTzB7-39" value="Discount" style="swimlane;fontStyle=1;align=center;verticalAlign=top;childLayout=stackLayout;horizontal=1;startSize=26;horizontalStack=0;resizeParent=1;resizeParentMax=0;resizeLast=0;collapsible=1;marginBottom=0;whiteSpace=wrap;html=1;" parent="1" vertex="1">
          <mxGeometry x="376" y="557" width="160" height="34" as="geometry">
            <mxRectangle x="370" y="630" width="90" height="30" as="alternateBounds" />
          </mxGeometry>
        </mxCell>
        <mxCell id="cR6-7HmDqcwB-q8sTzB7-41" value="" style="line;strokeWidth=1;fillColor=none;align=left;verticalAlign=middle;spacingTop=-1;spacingLeft=3;spacingRight=3;rotatable=0;labelPosition=right;points=[];portConstraint=eastwest;strokeColor=inherit;" parent="cR6-7HmDqcwB-q8sTzB7-39" vertex="1">
          <mxGeometry y="26" width="160" height="8" as="geometry" />
        </mxCell>
        <mxCell id="cR6-7HmDqcwB-q8sTzB7-43" value="VisibleDiscount" style="swimlane;fontStyle=1;align=center;verticalAlign=top;childLayout=stackLayout;horizontal=1;startSize=26;horizontalStack=0;resizeParent=1;resizeParentMax=0;resizeLast=0;collapsible=1;marginBottom=0;whiteSpace=wrap;html=1;" parent="1" vertex="1">
          <mxGeometry x="336" y="670" width="120" height="34" as="geometry" />
        </mxCell>
        <mxCell id="cR6-7HmDqcwB-q8sTzB7-45" value="" style="line;strokeWidth=1;fillColor=none;align=left;verticalAlign=middle;spacingTop=-1;spacingLeft=3;spacingRight=3;rotatable=0;labelPosition=right;points=[];portConstraint=eastwest;strokeColor=inherit;" parent="cR6-7HmDqcwB-q8sTzB7-43" vertex="1">
          <mxGeometry y="26" width="120" height="8" as="geometry" />
        </mxCell>
        <mxCell id="cR6-7HmDqcwB-q8sTzB7-47" value="HiddenDiscount" style="swimlane;fontStyle=1;align=center;verticalAlign=top;childLayout=stackLayout;horizontal=1;startSize=26;horizontalStack=0;resizeParent=1;resizeParentMax=0;resizeLast=0;collapsible=1;marginBottom=0;whiteSpace=wrap;html=1;" parent="1" vertex="1">
          <mxGeometry x="460" y="670" width="120" height="34" as="geometry" />
        </mxCell>
        <mxCell id="cR6-7HmDqcwB-q8sTzB7-49" value="" style="line;strokeWidth=1;fillColor=none;align=left;verticalAlign=middle;spacingTop=-1;spacingLeft=3;spacingRight=3;rotatable=0;labelPosition=right;points=[];portConstraint=eastwest;strokeColor=inherit;" parent="cR6-7HmDqcwB-q8sTzB7-47" vertex="1">
          <mxGeometry y="26" width="120" height="8" as="geometry" />
        </mxCell>
        <mxCell id="cR6-7HmDqcwB-q8sTzB7-51" style="edgeStyle=orthogonalEdgeStyle;rounded=0;orthogonalLoop=1;jettySize=auto;html=1;endArrow=block;endFill=0;entryX=0.5;entryY=1;entryDx=0;entryDy=0;" parent="1" source="cR6-7HmDqcwB-q8sTzB7-43" target="cR6-7HmDqcwB-q8sTzB7-39" edge="1">
          <mxGeometry relative="1" as="geometry">
            <Array as="points">
              <mxPoint x="391" y="657" />
              <mxPoint x="456" y="657" />
            </Array>
            <mxPoint x="454" y="591" as="targetPoint" />
          </mxGeometry>
        </mxCell>
        <mxCell id="cR6-7HmDqcwB-q8sTzB7-52" style="edgeStyle=orthogonalEdgeStyle;rounded=0;orthogonalLoop=1;jettySize=auto;html=1;endArrow=none;endFill=0;" parent="1" source="cR6-7HmDqcwB-q8sTzB7-47" edge="1">
          <mxGeometry relative="1" as="geometry">
            <mxPoint x="446" y="657" as="targetPoint" />
            <Array as="points">
              <mxPoint x="511" y="657" />
            </Array>
          </mxGeometry>
        </mxCell>
        <mxCell id="cR6-7HmDqcwB-q8sTzB7-53" style="edgeStyle=orthogonalEdgeStyle;rounded=0;orthogonalLoop=1;jettySize=auto;html=1;entryX=0.993;entryY=0.395;entryDx=0;entryDy=0;entryPerimeter=0;" parent="1" source="cR6-7HmDqcwB-q8sTzB7-57" target="cR6-7HmDqcwB-q8sTzB7-9" edge="1">
          <mxGeometry relative="1" as="geometry">
            <mxPoint x="1040" y="559" as="targetPoint" />
            <Array as="points">
              <mxPoint x="1040" y="533" />
            </Array>
          </mxGeometry>
        </mxCell>
        <mxCell id="cR6-7HmDqcwB-q8sTzB7-54" value="0..*" style="edgeLabel;html=1;align=center;verticalAlign=middle;resizable=0;points=[];" parent="cR6-7HmDqcwB-q8sTzB7-53" vertex="1" connectable="0">
          <mxGeometry x="0.5074" relative="1" as="geometry">
            <mxPoint x="-3" y="-11" as="offset" />
          </mxGeometry>
        </mxCell>
        <mxCell id="-gloQtON4wZspu8cm-jV-16" value="1" style="edgeLabel;html=1;align=center;verticalAlign=middle;resizable=0;points=[];" parent="cR6-7HmDqcwB-q8sTzB7-53" vertex="1" connectable="0">
          <mxGeometry x="-0.7763" y="1" relative="1" as="geometry">
            <mxPoint y="-10" as="offset" />
          </mxGeometry>
        </mxCell>
        <mxCell id="cR6-7HmDqcwB-q8sTzB7-55" style="edgeStyle=orthogonalEdgeStyle;rounded=0;orthogonalLoop=1;jettySize=auto;html=1;entryX=1;entryY=0.25;entryDx=0;entryDy=0;" parent="1" source="cR6-7HmDqcwB-q8sTzB7-57" target="cR6-7HmDqcwB-q8sTzB7-16" edge="1">
          <mxGeometry relative="1" as="geometry">
            <Array as="points">
              <mxPoint x="1180" y="560" />
              <mxPoint x="1080" y="560" />
              <mxPoint x="1080" y="638" />
            </Array>
          </mxGeometry>
        </mxCell>
        <mxCell id="cR6-7HmDqcwB-q8sTzB7-56" value="0..*" style="edgeLabel;html=1;align=center;verticalAlign=middle;resizable=0;points=[];" parent="cR6-7HmDqcwB-q8sTzB7-55" vertex="1" connectable="0">
          <mxGeometry x="0.8754" relative="1" as="geometry">
            <mxPoint x="1" y="-16" as="offset" />
          </mxGeometry>
        </mxCell>
        <mxCell id="-gloQtON4wZspu8cm-jV-15" value="1" style="edgeLabel;html=1;align=center;verticalAlign=middle;resizable=0;points=[];" parent="cR6-7HmDqcwB-q8sTzB7-55" vertex="1" connectable="0">
          <mxGeometry x="-0.945" relative="1" as="geometry">
            <mxPoint x="-6" y="3" as="offset" />
          </mxGeometry>
        </mxCell>
        <mxCell id="-gloQtON4wZspu8cm-jV-13" style="edgeStyle=orthogonalEdgeStyle;rounded=0;orthogonalLoop=1;jettySize=auto;html=1;entryX=0.5;entryY=0;entryDx=0;entryDy=0;exitX=1;exitY=0.25;exitDx=0;exitDy=0;endArrow=none;endFill=0;" parent="1" source="-gloQtON4wZspu8cm-jV-34" target="cR6-7HmDqcwB-q8sTzB7-62" edge="1">
          <mxGeometry relative="1" as="geometry">
            <Array as="points">
              <mxPoint x="1260" y="430" />
              <mxPoint x="1330" y="430" />
              <mxPoint x="1330" y="640" />
              <mxPoint x="1190" y="640" />
            </Array>
          </mxGeometry>
        </mxCell>
        <mxCell id="-gloQtON4wZspu8cm-jV-14" value="1" style="edgeLabel;html=1;align=center;verticalAlign=middle;resizable=0;points=[];" parent="-gloQtON4wZspu8cm-jV-13" vertex="1" connectable="0">
          <mxGeometry x="-0.8958" y="2" relative="1" as="geometry">
            <mxPoint x="-13" y="-18" as="offset" />
          </mxGeometry>
        </mxCell>
        <mxCell id="-gloQtON4wZspu8cm-jV-17" value="1" style="edgeLabel;html=1;align=center;verticalAlign=middle;resizable=0;points=[];" parent="-gloQtON4wZspu8cm-jV-13" vertex="1" connectable="0">
          <mxGeometry x="0.7895" y="2" relative="1" as="geometry">
            <mxPoint x="-8" y="8" as="offset" />
          </mxGeometry>
        </mxCell>
        <mxCell id="6cY5vgY6TItl-3wK11CW-1" value="1" style="edgeLabel;html=1;align=center;verticalAlign=middle;resizable=0;points=[];" parent="-gloQtON4wZspu8cm-jV-13" vertex="1" connectable="0">
          <mxGeometry x="-0.9503" y="1" relative="1" as="geometry">
            <mxPoint y="11" as="offset" />
          </mxGeometry>
        </mxCell>
        <mxCell id="-gloQtON4wZspu8cm-jV-36" style="edgeStyle=orthogonalEdgeStyle;rounded=0;orthogonalLoop=1;jettySize=auto;html=1;entryX=0.5;entryY=1;entryDx=0;entryDy=0;endArrow=block;endFill=0;" parent="1" source="cR6-7HmDqcwB-q8sTzB7-57" target="-gloQtON4wZspu8cm-jV-34" edge="1">
          <mxGeometry relative="1" as="geometry">
            <Array as="points">
              <mxPoint x="1150" y="490" />
              <mxPoint x="1180" y="490" />
            </Array>
          </mxGeometry>
        </mxCell>
        <mxCell id="cR6-7HmDqcwB-q8sTzB7-57" value="Subscriber" style="swimlane;fontStyle=1;align=center;verticalAlign=top;childLayout=stackLayout;horizontal=1;startSize=26;horizontalStack=0;resizeParent=1;resizeParentMax=0;resizeLast=0;collapsible=1;marginBottom=0;whiteSpace=wrap;html=1;" parent="1" vertex="1">
          <mxGeometry x="1100" y="503" width="100" height="60" as="geometry" />
        </mxCell>
        <mxCell id="eDnMlg8a8wfs5ZMG_Kfq-13" value="- username" style="text;strokeColor=none;fillColor=none;align=left;verticalAlign=top;spacingLeft=4;spacingRight=4;overflow=hidden;rotatable=0;points=[[0,0.5],[1,0.5]];portConstraint=eastwest;whiteSpace=wrap;html=1;" parent="cR6-7HmDqcwB-q8sTzB7-57" vertex="1">
          <mxGeometry y="26" width="100" height="26" as="geometry" />
        </mxCell>
        <mxCell id="cR6-7HmDqcwB-q8sTzB7-60" value="" style="line;strokeWidth=1;fillColor=none;align=left;verticalAlign=middle;spacingTop=-1;spacingLeft=3;spacingRight=3;rotatable=0;labelPosition=right;points=[];portConstraint=eastwest;strokeColor=inherit;" parent="cR6-7HmDqcwB-q8sTzB7-57" vertex="1">
          <mxGeometry y="52" width="100" height="8" as="geometry" />
        </mxCell>
        <mxCell id="-gloQtON4wZspu8cm-jV-5" style="edgeStyle=orthogonalEdgeStyle;rounded=0;orthogonalLoop=1;jettySize=auto;html=1;entryX=0.5;entryY=0;entryDx=0;entryDy=0;endArrow=none;endFill=0;" parent="1" source="cR6-7HmDqcwB-q8sTzB7-62" target="cR6-7HmDqcwB-q8sTzB7-159" edge="1">
          <mxGeometry relative="1" as="geometry" />
        </mxCell>
        <mxCell id="-gloQtON4wZspu8cm-jV-6" value="0..*" style="edgeLabel;html=1;align=center;verticalAlign=middle;resizable=0;points=[];" parent="-gloQtON4wZspu8cm-jV-5" vertex="1" connectable="0">
          <mxGeometry x="0.5472" y="1" relative="1" as="geometry">
            <mxPoint x="12" as="offset" />
          </mxGeometry>
        </mxCell>
        <mxCell id="-gloQtON4wZspu8cm-jV-7" value="1" style="edgeLabel;html=1;align=center;verticalAlign=middle;resizable=0;points=[];" parent="-gloQtON4wZspu8cm-jV-5" vertex="1" connectable="0">
          <mxGeometry x="-0.8079" y="1" relative="1" as="geometry">
            <mxPoint x="6" y="4" as="offset" />
          </mxGeometry>
        </mxCell>
        <mxCell id="cR6-7HmDqcwB-q8sTzB7-62" value="ShoppingCart" style="swimlane;fontStyle=1;align=center;verticalAlign=top;childLayout=stackLayout;horizontal=1;startSize=26;horizontalStack=0;resizeParent=1;resizeParentMax=0;resizeLast=0;collapsible=1;marginBottom=0;whiteSpace=wrap;html=1;" parent="1" vertex="1">
          <mxGeometry x="1110" y="674" width="160" height="34" as="geometry" />
        </mxCell>
        <mxCell id="cR6-7HmDqcwB-q8sTzB7-64" value="" style="line;strokeWidth=1;fillColor=none;align=left;verticalAlign=middle;spacingTop=-1;spacingLeft=3;spacingRight=3;rotatable=0;labelPosition=right;points=[];portConstraint=eastwest;strokeColor=inherit;" parent="cR6-7HmDqcwB-q8sTzB7-62" vertex="1">
          <mxGeometry y="26" width="160" height="8" as="geometry" />
        </mxCell>
        <mxCell id="cR6-7HmDqcwB-q8sTzB7-74" value="" style="endArrow=none;dashed=1;html=1;rounded=0;exitX=0.186;exitY=-0.008;exitDx=0;exitDy=0;exitPerimeter=0;" parent="1" source="cR6-7HmDqcwB-q8sTzB7-76" edge="1">
          <mxGeometry width="50" height="50" relative="1" as="geometry">
            <mxPoint x="880" y="740" as="sourcePoint" />
            <mxPoint x="830" y="650" as="targetPoint" />
            <Array as="points">
              <mxPoint x="880" y="710" />
              <mxPoint x="830" y="710" />
            </Array>
          </mxGeometry>
        </mxCell>
        <mxCell id="cR6-7HmDqcwB-q8sTzB7-75" value="0..*" style="edgeLabel;html=1;align=center;verticalAlign=middle;resizable=0;points=[];" parent="cR6-7HmDqcwB-q8sTzB7-74" vertex="1" connectable="0">
          <mxGeometry x="-0.8328" relative="1" as="geometry">
            <mxPoint x="11" y="1" as="offset" />
          </mxGeometry>
        </mxCell>
        <mxCell id="cR6-7HmDqcwB-q8sTzB7-76" value="&lt;div&gt;&lt;span style=&quot;font-weight: normal;&quot;&gt;&amp;nbsp;&amp;lt;&amp;lt;enum&amp;gt;&amp;gt;&lt;/span&gt;&lt;br&gt;&lt;/div&gt;ManagerAuthorization" style="swimlane;fontStyle=1;align=center;verticalAlign=top;childLayout=stackLayout;horizontal=1;startSize=40;horizontalStack=0;resizeParent=1;resizeParentMax=0;resizeLast=0;collapsible=1;marginBottom=0;whiteSpace=wrap;html=1;" parent="1" vertex="1">
          <mxGeometry x="850" y="743" width="160" height="152" as="geometry" />
        </mxCell>
        <mxCell id="cR6-7HmDqcwB-q8sTzB7-77" value="- View" style="text;strokeColor=none;fillColor=none;align=left;verticalAlign=top;spacingLeft=4;spacingRight=4;overflow=hidden;rotatable=0;points=[[0,0.5],[1,0.5]];portConstraint=eastwest;whiteSpace=wrap;html=1;" parent="cR6-7HmDqcwB-q8sTzB7-76" vertex="1">
          <mxGeometry y="40" width="160" height="26" as="geometry" />
        </mxCell>
        <mxCell id="cR6-7HmDqcwB-q8sTzB7-78" value="- UpdateSupply" style="text;strokeColor=none;fillColor=none;align=left;verticalAlign=top;spacingLeft=4;spacingRight=4;overflow=hidden;rotatable=0;points=[[0,0.5],[1,0.5]];portConstraint=eastwest;whiteSpace=wrap;html=1;" parent="cR6-7HmDqcwB-q8sTzB7-76" vertex="1">
          <mxGeometry y="66" width="160" height="26" as="geometry" />
        </mxCell>
        <mxCell id="cR6-7HmDqcwB-q8sTzB7-79" value="- UpdatePurchasePolicy" style="text;strokeColor=none;fillColor=none;align=left;verticalAlign=top;spacingLeft=4;spacingRight=4;overflow=hidden;rotatable=0;points=[[0,0.5],[1,0.5]];portConstraint=eastwest;whiteSpace=wrap;html=1;" parent="cR6-7HmDqcwB-q8sTzB7-76" vertex="1">
          <mxGeometry y="92" width="160" height="26" as="geometry" />
        </mxCell>
        <mxCell id="cR6-7HmDqcwB-q8sTzB7-80" value="- UpdateDiscountPolicy" style="text;strokeColor=none;fillColor=none;align=left;verticalAlign=top;spacingLeft=4;spacingRight=4;overflow=hidden;rotatable=0;points=[[0,0.5],[1,0.5]];portConstraint=eastwest;whiteSpace=wrap;html=1;" parent="cR6-7HmDqcwB-q8sTzB7-76" vertex="1">
          <mxGeometry y="118" width="160" height="26" as="geometry" />
        </mxCell>
        <mxCell id="cR6-7HmDqcwB-q8sTzB7-81" value="" style="line;strokeWidth=1;fillColor=none;align=left;verticalAlign=middle;spacingTop=-1;spacingLeft=3;spacingRight=3;rotatable=0;labelPosition=right;points=[];portConstraint=eastwest;strokeColor=inherit;" parent="cR6-7HmDqcwB-q8sTzB7-76" vertex="1">
          <mxGeometry y="144" width="160" height="8" as="geometry" />
        </mxCell>
        <mxCell id="cR6-7HmDqcwB-q8sTzB7-82" style="edgeStyle=orthogonalEdgeStyle;rounded=0;orthogonalLoop=1;jettySize=auto;html=1;endArrow=none;endFill=0;startArrow=diamondThin;startFill=0;" parent="1" source="cR6-7HmDqcwB-q8sTzB7-85" target="cR6-7HmDqcwB-q8sTzB7-4" edge="1">
          <mxGeometry relative="1" as="geometry">
            <Array as="points">
              <mxPoint x="660" y="500" />
              <mxPoint x="660" y="500" />
            </Array>
          </mxGeometry>
        </mxCell>
        <mxCell id="cR6-7HmDqcwB-q8sTzB7-83" value="0..*" style="edgeLabel;html=1;align=center;verticalAlign=middle;resizable=0;points=[];" parent="cR6-7HmDqcwB-q8sTzB7-82" vertex="1" connectable="0">
          <mxGeometry x="0.7704" relative="1" as="geometry">
            <mxPoint x="11" y="-1" as="offset" />
          </mxGeometry>
        </mxCell>
        <mxCell id="cR6-7HmDqcwB-q8sTzB7-84" value="1" style="edgeLabel;html=1;align=center;verticalAlign=middle;resizable=0;points=[];" parent="cR6-7HmDqcwB-q8sTzB7-82" vertex="1" connectable="0">
          <mxGeometry x="-0.8214" y="1" relative="1" as="geometry">
            <mxPoint x="5" y="4" as="offset" />
          </mxGeometry>
        </mxCell>
        <mxCell id="cR6-7HmDqcwB-q8sTzB7-85" value="StoreController" style="swimlane;fontStyle=1;align=center;verticalAlign=top;childLayout=stackLayout;horizontal=1;startSize=26;horizontalStack=0;resizeParent=1;resizeParentMax=0;resizeLast=0;collapsible=1;marginBottom=0;whiteSpace=wrap;html=1;" parent="1" vertex="1">
          <mxGeometry x="560" y="322" width="200" height="34" as="geometry" />
        </mxCell>
        <mxCell id="cR6-7HmDqcwB-q8sTzB7-87" value="" style="line;strokeWidth=1;fillColor=none;align=left;verticalAlign=middle;spacingTop=-1;spacingLeft=3;spacingRight=3;rotatable=0;labelPosition=right;points=[];portConstraint=eastwest;strokeColor=inherit;" parent="cR6-7HmDqcwB-q8sTzB7-85" vertex="1">
          <mxGeometry y="26" width="200" height="8" as="geometry" />
        </mxCell>
        <mxCell id="cR6-7HmDqcwB-q8sTzB7-93" style="edgeStyle=orthogonalEdgeStyle;rounded=0;orthogonalLoop=1;jettySize=auto;html=1;entryX=0.173;entryY=-0.012;entryDx=0;entryDy=0;endArrow=none;endFill=0;startArrow=diamondThin;startFill=0;entryPerimeter=0;exitX=0.5;exitY=1;exitDx=0;exitDy=0;" parent="1" source="tXNTw_c_ti29l-Amt4pW-6" target="cR6-7HmDqcwB-q8sTzB7-107" edge="1">
          <mxGeometry relative="1" as="geometry">
            <Array as="points" />
          </mxGeometry>
        </mxCell>
        <mxCell id="cR6-7HmDqcwB-q8sTzB7-94" value="1" style="edgeLabel;html=1;align=center;verticalAlign=middle;resizable=0;points=[];" parent="cR6-7HmDqcwB-q8sTzB7-93" vertex="1" connectable="0">
          <mxGeometry x="0.9107" y="-1" relative="1" as="geometry">
            <mxPoint x="-6" y="1" as="offset" />
          </mxGeometry>
        </mxCell>
        <mxCell id="cR6-7HmDqcwB-q8sTzB7-95" value="1" style="edgeLabel;html=1;align=center;verticalAlign=middle;resizable=0;points=[];" parent="cR6-7HmDqcwB-q8sTzB7-93" vertex="1" connectable="0">
          <mxGeometry x="-0.8857" y="1" relative="1" as="geometry">
            <mxPoint x="-10" y="1" as="offset" />
          </mxGeometry>
        </mxCell>
        <mxCell id="cR6-7HmDqcwB-q8sTzB7-96" value="returns" style="edgeStyle=orthogonalEdgeStyle;rounded=0;orthogonalLoop=1;jettySize=auto;html=1;exitX=1;exitY=0.25;exitDx=0;exitDy=0;entryX=0;entryY=0.297;entryDx=0;entryDy=0;entryPerimeter=0;" parent="1" source="cR6-7HmDqcwB-q8sTzB7-152" target="cR6-7HmDqcwB-q8sTzB7-156" edge="1">
          <mxGeometry relative="1" as="geometry">
            <mxPoint x="1249" y="44" as="targetPoint" />
            <Array as="points" />
          </mxGeometry>
        </mxCell>
        <mxCell id="cR6-7HmDqcwB-q8sTzB7-101" style="edgeStyle=orthogonalEdgeStyle;rounded=0;orthogonalLoop=1;jettySize=auto;html=1;startArrow=diamondThin;startFill=0;endArrow=none;endFill=0;exitX=0.479;exitY=1.042;exitDx=0;exitDy=0;exitPerimeter=0;" parent="1" source="cR6-7HmDqcwB-q8sTzB7-148" edge="1">
          <mxGeometry relative="1" as="geometry">
            <mxPoint x="650" y="322" as="targetPoint" />
            <Array as="points">
              <mxPoint x="651" y="200" />
              <mxPoint x="650" y="200" />
            </Array>
            <mxPoint x="650" y="50" as="sourcePoint" />
          </mxGeometry>
        </mxCell>
        <mxCell id="cR6-7HmDqcwB-q8sTzB7-102" value="1" style="edgeLabel;html=1;align=center;verticalAlign=middle;resizable=0;points=[];" parent="cR6-7HmDqcwB-q8sTzB7-101" vertex="1" connectable="0">
          <mxGeometry x="0.919" y="1" relative="1" as="geometry">
            <mxPoint x="-8" y="-3" as="offset" />
          </mxGeometry>
        </mxCell>
        <mxCell id="cR6-7HmDqcwB-q8sTzB7-140" value="1" style="edgeLabel;html=1;align=center;verticalAlign=middle;resizable=0;points=[];" parent="cR6-7HmDqcwB-q8sTzB7-101" vertex="1" connectable="0">
          <mxGeometry x="-0.9193" y="-2" relative="1" as="geometry">
            <mxPoint x="-8" y="3" as="offset" />
          </mxGeometry>
        </mxCell>
        <mxCell id="cR6-7HmDqcwB-q8sTzB7-103" value="appointed" style="edgeStyle=orthogonalEdgeStyle;rounded=0;orthogonalLoop=1;jettySize=auto;html=1;endArrow=none;endFill=0;startArrow=classic;startFill=1;entryX=0.5;entryY=1;entryDx=0;entryDy=0;exitX=0.476;exitY=-0.018;exitDx=0;exitDy=0;exitPerimeter=0;" parent="1" source="cR6-7HmDqcwB-q8sTzB7-16" target="cR6-7HmDqcwB-q8sTzB7-9" edge="1">
          <mxGeometry relative="1" as="geometry">
            <Array as="points">
              <mxPoint x="950" y="554" />
            </Array>
            <mxPoint x="950" y="630" as="sourcePoint" />
            <mxPoint x="950" y="554" as="targetPoint" />
          </mxGeometry>
        </mxCell>
        <mxCell id="cR6-7HmDqcwB-q8sTzB7-104" value="0..*" style="edgeLabel;html=1;align=center;verticalAlign=middle;resizable=0;points=[];" parent="cR6-7HmDqcwB-q8sTzB7-103" vertex="1" connectable="0">
          <mxGeometry x="-0.7724" y="1" relative="1" as="geometry">
            <mxPoint x="15" as="offset" />
          </mxGeometry>
        </mxCell>
        <mxCell id="6cY5vgY6TItl-3wK11CW-4" value="1" style="edgeLabel;html=1;align=center;verticalAlign=middle;resizable=0;points=[];" parent="cR6-7HmDqcwB-q8sTzB7-103" vertex="1" connectable="0">
          <mxGeometry x="0.7174" y="-1" relative="1" as="geometry">
            <mxPoint x="4" y="1" as="offset" />
          </mxGeometry>
        </mxCell>
        <mxCell id="cR6-7HmDqcwB-q8sTzB7-105" value="appointed" style="edgeStyle=orthogonalEdgeStyle;rounded=0;orthogonalLoop=1;jettySize=auto;html=1;entryX=0.781;entryY=-0.014;entryDx=0;entryDy=0;entryPerimeter=0;" parent="1" source="cR6-7HmDqcwB-q8sTzB7-9" target="cR6-7HmDqcwB-q8sTzB7-9" edge="1">
          <mxGeometry relative="1" as="geometry">
            <Array as="points">
              <mxPoint x="945" y="500" />
              <mxPoint x="998" y="500" />
              <mxPoint x="998" y="510" />
              <mxPoint x="998" y="510" />
            </Array>
          </mxGeometry>
        </mxCell>
        <mxCell id="cR6-7HmDqcwB-q8sTzB7-106" value="0..*" style="edgeLabel;html=1;align=center;verticalAlign=middle;resizable=0;points=[];" parent="cR6-7HmDqcwB-q8sTzB7-105" vertex="1" connectable="0">
          <mxGeometry x="0.9176" y="-1" relative="1" as="geometry">
            <mxPoint x="14" y="-7" as="offset" />
          </mxGeometry>
        </mxCell>
        <mxCell id="6cY5vgY6TItl-3wK11CW-5" value="1" style="edgeLabel;html=1;align=center;verticalAlign=middle;resizable=0;points=[];" parent="cR6-7HmDqcwB-q8sTzB7-105" vertex="1" connectable="0">
          <mxGeometry x="-0.7897" relative="1" as="geometry">
            <mxPoint x="-5" as="offset" />
          </mxGeometry>
        </mxCell>
        <mxCell id="OiI4JRpYvR2Bn_D_iNX7-11" style="edgeStyle=orthogonalEdgeStyle;rounded=0;orthogonalLoop=1;jettySize=auto;html=1;entryX=0.5;entryY=0;entryDx=0;entryDy=0;endArrow=none;endFill=0;" parent="1" source="cR6-7HmDqcwB-q8sTzB7-107" target="-gloQtON4wZspu8cm-jV-11" edge="1">
          <mxGeometry relative="1" as="geometry" />
        </mxCell>
        <mxCell id="OiI4JRpYvR2Bn_D_iNX7-12" value="1" style="edgeLabel;html=1;align=center;verticalAlign=middle;resizable=0;points=[];" parent="OiI4JRpYvR2Bn_D_iNX7-11" vertex="1" connectable="0">
          <mxGeometry x="-0.8625" y="-1" relative="1" as="geometry">
            <mxPoint y="-7" as="offset" />
          </mxGeometry>
        </mxCell>
        <mxCell id="OiI4JRpYvR2Bn_D_iNX7-13" value="1" style="edgeLabel;html=1;align=center;verticalAlign=middle;resizable=0;points=[];" parent="OiI4JRpYvR2Bn_D_iNX7-11" vertex="1" connectable="0">
          <mxGeometry x="0.8907" y="1" relative="1" as="geometry">
            <mxPoint x="4" y="-1" as="offset" />
          </mxGeometry>
        </mxCell>
        <mxCell id="cR6-7HmDqcwB-q8sTzB7-107" value="UserController" style="swimlane;fontStyle=1;align=center;verticalAlign=top;childLayout=stackLayout;horizontal=1;startSize=26;horizontalStack=0;resizeParent=1;resizeParentMax=0;resizeLast=0;collapsible=1;marginBottom=0;whiteSpace=wrap;html=1;" parent="1" vertex="1">
          <mxGeometry x="1070" y="330" width="220" height="34" as="geometry" />
        </mxCell>
        <mxCell id="cR6-7HmDqcwB-q8sTzB7-109" value="" style="line;strokeWidth=1;fillColor=none;align=left;verticalAlign=middle;spacingTop=-1;spacingLeft=3;spacingRight=3;rotatable=0;labelPosition=right;points=[];portConstraint=eastwest;strokeColor=inherit;" parent="cR6-7HmDqcwB-q8sTzB7-107" vertex="1">
          <mxGeometry y="26" width="220" height="8" as="geometry" />
        </mxCell>
        <mxCell id="cR6-7HmDqcwB-q8sTzB7-113" value="Product" style="swimlane;fontStyle=1;align=center;verticalAlign=top;childLayout=stackLayout;horizontal=1;startSize=26;horizontalStack=0;resizeParent=1;resizeParentMax=0;resizeLast=0;collapsible=1;marginBottom=0;whiteSpace=wrap;html=1;" parent="1" vertex="1">
          <mxGeometry x="600" y="721" width="160" height="86" as="geometry" />
        </mxCell>
        <mxCell id="-gloQtON4wZspu8cm-jV-30" value="- storeID" style="text;strokeColor=none;fillColor=none;align=left;verticalAlign=top;spacingLeft=4;spacingRight=4;overflow=hidden;rotatable=0;points=[[0,0.5],[1,0.5]];portConstraint=eastwest;whiteSpace=wrap;html=1;" parent="cR6-7HmDqcwB-q8sTzB7-113" vertex="1">
          <mxGeometry y="26" width="160" height="26" as="geometry" />
        </mxCell>
        <mxCell id="6tqPysPxnDVqmEwWHUbS-2" value="..." style="text;strokeColor=none;fillColor=none;align=left;verticalAlign=top;spacingLeft=4;spacingRight=4;overflow=hidden;rotatable=0;points=[[0,0.5],[1,0.5]];portConstraint=eastwest;whiteSpace=wrap;html=1;" parent="cR6-7HmDqcwB-q8sTzB7-113" vertex="1">
          <mxGeometry y="52" width="160" height="26" as="geometry" />
        </mxCell>
        <mxCell id="cR6-7HmDqcwB-q8sTzB7-115" value="" style="line;strokeWidth=1;fillColor=none;align=left;verticalAlign=middle;spacingTop=-1;spacingLeft=3;spacingRight=3;rotatable=0;labelPosition=right;points=[];portConstraint=eastwest;strokeColor=inherit;" parent="cR6-7HmDqcwB-q8sTzB7-113" vertex="1">
          <mxGeometry y="78" width="160" height="8" as="geometry" />
        </mxCell>
        <mxCell id="cR6-7HmDqcwB-q8sTzB7-117" value="founded by" style="edgeStyle=orthogonalEdgeStyle;rounded=0;orthogonalLoop=1;jettySize=auto;html=1;entryX=0.263;entryY=-0.013;entryDx=0;entryDy=0;entryPerimeter=0;" parent="1" source="cR6-7HmDqcwB-q8sTzB7-4" target="cR6-7HmDqcwB-q8sTzB7-9" edge="1">
          <mxGeometry relative="1" as="geometry">
            <Array as="points">
              <mxPoint x="900" y="500" />
            </Array>
            <mxPoint x="900" y="518" as="targetPoint" />
          </mxGeometry>
        </mxCell>
        <mxCell id="cR6-7HmDqcwB-q8sTzB7-118" value="1" style="edgeLabel;html=1;align=center;verticalAlign=middle;resizable=0;points=[];" parent="cR6-7HmDqcwB-q8sTzB7-117" vertex="1" connectable="0">
          <mxGeometry x="0.8443" y="1" relative="1" as="geometry">
            <mxPoint x="-4" y="-14" as="offset" />
          </mxGeometry>
        </mxCell>
        <mxCell id="eDnMlg8a8wfs5ZMG_Kfq-2" value="1" style="edgeLabel;html=1;align=center;verticalAlign=middle;resizable=0;points=[];" parent="cR6-7HmDqcwB-q8sTzB7-117" vertex="1" connectable="0">
          <mxGeometry x="-0.9179" y="1" relative="1" as="geometry">
            <mxPoint x="4" y="-8" as="offset" />
          </mxGeometry>
        </mxCell>
        <mxCell id="cR6-7HmDqcwB-q8sTzB7-119" style="edgeStyle=orthogonalEdgeStyle;rounded=0;orthogonalLoop=1;jettySize=auto;html=1;entryX=0.438;entryY=0.01;entryDx=0;entryDy=0;endArrow=none;endFill=0;startArrow=diamondThin;startFill=0;entryPerimeter=0;" parent="1" source="cR6-7HmDqcwB-q8sTzB7-107" target="-gloQtON4wZspu8cm-jV-34" edge="1">
          <mxGeometry relative="1" as="geometry">
            <Array as="points">
              <mxPoint x="1170" y="380" />
              <mxPoint x="1170" y="380" />
            </Array>
          </mxGeometry>
        </mxCell>
        <mxCell id="cR6-7HmDqcwB-q8sTzB7-120" value="1" style="edgeLabel;html=1;align=center;verticalAlign=middle;resizable=0;points=[];" parent="cR6-7HmDqcwB-q8sTzB7-119" vertex="1" connectable="0">
          <mxGeometry x="-0.6178" relative="1" as="geometry">
            <mxPoint x="5" y="1" as="offset" />
          </mxGeometry>
        </mxCell>
        <mxCell id="cR6-7HmDqcwB-q8sTzB7-121" value="1..*" style="edgeLabel;html=1;align=center;verticalAlign=middle;resizable=0;points=[];" parent="cR6-7HmDqcwB-q8sTzB7-119" vertex="1" connectable="0">
          <mxGeometry x="0.6252" y="2" relative="1" as="geometry">
            <mxPoint x="8" y="-3" as="offset" />
          </mxGeometry>
        </mxCell>
        <mxCell id="cR6-7HmDqcwB-q8sTzB7-124" value="creates" style="edgeStyle=orthogonalEdgeStyle;rounded=0;orthogonalLoop=1;jettySize=auto;html=1;exitX=-0.007;exitY=0.343;exitDx=0;exitDy=0;exitPerimeter=0;entryX=1.003;entryY=0.331;entryDx=0;entryDy=0;entryPerimeter=0;" parent="1" target="cR6-7HmDqcwB-q8sTzB7-146" edge="1">
          <mxGeometry relative="1" as="geometry">
            <mxPoint x="808.7200000000001" y="46.57999999999993" as="sourcePoint" />
            <mxPoint x="733.9999999999999" y="139.5" as="targetPoint" />
            <Array as="points">
              <mxPoint x="790" y="47" />
              <mxPoint x="790" y="143" />
            </Array>
          </mxGeometry>
        </mxCell>
        <mxCell id="cR6-7HmDqcwB-q8sTzB7-125" value="creates" style="edgeStyle=orthogonalEdgeStyle;rounded=0;orthogonalLoop=1;jettySize=auto;html=1;entryX=0;entryY=0.25;entryDx=0;entryDy=0;exitX=1.008;exitY=-0.147;exitDx=0;exitDy=0;exitPerimeter=0;" parent="1" source="cR6-7HmDqcwB-q8sTzB7-150" target="tXNTw_c_ti29l-Amt4pW-6" edge="1">
          <mxGeometry x="0.0018" relative="1" as="geometry">
            <Array as="points">
              <mxPoint x="990" y="48" />
              <mxPoint x="990" y="138" />
            </Array>
            <mxPoint x="930" y="36.5" as="sourcePoint" />
            <mxPoint as="offset" />
          </mxGeometry>
        </mxCell>
        <mxCell id="eDnMlg8a8wfs5ZMG_Kfq-9" style="edgeStyle=orthogonalEdgeStyle;rounded=0;orthogonalLoop=1;jettySize=auto;html=1;entryX=0.5;entryY=0;entryDx=0;entryDy=0;endArrow=none;endFill=0;" parent="1" source="cR6-7HmDqcwB-q8sTzB7-142" target="eDnMlg8a8wfs5ZMG_Kfq-6" edge="1">
          <mxGeometry relative="1" as="geometry" />
        </mxCell>
        <mxCell id="eDnMlg8a8wfs5ZMG_Kfq-10" value="0..*" style="edgeLabel;html=1;align=center;verticalAlign=middle;resizable=0;points=[];" parent="eDnMlg8a8wfs5ZMG_Kfq-9" vertex="1" connectable="0">
          <mxGeometry x="0.5048" relative="1" as="geometry">
            <mxPoint x="11" as="offset" />
          </mxGeometry>
        </mxCell>
        <mxCell id="eDnMlg8a8wfs5ZMG_Kfq-11" value="1" style="edgeLabel;html=1;align=center;verticalAlign=middle;resizable=0;points=[];" parent="eDnMlg8a8wfs5ZMG_Kfq-9" vertex="1" connectable="0">
          <mxGeometry x="-0.6143" y="-1" relative="1" as="geometry">
            <mxPoint x="7" as="offset" />
          </mxGeometry>
        </mxCell>
        <mxCell id="cR6-7HmDqcwB-q8sTzB7-142" value="StoreDTO" style="swimlane;fontStyle=1;align=center;verticalAlign=top;childLayout=stackLayout;horizontal=1;startSize=26;horizontalStack=0;resizeParent=1;resizeParentMax=0;resizeLast=0;collapsible=1;marginBottom=0;whiteSpace=wrap;html=1;" parent="1" vertex="1">
          <mxGeometry x="330" y="23" width="160" height="60" as="geometry" />
        </mxCell>
        <mxCell id="cR6-7HmDqcwB-q8sTzB7-145" value="-" style="text;strokeColor=none;fillColor=none;align=left;verticalAlign=top;spacingLeft=4;spacingRight=4;overflow=hidden;rotatable=0;points=[[0,0.5],[1,0.5]];portConstraint=eastwest;whiteSpace=wrap;html=1;" parent="cR6-7HmDqcwB-q8sTzB7-142" vertex="1">
          <mxGeometry y="26" width="160" height="26" as="geometry" />
        </mxCell>
        <mxCell id="cR6-7HmDqcwB-q8sTzB7-143" value="" style="line;strokeWidth=1;fillColor=none;align=left;verticalAlign=middle;spacingTop=-1;spacingLeft=3;spacingRight=3;rotatable=0;labelPosition=right;points=[];portConstraint=eastwest;strokeColor=inherit;" parent="cR6-7HmDqcwB-q8sTzB7-142" vertex="1">
          <mxGeometry y="52" width="160" height="8" as="geometry" />
        </mxCell>
        <mxCell id="tXNTw_c_ti29l-Amt4pW-4" style="edgeStyle=orthogonalEdgeStyle;rounded=0;orthogonalLoop=1;jettySize=auto;html=1;entryX=0.5;entryY=1;entryDx=0;entryDy=0;endArrow=block;endFill=0;" parent="1" source="cR6-7HmDqcwB-q8sTzB7-146" target="tXNTw_c_ti29l-Amt4pW-1" edge="1">
          <mxGeometry relative="1" as="geometry" />
        </mxCell>
        <mxCell id="cR6-7HmDqcwB-q8sTzB7-146" value="StoreService" style="swimlane;fontStyle=1;align=center;verticalAlign=top;childLayout=stackLayout;horizontal=1;startSize=26;horizontalStack=0;resizeParent=1;resizeParentMax=0;resizeLast=0;collapsible=1;marginBottom=0;whiteSpace=wrap;html=1;" parent="1" vertex="1">
          <mxGeometry x="574" y="123" width="160" height="60" as="geometry" />
        </mxCell>
        <mxCell id="cR6-7HmDqcwB-q8sTzB7-147" value="-" style="text;strokeColor=none;fillColor=none;align=left;verticalAlign=top;spacingLeft=4;spacingRight=4;overflow=hidden;rotatable=0;points=[[0,0.5],[1,0.5]];portConstraint=eastwest;whiteSpace=wrap;html=1;" parent="cR6-7HmDqcwB-q8sTzB7-146" vertex="1">
          <mxGeometry y="26" width="160" height="26" as="geometry" />
        </mxCell>
        <mxCell id="cR6-7HmDqcwB-q8sTzB7-148" value="" style="line;strokeWidth=1;fillColor=none;align=left;verticalAlign=middle;spacingTop=-1;spacingLeft=3;spacingRight=3;rotatable=0;labelPosition=right;points=[];portConstraint=eastwest;strokeColor=inherit;" parent="cR6-7HmDqcwB-q8sTzB7-146" vertex="1">
          <mxGeometry y="52" width="160" height="8" as="geometry" />
        </mxCell>
        <mxCell id="cR6-7HmDqcwB-q8sTzB7-149" value="ServiceFactory" style="swimlane;fontStyle=1;align=center;verticalAlign=top;childLayout=stackLayout;horizontal=1;startSize=26;horizontalStack=0;resizeParent=1;resizeParentMax=0;resizeLast=0;collapsible=1;marginBottom=0;whiteSpace=wrap;html=1;" parent="1" vertex="1">
          <mxGeometry x="810" y="26" width="160" height="60" as="geometry" />
        </mxCell>
        <mxCell id="cR6-7HmDqcwB-q8sTzB7-150" value="-" style="text;strokeColor=none;fillColor=none;align=left;verticalAlign=top;spacingLeft=4;spacingRight=4;overflow=hidden;rotatable=0;points=[[0,0.5],[1,0.5]];portConstraint=eastwest;whiteSpace=wrap;html=1;" parent="cR6-7HmDqcwB-q8sTzB7-149" vertex="1">
          <mxGeometry y="26" width="160" height="26" as="geometry" />
        </mxCell>
        <mxCell id="cR6-7HmDqcwB-q8sTzB7-151" value="" style="line;strokeWidth=1;fillColor=none;align=left;verticalAlign=middle;spacingTop=-1;spacingLeft=3;spacingRight=3;rotatable=0;labelPosition=right;points=[];portConstraint=eastwest;strokeColor=inherit;" parent="cR6-7HmDqcwB-q8sTzB7-149" vertex="1">
          <mxGeometry y="52" width="160" height="8" as="geometry" />
        </mxCell>
        <mxCell id="cR6-7HmDqcwB-q8sTzB7-152" value="&lt;div&gt;&lt;span style=&quot;font-weight: normal;&quot;&gt;&amp;lt;&amp;lt;interface&amp;gt;&amp;gt;&lt;/span&gt;&lt;/div&gt;IUserService" style="swimlane;fontStyle=1;align=center;verticalAlign=top;childLayout=stackLayout;horizontal=1;startSize=37;horizontalStack=0;resizeParent=1;resizeParentMax=0;resizeLast=0;collapsible=1;marginBottom=0;whiteSpace=wrap;html=1;" parent="1" vertex="1">
          <mxGeometry x="1028" y="26" width="160" height="71" as="geometry" />
        </mxCell>
        <mxCell id="cR6-7HmDqcwB-q8sTzB7-153" value="-" style="text;strokeColor=none;fillColor=none;align=left;verticalAlign=top;spacingLeft=4;spacingRight=4;overflow=hidden;rotatable=0;points=[[0,0.5],[1,0.5]];portConstraint=eastwest;whiteSpace=wrap;html=1;" parent="cR6-7HmDqcwB-q8sTzB7-152" vertex="1">
          <mxGeometry y="37" width="160" height="26" as="geometry" />
        </mxCell>
        <mxCell id="cR6-7HmDqcwB-q8sTzB7-154" value="" style="line;strokeWidth=1;fillColor=none;align=left;verticalAlign=middle;spacingTop=-1;spacingLeft=3;spacingRight=3;rotatable=0;labelPosition=right;points=[];portConstraint=eastwest;strokeColor=inherit;" parent="cR6-7HmDqcwB-q8sTzB7-152" vertex="1">
          <mxGeometry y="63" width="160" height="8" as="geometry" />
        </mxCell>
        <mxCell id="cR6-7HmDqcwB-q8sTzB7-156" value="UserDTO" style="swimlane;fontStyle=1;align=center;verticalAlign=top;childLayout=stackLayout;horizontal=1;startSize=26;horizontalStack=0;resizeParent=1;resizeParentMax=0;resizeLast=0;collapsible=1;marginBottom=0;whiteSpace=wrap;html=1;" parent="1" vertex="1">
          <mxGeometry x="1250" y="26" width="130" height="60" as="geometry" />
        </mxCell>
        <mxCell id="cR6-7HmDqcwB-q8sTzB7-157" value="-" style="text;strokeColor=none;fillColor=none;align=left;verticalAlign=top;spacingLeft=4;spacingRight=4;overflow=hidden;rotatable=0;points=[[0,0.5],[1,0.5]];portConstraint=eastwest;whiteSpace=wrap;html=1;" parent="cR6-7HmDqcwB-q8sTzB7-156" vertex="1">
          <mxGeometry y="26" width="130" height="26" as="geometry" />
        </mxCell>
        <mxCell id="cR6-7HmDqcwB-q8sTzB7-158" value="" style="line;strokeWidth=1;fillColor=none;align=left;verticalAlign=middle;spacingTop=-1;spacingLeft=3;spacingRight=3;rotatable=0;labelPosition=right;points=[];portConstraint=eastwest;strokeColor=inherit;" parent="cR6-7HmDqcwB-q8sTzB7-156" vertex="1">
          <mxGeometry y="52" width="130" height="8" as="geometry" />
        </mxCell>
        <mxCell id="-gloQtON4wZspu8cm-jV-40" style="edgeStyle=orthogonalEdgeStyle;rounded=0;orthogonalLoop=1;jettySize=auto;html=1;entryX=0.5;entryY=1;entryDx=0;entryDy=0;endArrow=none;endFill=0;" parent="1" source="cR6-7HmDqcwB-q8sTzB7-159" target="cR6-7HmDqcwB-q8sTzB7-113" edge="1">
          <mxGeometry relative="1" as="geometry">
            <Array as="points">
              <mxPoint x="1190" y="940" />
              <mxPoint x="680" y="940" />
            </Array>
          </mxGeometry>
        </mxCell>
        <mxCell id="-gloQtON4wZspu8cm-jV-41" value="0..*" style="edgeLabel;html=1;align=center;verticalAlign=middle;resizable=0;points=[];" parent="-gloQtON4wZspu8cm-jV-40" vertex="1" connectable="0">
          <mxGeometry x="-0.9574" y="4" relative="1" as="geometry">
            <mxPoint x="8" y="-3" as="offset" />
          </mxGeometry>
        </mxCell>
        <mxCell id="-gloQtON4wZspu8cm-jV-42" value="0..*" style="edgeLabel;html=1;align=center;verticalAlign=middle;resizable=0;points=[];" parent="-gloQtON4wZspu8cm-jV-40" vertex="1" connectable="0">
          <mxGeometry x="0.9524" y="2" relative="1" as="geometry">
            <mxPoint x="14" y="-8" as="offset" />
          </mxGeometry>
        </mxCell>
        <mxCell id="cR6-7HmDqcwB-q8sTzB7-159" value="ShoopingBasket" style="swimlane;fontStyle=1;align=center;verticalAlign=top;childLayout=stackLayout;horizontal=1;startSize=26;horizontalStack=0;resizeParent=1;resizeParentMax=0;resizeLast=0;collapsible=1;marginBottom=0;whiteSpace=wrap;html=1;" parent="1" vertex="1">
          <mxGeometry x="1110" y="743" width="160" height="60" as="geometry" />
        </mxCell>
        <mxCell id="-gloQtON4wZspu8cm-jV-29" value="- storeID" style="text;strokeColor=none;fillColor=none;align=left;verticalAlign=top;spacingLeft=4;spacingRight=4;overflow=hidden;rotatable=0;points=[[0,0.5],[1,0.5]];portConstraint=eastwest;whiteSpace=wrap;html=1;" parent="cR6-7HmDqcwB-q8sTzB7-159" vertex="1">
          <mxGeometry y="26" width="160" height="26" as="geometry" />
        </mxCell>
        <mxCell id="cR6-7HmDqcwB-q8sTzB7-160" value="" style="line;strokeWidth=1;fillColor=none;align=left;verticalAlign=middle;spacingTop=-1;spacingLeft=3;spacingRight=3;rotatable=0;labelPosition=right;points=[];portConstraint=eastwest;strokeColor=inherit;" parent="cR6-7HmDqcwB-q8sTzB7-159" vertex="1">
          <mxGeometry y="52" width="160" height="8" as="geometry" />
        </mxCell>
        <mxCell id="tXNTw_c_ti29l-Amt4pW-1" value="&lt;div&gt;&lt;span style=&quot;font-weight: normal;&quot;&gt;&amp;lt;&amp;lt;interface&amp;gt;&amp;gt;&lt;/span&gt;&lt;/div&gt;IStoreService" style="swimlane;fontStyle=1;align=center;verticalAlign=top;childLayout=stackLayout;horizontal=1;startSize=37;horizontalStack=0;resizeParent=1;resizeParentMax=0;resizeLast=0;collapsible=1;marginBottom=0;whiteSpace=wrap;html=1;" parent="1" vertex="1">
          <mxGeometry x="574" y="26.5" width="160" height="71" as="geometry" />
        </mxCell>
        <mxCell id="tXNTw_c_ti29l-Amt4pW-2" value="-" style="text;strokeColor=none;fillColor=none;align=left;verticalAlign=top;spacingLeft=4;spacingRight=4;overflow=hidden;rotatable=0;points=[[0,0.5],[1,0.5]];portConstraint=eastwest;whiteSpace=wrap;html=1;" parent="tXNTw_c_ti29l-Amt4pW-1" vertex="1">
          <mxGeometry y="37" width="160" height="26" as="geometry" />
        </mxCell>
        <mxCell id="tXNTw_c_ti29l-Amt4pW-3" value="" style="line;strokeWidth=1;fillColor=none;align=left;verticalAlign=middle;spacingTop=-1;spacingLeft=3;spacingRight=3;rotatable=0;labelPosition=right;points=[];portConstraint=eastwest;strokeColor=inherit;" parent="tXNTw_c_ti29l-Amt4pW-1" vertex="1">
          <mxGeometry y="63" width="160" height="8" as="geometry" />
        </mxCell>
        <mxCell id="tXNTw_c_ti29l-Amt4pW-5" value="returns" style="edgeStyle=orthogonalEdgeStyle;rounded=0;orthogonalLoop=1;jettySize=auto;html=1;entryX=0.997;entryY=0.265;entryDx=0;entryDy=0;entryPerimeter=0;exitX=-0.003;exitY=0.411;exitDx=0;exitDy=0;exitPerimeter=0;" parent="1" source="tXNTw_c_ti29l-Amt4pW-1" target="cR6-7HmDqcwB-q8sTzB7-145" edge="1">
          <mxGeometry relative="1" as="geometry">
            <mxPoint x="570" y="56" as="sourcePoint" />
          </mxGeometry>
        </mxCell>
        <mxCell id="tXNTw_c_ti29l-Amt4pW-10" style="edgeStyle=orthogonalEdgeStyle;rounded=0;orthogonalLoop=1;jettySize=auto;html=1;entryX=0.5;entryY=1;entryDx=0;entryDy=0;endArrow=block;endFill=0;" parent="1" source="tXNTw_c_ti29l-Amt4pW-6" target="cR6-7HmDqcwB-q8sTzB7-152" edge="1">
          <mxGeometry relative="1" as="geometry" />
        </mxCell>
        <mxCell id="tXNTw_c_ti29l-Amt4pW-6" value="IUserService" style="swimlane;fontStyle=1;align=center;verticalAlign=top;childLayout=stackLayout;horizontal=1;startSize=26;horizontalStack=0;resizeParent=1;resizeParentMax=0;resizeLast=0;collapsible=1;marginBottom=0;whiteSpace=wrap;html=1;" parent="1" vertex="1">
          <mxGeometry x="1028" y="123" width="160" height="60" as="geometry" />
        </mxCell>
        <mxCell id="tXNTw_c_ti29l-Amt4pW-7" value="-" style="text;strokeColor=none;fillColor=none;align=left;verticalAlign=top;spacingLeft=4;spacingRight=4;overflow=hidden;rotatable=0;points=[[0,0.5],[1,0.5]];portConstraint=eastwest;whiteSpace=wrap;html=1;" parent="tXNTw_c_ti29l-Amt4pW-6" vertex="1">
          <mxGeometry y="26" width="160" height="26" as="geometry" />
        </mxCell>
        <mxCell id="tXNTw_c_ti29l-Amt4pW-8" value="" style="line;strokeWidth=1;fillColor=none;align=left;verticalAlign=middle;spacingTop=-1;spacingLeft=3;spacingRight=3;rotatable=0;labelPosition=right;points=[];portConstraint=eastwest;strokeColor=inherit;" parent="tXNTw_c_ti29l-Amt4pW-6" vertex="1">
          <mxGeometry y="52" width="160" height="8" as="geometry" />
        </mxCell>
        <mxCell id="tXNTw_c_ti29l-Amt4pW-15" value="SupplierService" style="swimlane;fontStyle=1;align=center;verticalAlign=top;childLayout=stackLayout;horizontal=1;startSize=26;horizontalStack=0;resizeParent=1;resizeParentMax=0;resizeLast=0;collapsible=1;marginBottom=0;whiteSpace=wrap;html=1;" parent="1" vertex="1">
          <mxGeometry x="820" y="1108" width="160" height="34" as="geometry" />
        </mxCell>
        <mxCell id="tXNTw_c_ti29l-Amt4pW-17" value="" style="line;strokeWidth=1;fillColor=none;align=left;verticalAlign=middle;spacingTop=-1;spacingLeft=3;spacingRight=3;rotatable=0;labelPosition=right;points=[];portConstraint=eastwest;strokeColor=inherit;" parent="tXNTw_c_ti29l-Amt4pW-15" vertex="1">
          <mxGeometry y="26" width="160" height="8" as="geometry" />
        </mxCell>
        <mxCell id="tXNTw_c_ti29l-Amt4pW-18" value="PaymentService" style="swimlane;fontStyle=1;align=center;verticalAlign=top;childLayout=stackLayout;horizontal=1;startSize=26;horizontalStack=0;resizeParent=1;resizeParentMax=0;resizeLast=0;collapsible=1;marginBottom=0;whiteSpace=wrap;html=1;" parent="1" vertex="1">
          <mxGeometry x="1180" y="1108" width="160" height="34" as="geometry" />
        </mxCell>
        <mxCell id="tXNTw_c_ti29l-Amt4pW-20" value="" style="line;strokeWidth=1;fillColor=none;align=left;verticalAlign=middle;spacingTop=-1;spacingLeft=3;spacingRight=3;rotatable=0;labelPosition=right;points=[];portConstraint=eastwest;strokeColor=inherit;" parent="tXNTw_c_ti29l-Amt4pW-18" vertex="1">
          <mxGeometry y="26" width="160" height="8" as="geometry" />
        </mxCell>
        <mxCell id="yFXP_hes2DVPfd4-niOf-1" style="edgeStyle=orthogonalEdgeStyle;rounded=0;orthogonalLoop=1;jettySize=auto;html=1;dashed=1;exitX=-0.006;exitY=0.753;exitDx=0;exitDy=0;exitPerimeter=0;" edge="1" parent="1" source="-gloQtON4wZspu8cm-jV-2">
          <mxGeometry relative="1" as="geometry">
            <mxPoint x="1060" y="660" as="targetPoint" />
            <Array as="points">
              <mxPoint x="1428" y="660" />
            </Array>
          </mxGeometry>
        </mxCell>
        <mxCell id="-gloQtON4wZspu8cm-jV-2" value="Each Owner/Manager object represents an ownership/management of a single store by a single user, therefore a single user can be an owner in some stores and a manager in other stores with no problem" style="shape=note;size=20;whiteSpace=wrap;html=1;fontSize=13;" parent="1" vertex="1">
          <mxGeometry x="1430" y="515" width="140" height="193" as="geometry" />
        </mxCell>
        <mxCell id="-gloQtON4wZspu8cm-jV-11" value="NotificationSystem" style="swimlane;fontStyle=1;align=center;verticalAlign=top;childLayout=stackLayout;horizontal=1;startSize=26;horizontalStack=0;resizeParent=1;resizeParentMax=0;resizeLast=0;collapsible=1;marginBottom=0;whiteSpace=wrap;html=1;" parent="1" vertex="1">
          <mxGeometry x="880" y="413" width="160" height="34" as="geometry" />
        </mxCell>
        <mxCell id="-gloQtON4wZspu8cm-jV-12" value="" style="line;strokeWidth=1;fillColor=none;align=left;verticalAlign=middle;spacingTop=-1;spacingLeft=3;spacingRight=3;rotatable=0;labelPosition=right;points=[];portConstraint=eastwest;strokeColor=inherit;" parent="-gloQtON4wZspu8cm-jV-11" vertex="1">
          <mxGeometry y="26" width="160" height="8" as="geometry" />
        </mxCell>
        <mxCell id="-gloQtON4wZspu8cm-jV-20" style="edgeStyle=orthogonalEdgeStyle;rounded=0;orthogonalLoop=1;jettySize=auto;html=1;entryX=1;entryY=0.5;entryDx=0;entryDy=0;dashed=1;" parent="1" source="-gloQtON4wZspu8cm-jV-18" target="cR6-7HmDqcwB-q8sTzB7-159" edge="1">
          <mxGeometry relative="1" as="geometry">
            <Array as="points">
              <mxPoint x="1350" y="773" />
              <mxPoint x="1350" y="773" />
            </Array>
          </mxGeometry>
        </mxCell>
        <mxCell id="-gloQtON4wZspu8cm-jV-18" value="&lt;font style=&quot;font-size: 13px;&quot;&gt;Each shopping basket contains the requested products from a single store&lt;/font&gt;" style="shape=note;size=20;whiteSpace=wrap;html=1;fontSize=13;" parent="1" vertex="1">
          <mxGeometry x="1430" y="721" width="140" height="100" as="geometry" />
        </mxCell>
        <mxCell id="-gloQtON4wZspu8cm-jV-26" style="edgeStyle=orthogonalEdgeStyle;rounded=0;orthogonalLoop=1;jettySize=auto;html=1;entryX=0.5;entryY=0;entryDx=0;entryDy=0;endArrow=none;endFill=0;" parent="1" source="-gloQtON4wZspu8cm-jV-21" target="cR6-7HmDqcwB-q8sTzB7-113" edge="1">
          <mxGeometry relative="1" as="geometry" />
        </mxCell>
        <mxCell id="-gloQtON4wZspu8cm-jV-27" value="1" style="edgeLabel;html=1;align=center;verticalAlign=middle;resizable=0;points=[];" parent="-gloQtON4wZspu8cm-jV-26" vertex="1" connectable="0">
          <mxGeometry x="-0.7851" relative="1" as="geometry">
            <mxPoint x="6" y="2" as="offset" />
          </mxGeometry>
        </mxCell>
        <mxCell id="-gloQtON4wZspu8cm-jV-28" value="0..*" style="edgeLabel;html=1;align=center;verticalAlign=middle;resizable=0;points=[];" parent="-gloQtON4wZspu8cm-jV-26" vertex="1" connectable="0">
          <mxGeometry x="0.5403" relative="1" as="geometry">
            <mxPoint x="11" as="offset" />
          </mxGeometry>
        </mxCell>
        <mxCell id="-gloQtON4wZspu8cm-jV-21" value="Inventory" style="swimlane;fontStyle=1;align=center;verticalAlign=top;childLayout=stackLayout;horizontal=1;startSize=26;horizontalStack=0;resizeParent=1;resizeParentMax=0;resizeLast=0;collapsible=1;marginBottom=0;whiteSpace=wrap;html=1;" parent="1" vertex="1">
          <mxGeometry x="600" y="620" width="160" height="34" as="geometry" />
        </mxCell>
        <mxCell id="-gloQtON4wZspu8cm-jV-22" value="" style="line;strokeWidth=1;fillColor=none;align=left;verticalAlign=middle;spacingTop=-1;spacingLeft=3;spacingRight=3;rotatable=0;labelPosition=right;points=[];portConstraint=eastwest;strokeColor=inherit;" parent="-gloQtON4wZspu8cm-jV-21" vertex="1">
          <mxGeometry y="26" width="160" height="8" as="geometry" />
        </mxCell>
        <mxCell id="-gloQtON4wZspu8cm-jV-34" value="User" style="swimlane;fontStyle=1;align=center;verticalAlign=top;childLayout=stackLayout;horizontal=1;startSize=26;horizontalStack=0;resizeParent=1;resizeParentMax=0;resizeLast=0;collapsible=1;marginBottom=0;whiteSpace=wrap;html=1;" parent="1" vertex="1">
          <mxGeometry x="1100" y="413" width="160" height="34" as="geometry" />
        </mxCell>
        <mxCell id="-gloQtON4wZspu8cm-jV-35" value="" style="line;strokeWidth=1;fillColor=none;align=left;verticalAlign=middle;spacingTop=-1;spacingLeft=3;spacingRight=3;rotatable=0;labelPosition=right;points=[];portConstraint=eastwest;strokeColor=inherit;" parent="-gloQtON4wZspu8cm-jV-34" vertex="1">
          <mxGeometry y="26" width="160" height="8" as="geometry" />
        </mxCell>
        <mxCell id="-gloQtON4wZspu8cm-jV-39" style="edgeStyle=orthogonalEdgeStyle;rounded=0;orthogonalLoop=1;jettySize=auto;html=1;entryX=0.5;entryY=1;entryDx=0;entryDy=0;endArrow=block;endFill=0;" parent="1" source="-gloQtON4wZspu8cm-jV-37" target="-gloQtON4wZspu8cm-jV-34" edge="1">
          <mxGeometry relative="1" as="geometry">
            <Array as="points">
              <mxPoint x="1275" y="490" />
              <mxPoint x="1180" y="490" />
            </Array>
          </mxGeometry>
        </mxCell>
        <mxCell id="-gloQtON4wZspu8cm-jV-37" value="Guest" style="swimlane;fontStyle=1;align=center;verticalAlign=top;childLayout=stackLayout;horizontal=1;startSize=26;horizontalStack=0;resizeParent=1;resizeParentMax=0;resizeLast=0;collapsible=1;marginBottom=0;whiteSpace=wrap;html=1;" parent="1" vertex="1">
          <mxGeometry x="1230" y="503" width="90" height="34" as="geometry" />
        </mxCell>
        <mxCell id="-gloQtON4wZspu8cm-jV-38" value="" style="line;strokeWidth=1;fillColor=none;align=left;verticalAlign=middle;spacingTop=-1;spacingLeft=3;spacingRight=3;rotatable=0;labelPosition=right;points=[];portConstraint=eastwest;strokeColor=inherit;" parent="-gloQtON4wZspu8cm-jV-37" vertex="1">
          <mxGeometry y="26" width="90" height="8" as="geometry" />
        </mxCell>
        <mxCell id="-gloQtON4wZspu8cm-jV-45" value="uses" style="edgeStyle=orthogonalEdgeStyle;rounded=0;orthogonalLoop=1;jettySize=auto;html=1;entryX=0.563;entryY=-0.067;entryDx=0;entryDy=0;entryPerimeter=0;dashed=1;dashPattern=12 12;" parent="1" source="cR6-7HmDqcwB-q8sTzB7-31" target="tXNTw_c_ti29l-Amt4pW-18" edge="1">
          <mxGeometry x="0.3727" relative="1" as="geometry">
            <Array as="points">
              <mxPoint x="1270" y="1050" />
              <mxPoint x="1270" y="1050" />
            </Array>
            <mxPoint as="offset" />
          </mxGeometry>
        </mxCell>
        <mxCell id="eDnMlg8a8wfs5ZMG_Kfq-16" style="edgeStyle=orthogonalEdgeStyle;rounded=0;orthogonalLoop=1;jettySize=auto;html=1;entryX=0.5;entryY=1;entryDx=0;entryDy=0;endArrow=block;endFill=0;" parent="1" source="eDnMlg8a8wfs5ZMG_Kfq-3" target="cR6-7HmDqcwB-q8sTzB7-57" edge="1">
          <mxGeometry relative="1" as="geometry" />
        </mxCell>
        <mxCell id="eDnMlg8a8wfs5ZMG_Kfq-3" value="Admin" style="swimlane;fontStyle=1;align=center;verticalAlign=top;childLayout=stackLayout;horizontal=1;startSize=26;horizontalStack=0;resizeParent=1;resizeParentMax=0;resizeLast=0;collapsible=1;marginBottom=0;whiteSpace=wrap;html=1;" parent="1" vertex="1">
          <mxGeometry x="1095" y="591" width="110" height="34" as="geometry" />
        </mxCell>
        <mxCell id="eDnMlg8a8wfs5ZMG_Kfq-4" value="" style="line;strokeWidth=1;fillColor=none;align=left;verticalAlign=middle;spacingTop=-1;spacingLeft=3;spacingRight=3;rotatable=0;labelPosition=right;points=[];portConstraint=eastwest;strokeColor=inherit;" parent="eDnMlg8a8wfs5ZMG_Kfq-3" vertex="1">
          <mxGeometry y="26" width="110" height="8" as="geometry" />
        </mxCell>
        <mxCell id="eDnMlg8a8wfs5ZMG_Kfq-6" value="ProductDTO" style="swimlane;fontStyle=1;align=center;verticalAlign=top;childLayout=stackLayout;horizontal=1;startSize=26;horizontalStack=0;resizeParent=1;resizeParentMax=0;resizeLast=0;collapsible=1;marginBottom=0;whiteSpace=wrap;html=1;" parent="1" vertex="1">
          <mxGeometry x="330" y="123" width="160" height="60" as="geometry" />
        </mxCell>
        <mxCell id="eDnMlg8a8wfs5ZMG_Kfq-7" value="-" style="text;strokeColor=none;fillColor=none;align=left;verticalAlign=top;spacingLeft=4;spacingRight=4;overflow=hidden;rotatable=0;points=[[0,0.5],[1,0.5]];portConstraint=eastwest;whiteSpace=wrap;html=1;" parent="eDnMlg8a8wfs5ZMG_Kfq-6" vertex="1">
          <mxGeometry y="26" width="160" height="26" as="geometry" />
        </mxCell>
        <mxCell id="eDnMlg8a8wfs5ZMG_Kfq-8" value="" style="line;strokeWidth=1;fillColor=none;align=left;verticalAlign=middle;spacingTop=-1;spacingLeft=3;spacingRight=3;rotatable=0;labelPosition=right;points=[];portConstraint=eastwest;strokeColor=inherit;" parent="eDnMlg8a8wfs5ZMG_Kfq-6" vertex="1">
          <mxGeometry y="52" width="160" height="8" as="geometry" />
        </mxCell>
        <mxCell id="eDnMlg8a8wfs5ZMG_Kfq-15" style="edgeStyle=orthogonalEdgeStyle;rounded=0;orthogonalLoop=1;jettySize=auto;html=1;entryX=1.005;entryY=0.81;entryDx=0;entryDy=0;entryPerimeter=0;dashed=1;" parent="1" source="eDnMlg8a8wfs5ZMG_Kfq-14" target="eDnMlg8a8wfs5ZMG_Kfq-13" edge="1">
          <mxGeometry relative="1" as="geometry">
            <mxPoint x="1200" y="550" as="targetPoint" />
            <Array as="points">
              <mxPoint x="1410" y="314" />
              <mxPoint x="1410" y="550" />
            </Array>
          </mxGeometry>
        </mxCell>
        <mxCell id="eDnMlg8a8wfs5ZMG_Kfq-14" value="Each registered user (subscriber) has a unique username" style="shape=note;size=20;whiteSpace=wrap;html=1;fontSize=13;" parent="1" vertex="1">
          <mxGeometry x="1430" y="264" width="140" height="100" as="geometry" />
        </mxCell>
        <mxCell id="OiI4JRpYvR2Bn_D_iNX7-5" style="edgeStyle=orthogonalEdgeStyle;rounded=0;orthogonalLoop=1;jettySize=auto;html=1;entryX=1;entryY=0.25;entryDx=0;entryDy=0;dashed=1;" parent="1" source="OiI4JRpYvR2Bn_D_iNX7-4" target="cR6-7HmDqcwB-q8sTzB7-31" edge="1">
          <mxGeometry relative="1" as="geometry">
            <Array as="points">
              <mxPoint x="1410" y="855" />
              <mxPoint x="1410" y="855" />
            </Array>
          </mxGeometry>
        </mxCell>
        <mxCell id="OiI4JRpYvR2Bn_D_iNX7-4" value="&lt;font style=&quot;font-size: 13px;&quot;&gt;Represents the order history of the user, each order is created from the current shopping cart, copies all information from the baskets and checks the availability using the external services before being marked as complete.&lt;br&gt;If one of the external services failed the order is marked as failed but could still be saved in the order history&lt;/font&gt;" style="shape=note;size=20;whiteSpace=wrap;html=1;fontSize=13;" parent="1" vertex="1">
          <mxGeometry x="1430" y="830" width="140" height="290" as="geometry" />
        </mxCell>
        <mxCell id="OiI4JRpYvR2Bn_D_iNX7-7" style="edgeStyle=orthogonalEdgeStyle;rounded=0;orthogonalLoop=1;jettySize=auto;html=1;entryX=1;entryY=0.25;entryDx=0;entryDy=0;dashed=1;" parent="1" source="OiI4JRpYvR2Bn_D_iNX7-6" target="eDnMlg8a8wfs5ZMG_Kfq-3" edge="1">
          <mxGeometry relative="1" as="geometry">
            <Array as="points">
              <mxPoint x="1420" y="500" />
              <mxPoint x="1420" y="600" />
              <mxPoint x="1205" y="600" />
            </Array>
          </mxGeometry>
        </mxCell>
        <mxCell id="OiI4JRpYvR2Bn_D_iNX7-6" value="System Administrator (admin) is a kind of subscriber with managing permissions, there has to be at least 1 at all times" style="shape=note;size=20;whiteSpace=wrap;html=1;fontSize=13;" parent="1" vertex="1">
          <mxGeometry x="1430" y="370" width="140" height="136" as="geometry" />
        </mxCell>
        <mxCell id="OiI4JRpYvR2Bn_D_iNX7-14" value="notifies" style="edgeStyle=orthogonalEdgeStyle;rounded=0;orthogonalLoop=1;jettySize=auto;html=1;entryX=-0.001;entryY=0.11;entryDx=0;entryDy=0;entryPerimeter=0;endArrow=none;endFill=0;" parent="1" source="-gloQtON4wZspu8cm-jV-11" target="cR6-7HmDqcwB-q8sTzB7-57" edge="1">
          <mxGeometry relative="1" as="geometry" />
        </mxCell>
        <mxCell id="OiI4JRpYvR2Bn_D_iNX7-15" value="0..*" style="edgeLabel;html=1;align=center;verticalAlign=middle;resizable=0;points=[];" parent="OiI4JRpYvR2Bn_D_iNX7-14" vertex="1" connectable="0">
          <mxGeometry x="0.74" y="-2" relative="1" as="geometry">
            <mxPoint y="-10" as="offset" />
          </mxGeometry>
        </mxCell>
        <mxCell id="OiI4JRpYvR2Bn_D_iNX7-16" value="1" style="edgeLabel;html=1;align=center;verticalAlign=middle;resizable=0;points=[];" parent="OiI4JRpYvR2Bn_D_iNX7-14" vertex="1" connectable="0">
          <mxGeometry x="-0.8928" y="2" relative="1" as="geometry">
            <mxPoint y="-6" as="offset" />
          </mxGeometry>
        </mxCell>
        <mxCell id="yFXP_hes2DVPfd4-niOf-2" style="edgeStyle=orthogonalEdgeStyle;rounded=0;orthogonalLoop=1;jettySize=auto;html=1;entryX=1.001;entryY=0.605;entryDx=0;entryDy=0;entryPerimeter=0;dashed=1;" edge="1" parent="1" source="-gloQtON4wZspu8cm-jV-2" target="cR6-7HmDqcwB-q8sTzB7-9">
          <mxGeometry relative="1" as="geometry">
            <Array as="points">
              <mxPoint x="1090" y="660" />
              <mxPoint x="1090" y="541" />
            </Array>
          </mxGeometry>
        </mxCell>
      </root>
    </mxGraphModel>
  </diagram>
  <diagram id="SPwJyqS6givz5WmrVPjg" name="System Architecture Diagram">
    <mxGraphModel dx="1195" dy="703" grid="1" gridSize="10" guides="1" tooltips="1" connect="1" arrows="1" fold="1" page="1" pageScale="1" pageWidth="1654" pageHeight="2336" math="0" shadow="0">
      <root>
        <mxCell id="0" />
        <mxCell id="1" parent="0" />
        <mxCell id="HbJYz0B3DC1FOwBuS_XT-1" value="Service Layer" style="shape=folder;xSize=90;align=left;spacingLeft=10;align=left;verticalAlign=top;spacingLeft=5;spacingTop=-4;tabWidth=90;tabHeight=20;tabPosition=left;html=1;recursiveResize=0;" vertex="1" parent="1">
          <mxGeometry x="330" y="10" width="560" height="120" as="geometry" />
        </mxCell>
        <mxCell id="LWHsM9xuVvXwRMrfO_rw-1" value="Domain Layer" style="shape=folder;xSize=90;align=left;spacingLeft=10;align=left;verticalAlign=top;spacingLeft=5;spacingTop=-4;tabWidth=90;tabHeight=20;tabPosition=left;html=1;recursiveResize=0;" vertex="1" parent="1">
          <mxGeometry x="330" y="150" width="560" height="190" as="geometry" />
        </mxCell>
        <mxCell id="RCUn9st9J7g3lZZCmeA6-1" value="Market Package" style="shape=folder;xSize=90;align=left;spacingLeft=10;align=left;verticalAlign=top;spacingLeft=5;spacingTop=-4;tabWidth=100;tabHeight=20;tabPosition=left;html=1;recursiveResize=0;fontStyle=0;fillColor=#dae8fc;strokeColor=#6c8ebf;" vertex="1" parent="1">
          <mxGeometry x="340" y="190" width="540" height="130" as="geometry" />
        </mxCell>
        <mxCell id="93z9SeJD9j_sedG8BiTX-1" value="External Services" style="shape=folder;xSize=90;align=left;spacingLeft=10;align=left;verticalAlign=top;spacingLeft=5;spacingTop=-4;tabWidth=110;tabHeight=20;tabPosition=left;html=1;recursiveResize=0;fillColor=#F8E4E4;" vertex="1" parent="1">
          <mxGeometry x="330" y="360" width="560" height="100" as="geometry" />
        </mxCell>
        <mxCell id="TTh44TfM7aYON5m1WN-s-1" value="SupplierService" style="swimlane;fontStyle=1;align=center;verticalAlign=top;childLayout=stackLayout;horizontal=1;startSize=26;horizontalStack=0;resizeParent=1;resizeParentMax=0;resizeLast=0;collapsible=1;marginBottom=0;whiteSpace=wrap;html=1;" vertex="1" parent="1">
          <mxGeometry x="410" y="400" width="160" height="34" as="geometry" />
        </mxCell>
        <mxCell id="TTh44TfM7aYON5m1WN-s-3" value="" style="line;strokeWidth=1;fillColor=none;align=left;verticalAlign=middle;spacingTop=-1;spacingLeft=3;spacingRight=3;rotatable=0;labelPosition=right;points=[];portConstraint=eastwest;strokeColor=inherit;" vertex="1" parent="TTh44TfM7aYON5m1WN-s-1">
          <mxGeometry y="26" width="160" height="8" as="geometry" />
        </mxCell>
        <mxCell id="TTh44TfM7aYON5m1WN-s-4" value="PaymentService" style="swimlane;fontStyle=1;align=center;verticalAlign=top;childLayout=stackLayout;horizontal=1;startSize=26;horizontalStack=0;resizeParent=1;resizeParentMax=0;resizeLast=0;collapsible=1;marginBottom=0;whiteSpace=wrap;html=1;" vertex="1" parent="1">
          <mxGeometry x="640" y="400" width="160" height="34" as="geometry" />
        </mxCell>
        <mxCell id="TTh44TfM7aYON5m1WN-s-6" value="" style="line;strokeWidth=1;fillColor=none;align=left;verticalAlign=middle;spacingTop=-1;spacingLeft=3;spacingRight=3;rotatable=0;labelPosition=right;points=[];portConstraint=eastwest;strokeColor=inherit;" vertex="1" parent="TTh44TfM7aYON5m1WN-s-4">
          <mxGeometry y="26" width="160" height="8" as="geometry" />
        </mxCell>
        <mxCell id="VAn1lpZOmnzeDsC01wQL-1" value="Store Package" style="shape=folder;xSize=90;align=left;spacingLeft=10;align=left;verticalAlign=top;spacingLeft=5;spacingTop=-4;tabWidth=90;tabHeight=20;tabPosition=left;html=1;recursiveResize=0;" vertex="1" parent="1">
          <mxGeometry x="360" y="230" width="170" height="60" as="geometry" />
        </mxCell>
        <mxCell id="YJcWEPSFLIKXq3mdiytT-1" style="edgeStyle=orthogonalEdgeStyle;rounded=0;orthogonalLoop=1;jettySize=auto;html=1;entryX=0.5;entryY=0;entryDx=0;entryDy=0;" edge="1" parent="1" source="VAn1lpZOmnzeDsC01wQL-2" target="TTh44TfM7aYON5m1WN-s-4">
          <mxGeometry relative="1" as="geometry" />
        </mxCell>
        <mxCell id="YJcWEPSFLIKXq3mdiytT-2" style="edgeStyle=orthogonalEdgeStyle;rounded=0;orthogonalLoop=1;jettySize=auto;html=1;entryX=0.5;entryY=0;entryDx=0;entryDy=0;" edge="1" parent="1" source="VAn1lpZOmnzeDsC01wQL-2" target="TTh44TfM7aYON5m1WN-s-1">
          <mxGeometry relative="1" as="geometry">
            <Array as="points">
              <mxPoint x="720" y="360" />
              <mxPoint x="490" y="360" />
            </Array>
          </mxGeometry>
        </mxCell>
        <mxCell id="VAn1lpZOmnzeDsC01wQL-2" value="User Package" style="shape=folder;xSize=90;align=left;spacingLeft=10;align=left;verticalAlign=top;spacingLeft=5;spacingTop=-4;tabWidth=90;tabHeight=20;tabPosition=left;html=1;recursiveResize=0;" vertex="1" parent="1">
          <mxGeometry x="635" y="235" width="170" height="60" as="geometry" />
        </mxCell>
        <mxCell id="VAn1lpZOmnzeDsC01wQL-3" value="Services" style="shape=folder;xSize=90;align=left;spacingLeft=10;align=left;verticalAlign=top;spacingLeft=5;spacingTop=-4;tabWidth=90;tabHeight=20;tabPosition=left;html=1;recursiveResize=0;" vertex="1" parent="1">
          <mxGeometry x="500" y="50" width="170" height="60" as="geometry" />
        </mxCell>
        <mxCell id="O_h7xCgZFcCS2zt-6pwb-1" style="edgeStyle=orthogonalEdgeStyle;rounded=0;orthogonalLoop=1;jettySize=auto;html=1;entryX=0.729;entryY=0.35;entryDx=0;entryDy=0;entryPerimeter=0;" edge="1" parent="1" source="VAn1lpZOmnzeDsC01wQL-3" target="VAn1lpZOmnzeDsC01wQL-1">
          <mxGeometry relative="1" as="geometry">
            <Array as="points">
              <mxPoint x="585" y="190" />
              <mxPoint x="484" y="190" />
            </Array>
          </mxGeometry>
        </mxCell>
        <mxCell id="O_h7xCgZFcCS2zt-6pwb-3" style="edgeStyle=orthogonalEdgeStyle;rounded=0;orthogonalLoop=1;jettySize=auto;html=1;entryX=0.724;entryY=0.333;entryDx=0;entryDy=0;entryPerimeter=0;" edge="1" parent="1" source="VAn1lpZOmnzeDsC01wQL-3" target="VAn1lpZOmnzeDsC01wQL-2">
          <mxGeometry relative="1" as="geometry">
            <Array as="points">
              <mxPoint x="585" y="190" />
              <mxPoint x="758" y="190" />
            </Array>
          </mxGeometry>
        </mxCell>
      </root>
    </mxGraphModel>
  </diagram>
  <diagram name="Detailed Class Diagram" id="qiC4fHZfHfrunpltt-Eb">
    <mxGraphModel dx="33" dy="3329" grid="1" gridSize="10" guides="1" tooltips="1" connect="1" arrows="1" fold="1" page="1" pageScale="1" pageWidth="1654" pageHeight="2336" math="0" shadow="0">
      <root>
        <mxCell id="0" />
        <mxCell id="1" parent="0" />
        <mxCell id="3eHf1jaRX6m5ibN5TcEB-1" value="External Services" style="shape=folder;xSize=90;align=left;spacingLeft=10;align=left;verticalAlign=top;spacingLeft=5;spacingTop=-4;tabWidth=120;tabHeight=20;tabPosition=left;html=1;recursiveResize=0;fillColor=#F8E4E4;strokeColor=#b85450;fontStyle=1" vertex="1" parent="1">
          <mxGeometry x="1844" y="988" width="1080" height="180" as="geometry" />
        </mxCell>
        <mxCell id="3eHf1jaRX6m5ibN5TcEB-2" value="Domain Layer" style="shape=folder;xSize=90;align=left;spacingLeft=10;align=left;verticalAlign=top;spacingLeft=5;spacingTop=-4;tabWidth=100;tabHeight=20;tabPosition=left;html=1;recursiveResize=0;fontStyle=1" vertex="1" parent="1">
          <mxGeometry x="1844" y="178" width="1080" height="790" as="geometry" />
        </mxCell>
        <mxCell id="3eHf1jaRX6m5ibN5TcEB-3" value="Market Package" style="shape=folder;xSize=90;align=left;spacingLeft=10;align=left;verticalAlign=top;spacingLeft=5;spacingTop=-4;tabWidth=100;tabHeight=20;tabPosition=left;html=1;recursiveResize=0;fontStyle=0;fillColor=#dae8fc;strokeColor=#6c8ebf;" vertex="1" parent="1">
          <mxGeometry x="1850" y="207" width="1064" height="751" as="geometry" />
        </mxCell>
        <mxCell id="3eHf1jaRX6m5ibN5TcEB-4" value="Store Package" style="shape=folder;xSize=90;align=left;spacingLeft=10;align=left;verticalAlign=top;spacingLeft=5;spacingTop=-4;tabWidth=90;tabHeight=20;tabPosition=left;html=1;recursiveResize=0;" vertex="1" parent="1">
          <mxGeometry x="1854" y="238" width="450" height="710" as="geometry" />
        </mxCell>
        <mxCell id="3eHf1jaRX6m5ibN5TcEB-5" value="User Package" style="shape=folder;xSize=90;align=left;spacingLeft=10;align=left;verticalAlign=top;spacingLeft=5;spacingTop=-4;tabWidth=90;tabHeight=20;tabPosition=left;html=1;recursiveResize=0;" vertex="1" parent="1">
          <mxGeometry x="2314" y="239" width="590" height="709" as="geometry" />
        </mxCell>
        <mxCell id="3eHf1jaRX6m5ibN5TcEB-6" value="has a" style="edgeStyle=orthogonalEdgeStyle;rounded=0;orthogonalLoop=1;jettySize=auto;html=1;exitX=0;exitY=0.25;exitDx=0;exitDy=0;entryX=1;entryY=0.5;entryDx=0;entryDy=0;" edge="1" parent="1" source="3eHf1jaRX6m5ibN5TcEB-10" target="3eHf1jaRX6m5ibN5TcEB-43">
          <mxGeometry relative="1" as="geometry">
            <mxPoint x="2054.48" y="426.5640000000003" as="targetPoint" />
            <Array as="points">
              <mxPoint x="2111" y="448" />
              <mxPoint x="2084" y="448" />
              <mxPoint x="2084" y="412" />
            </Array>
            <mxPoint x="2108.74" y="394.91600000000017" as="sourcePoint" />
          </mxGeometry>
        </mxCell>
        <mxCell id="3eHf1jaRX6m5ibN5TcEB-7" style="edgeStyle=orthogonalEdgeStyle;rounded=0;orthogonalLoop=1;jettySize=auto;html=1;entryX=0.5;entryY=0;entryDx=0;entryDy=0;" edge="1" parent="1" source="3eHf1jaRX6m5ibN5TcEB-10" target="3eHf1jaRX6m5ibN5TcEB-160">
          <mxGeometry relative="1" as="geometry">
            <Array as="points">
              <mxPoint x="2204" y="508" />
              <mxPoint x="2204" y="508" />
            </Array>
          </mxGeometry>
        </mxCell>
        <mxCell id="3eHf1jaRX6m5ibN5TcEB-8" value="1" style="edgeLabel;html=1;align=center;verticalAlign=middle;resizable=0;points=[];" vertex="1" connectable="0" parent="3eHf1jaRX6m5ibN5TcEB-7">
          <mxGeometry x="-0.704" y="-2" relative="1" as="geometry">
            <mxPoint x="7" as="offset" />
          </mxGeometry>
        </mxCell>
        <mxCell id="3eHf1jaRX6m5ibN5TcEB-9" value="1" style="edgeLabel;html=1;align=center;verticalAlign=middle;resizable=0;points=[];" vertex="1" connectable="0" parent="3eHf1jaRX6m5ibN5TcEB-7">
          <mxGeometry x="0.6329" relative="1" as="geometry">
            <mxPoint x="6" as="offset" />
          </mxGeometry>
        </mxCell>
        <mxCell id="3eHf1jaRX6m5ibN5TcEB-10" value="Store" style="swimlane;fontStyle=1;align=center;verticalAlign=top;childLayout=stackLayout;horizontal=1;startSize=26;horizontalStack=0;resizeParent=1;resizeParentMax=0;resizeLast=0;collapsible=1;marginBottom=0;whiteSpace=wrap;html=1;" vertex="1" parent="1">
          <mxGeometry x="2110.5" y="445" width="160" height="100" as="geometry" />
        </mxCell>
        <mxCell id="3eHf1jaRX6m5ibN5TcEB-11" value="- storeID" style="text;strokeColor=none;fillColor=none;align=left;verticalAlign=top;spacingLeft=4;spacingRight=4;overflow=hidden;rotatable=0;points=[[0,0.5],[1,0.5]];portConstraint=eastwest;whiteSpace=wrap;html=1;" vertex="1" parent="3eHf1jaRX6m5ibN5TcEB-10">
          <mxGeometry y="26" width="160" height="26" as="geometry" />
        </mxCell>
        <mxCell id="3eHf1jaRX6m5ibN5TcEB-12" value="- isOpen" style="text;strokeColor=none;fillColor=none;align=left;verticalAlign=top;spacingLeft=4;spacingRight=4;overflow=hidden;rotatable=0;points=[[0,0.5],[1,0.5]];portConstraint=eastwest;whiteSpace=wrap;html=1;" vertex="1" parent="3eHf1jaRX6m5ibN5TcEB-10">
          <mxGeometry y="52" width="160" height="26" as="geometry" />
        </mxCell>
        <mxCell id="3eHf1jaRX6m5ibN5TcEB-13" value="" style="line;strokeWidth=1;fillColor=none;align=left;verticalAlign=middle;spacingTop=-1;spacingLeft=3;spacingRight=3;rotatable=0;labelPosition=right;points=[];portConstraint=eastwest;strokeColor=inherit;" vertex="1" parent="3eHf1jaRX6m5ibN5TcEB-10">
          <mxGeometry y="78" width="160" height="8" as="geometry" />
        </mxCell>
        <mxCell id="3eHf1jaRX6m5ibN5TcEB-197" value="+ close()" style="text;strokeColor=none;fillColor=none;align=left;verticalAlign=top;spacingLeft=4;spacingRight=4;overflow=hidden;rotatable=0;points=[[0,0.5],[1,0.5]];portConstraint=eastwest;whiteSpace=wrap;html=1;fontSize=7;spacing=0;" vertex="1" parent="3eHf1jaRX6m5ibN5TcEB-10">
          <mxGeometry y="86" width="160" height="14" as="geometry" />
        </mxCell>
        <mxCell id="3eHf1jaRX6m5ibN5TcEB-14" value="notifies" style="edgeStyle=orthogonalEdgeStyle;rounded=0;orthogonalLoop=1;jettySize=auto;html=1;entryX=0.25;entryY=1;entryDx=0;entryDy=0;endArrow=none;endFill=0;" edge="1" parent="1">
          <mxGeometry x="0.0959" relative="1" as="geometry">
            <mxPoint x="2438" y="468" as="sourcePoint" />
            <mxPoint x="2438" y="395" as="targetPoint" />
            <Array as="points">
              <mxPoint x="2438" y="395" />
            </Array>
            <mxPoint as="offset" />
          </mxGeometry>
        </mxCell>
        <mxCell id="3eHf1jaRX6m5ibN5TcEB-15" value="1" style="edgeLabel;html=1;align=center;verticalAlign=middle;resizable=0;points=[];" vertex="1" connectable="0" parent="3eHf1jaRX6m5ibN5TcEB-14">
          <mxGeometry x="0.7808" y="1" relative="1" as="geometry">
            <mxPoint x="6" y="1" as="offset" />
          </mxGeometry>
        </mxCell>
        <mxCell id="3eHf1jaRX6m5ibN5TcEB-16" value="0..*" style="edgeLabel;html=1;align=center;verticalAlign=middle;resizable=0;points=[];" vertex="1" connectable="0" parent="3eHf1jaRX6m5ibN5TcEB-14">
          <mxGeometry x="-0.726" y="1" relative="1" as="geometry">
            <mxPoint x="10" y="1" as="offset" />
          </mxGeometry>
        </mxCell>
        <mxCell id="3eHf1jaRX6m5ibN5TcEB-17" value="Owner" style="swimlane;fontStyle=1;align=center;verticalAlign=top;childLayout=stackLayout;horizontal=1;startSize=26;horizontalStack=0;resizeParent=1;resizeParentMax=0;resizeLast=0;collapsible=1;marginBottom=0;whiteSpace=wrap;html=1;" vertex="1" parent="1">
          <mxGeometry x="2374" y="468" width="190" height="50" as="geometry" />
        </mxCell>
        <mxCell id="3eHf1jaRX6m5ibN5TcEB-18" value="" style="line;strokeWidth=1;fillColor=none;align=left;verticalAlign=middle;spacingTop=-1;spacingLeft=3;spacingRight=3;rotatable=0;labelPosition=right;points=[];portConstraint=eastwest;strokeColor=inherit;" vertex="1" parent="3eHf1jaRX6m5ibN5TcEB-17">
          <mxGeometry y="26" width="190" height="8" as="geometry" />
        </mxCell>
        <mxCell id="3eHf1jaRX6m5ibN5TcEB-196" value="+ appointManager(username)" style="text;strokeColor=none;fillColor=none;align=left;verticalAlign=top;spacingLeft=4;spacingRight=4;overflow=hidden;rotatable=0;points=[[0,0.5],[1,0.5]];portConstraint=eastwest;whiteSpace=wrap;html=1;fontSize=7;" vertex="1" parent="3eHf1jaRX6m5ibN5TcEB-17">
          <mxGeometry y="34" width="190" height="16" as="geometry" />
        </mxCell>
        <mxCell id="3eHf1jaRX6m5ibN5TcEB-19" value="owned by" style="edgeStyle=orthogonalEdgeStyle;rounded=0;orthogonalLoop=1;jettySize=auto;html=1;endArrow=none;endFill=0;entryX=0;entryY=0.5;entryDx=0;entryDy=0;exitX=1;exitY=0.233;exitDx=0;exitDy=0;exitPerimeter=0;" edge="1" parent="1" source="3eHf1jaRX6m5ibN5TcEB-10" target="3eHf1jaRX6m5ibN5TcEB-17">
          <mxGeometry x="0.4235" relative="1" as="geometry">
            <mxPoint x="2254" y="478" as="sourcePoint" />
            <mxPoint x="2374" y="508" as="targetPoint" />
            <Array as="points">
              <mxPoint x="2294" y="465" />
              <mxPoint x="2294" y="485" />
            </Array>
            <mxPoint as="offset" />
          </mxGeometry>
        </mxCell>
        <mxCell id="3eHf1jaRX6m5ibN5TcEB-20" value="1..*" style="edgeLabel;html=1;align=center;verticalAlign=middle;resizable=0;points=[];" vertex="1" connectable="0" parent="3eHf1jaRX6m5ibN5TcEB-19">
          <mxGeometry x="0.7917" relative="1" as="geometry">
            <mxPoint x="-1" y="-9" as="offset" />
          </mxGeometry>
        </mxCell>
        <mxCell id="3eHf1jaRX6m5ibN5TcEB-21" value="1..*" style="edgeLabel;html=1;align=center;verticalAlign=middle;resizable=0;points=[];" vertex="1" connectable="0" parent="3eHf1jaRX6m5ibN5TcEB-19">
          <mxGeometry x="-0.6847" y="-1" relative="1" as="geometry">
            <mxPoint x="-8" y="8" as="offset" />
          </mxGeometry>
        </mxCell>
        <mxCell id="3eHf1jaRX6m5ibN5TcEB-22" value="Manager" style="swimlane;fontStyle=1;align=center;verticalAlign=top;childLayout=stackLayout;horizontal=1;startSize=26;horizontalStack=0;resizeParent=1;resizeParentMax=0;resizeLast=0;collapsible=1;marginBottom=0;whiteSpace=wrap;html=1;" vertex="1" parent="1">
          <mxGeometry x="2374" y="578" width="210" height="80" as="geometry" />
        </mxCell>
        <mxCell id="3eHf1jaRX6m5ibN5TcEB-23" value="" style="line;strokeWidth=1;fillColor=none;align=left;verticalAlign=middle;spacingTop=-1;spacingLeft=3;spacingRight=3;rotatable=0;labelPosition=right;points=[];portConstraint=eastwest;strokeColor=inherit;" vertex="1" parent="3eHf1jaRX6m5ibN5TcEB-22">
          <mxGeometry y="26" width="210" height="8" as="geometry" />
        </mxCell>
        <mxCell id="b72GLKazw59tTWACjWjh-1" value="+ getManagerAuthorizations(storeID)" style="text;strokeColor=none;fillColor=none;align=left;verticalAlign=top;spacingLeft=4;spacingRight=4;overflow=hidden;rotatable=0;points=[[0,0.5],[1,0.5]];portConstraint=eastwest;whiteSpace=wrap;html=1;fontSize=7;" vertex="1" parent="3eHf1jaRX6m5ibN5TcEB-22">
          <mxGeometry y="34" width="210" height="16" as="geometry" />
        </mxCell>
        <mxCell id="b72GLKazw59tTWACjWjh-2" value="+ updatePurchasePolicy(storeID)" style="text;strokeColor=none;fillColor=none;align=left;verticalAlign=top;spacingLeft=4;spacingRight=4;overflow=hidden;rotatable=0;points=[[0,0.5],[1,0.5]];portConstraint=eastwest;whiteSpace=wrap;html=1;fontSize=7;" vertex="1" parent="3eHf1jaRX6m5ibN5TcEB-22">
          <mxGeometry y="50" width="210" height="10" as="geometry" />
        </mxCell>
        <mxCell id="b72GLKazw59tTWACjWjh-3" value="..." style="text;strokeColor=none;fillColor=none;align=left;verticalAlign=top;spacingLeft=4;spacingRight=4;overflow=hidden;rotatable=0;points=[[0,0.5],[1,0.5]];portConstraint=eastwest;whiteSpace=wrap;html=1;fontSize=6;" vertex="1" parent="3eHf1jaRX6m5ibN5TcEB-22">
          <mxGeometry y="60" width="210" height="20" as="geometry" />
        </mxCell>
        <mxCell id="3eHf1jaRX6m5ibN5TcEB-24" value="managed by" style="edgeStyle=orthogonalEdgeStyle;rounded=0;orthogonalLoop=1;jettySize=auto;html=1;endArrow=none;endFill=0;entryX=0;entryY=0.5;entryDx=0;entryDy=0;" edge="1" parent="1" source="3eHf1jaRX6m5ibN5TcEB-10" target="3eHf1jaRX6m5ibN5TcEB-22">
          <mxGeometry x="0.3317" y="10" relative="1" as="geometry">
            <mxPoint x="2374" y="598" as="targetPoint" />
            <Array as="points">
              <mxPoint x="2354" y="498" />
              <mxPoint x="2354" y="595" />
            </Array>
            <mxPoint as="offset" />
          </mxGeometry>
        </mxCell>
        <mxCell id="3eHf1jaRX6m5ibN5TcEB-25" value="0..*" style="edgeLabel;html=1;align=center;verticalAlign=middle;resizable=0;points=[];" vertex="1" connectable="0" parent="3eHf1jaRX6m5ibN5TcEB-24">
          <mxGeometry x="0.8337" y="1" relative="1" as="geometry">
            <mxPoint x="6" y="-8" as="offset" />
          </mxGeometry>
        </mxCell>
        <mxCell id="3eHf1jaRX6m5ibN5TcEB-26" value="1..*" style="edgeLabel;html=1;align=center;verticalAlign=middle;resizable=0;points=[];" vertex="1" connectable="0" parent="3eHf1jaRX6m5ibN5TcEB-24">
          <mxGeometry x="-0.9315" relative="1" as="geometry">
            <mxPoint x="7" y="10" as="offset" />
          </mxGeometry>
        </mxCell>
        <mxCell id="3eHf1jaRX6m5ibN5TcEB-27" value="Service Layer" style="shape=folder;xSize=90;align=left;spacingLeft=10;align=left;verticalAlign=top;spacingLeft=5;spacingTop=-4;tabWidth=100;tabHeight=20;tabPosition=left;html=1;recursiveResize=0;fontStyle=1" vertex="1" parent="1">
          <mxGeometry x="1844" y="-72" width="1080" height="230" as="geometry" />
        </mxCell>
        <mxCell id="3eHf1jaRX6m5ibN5TcEB-28" value="has a" style="edgeStyle=orthogonalEdgeStyle;rounded=0;orthogonalLoop=1;jettySize=auto;html=1;endArrow=none;endFill=0;startArrow=classic;startFill=1;entryX=0.333;entryY=-0.006;entryDx=0;entryDy=0;entryPerimeter=0;" edge="1" parent="1" source="3eHf1jaRX6m5ibN5TcEB-29" target="3eHf1jaRX6m5ibN5TcEB-10">
          <mxGeometry relative="1" as="geometry">
            <mxPoint x="2174" y="478" as="targetPoint" />
            <Array as="points">
              <mxPoint x="1980" y="380" />
              <mxPoint x="2164" y="380" />
            </Array>
          </mxGeometry>
        </mxCell>
        <mxCell id="3eHf1jaRX6m5ibN5TcEB-29" value="PurchasePolicy" style="swimlane;fontStyle=1;align=center;verticalAlign=top;childLayout=stackLayout;horizontal=1;startSize=26;horizontalStack=0;resizeParent=1;resizeParentMax=0;resizeLast=0;collapsible=1;marginBottom=0;whiteSpace=wrap;html=1;" vertex="1" parent="1">
          <mxGeometry x="1900" y="318" width="160" height="34" as="geometry" />
        </mxCell>
        <mxCell id="3eHf1jaRX6m5ibN5TcEB-30" value="" style="line;strokeWidth=1;fillColor=none;align=left;verticalAlign=middle;spacingTop=-1;spacingLeft=3;spacingRight=3;rotatable=0;labelPosition=right;points=[];portConstraint=eastwest;strokeColor=inherit;" vertex="1" parent="3eHf1jaRX6m5ibN5TcEB-29">
          <mxGeometry y="26" width="160" height="8" as="geometry" />
        </mxCell>
        <mxCell id="3eHf1jaRX6m5ibN5TcEB-31" style="edgeStyle=orthogonalEdgeStyle;rounded=0;orthogonalLoop=1;jettySize=auto;html=1;entryX=1;entryY=0.163;entryDx=0;entryDy=0;endArrow=none;endFill=0;entryPerimeter=0;" edge="1" parent="1" source="3eHf1jaRX6m5ibN5TcEB-37" target="3eHf1jaRX6m5ibN5TcEB-162">
          <mxGeometry relative="1" as="geometry">
            <Array as="points">
              <mxPoint x="2864" y="371" />
            </Array>
          </mxGeometry>
        </mxCell>
        <mxCell id="3eHf1jaRX6m5ibN5TcEB-32" value="0..*" style="edgeLabel;html=1;align=center;verticalAlign=middle;resizable=0;points=[];" vertex="1" connectable="0" parent="3eHf1jaRX6m5ibN5TcEB-31">
          <mxGeometry x="-0.9405" y="-2" relative="1" as="geometry">
            <mxPoint x="10" y="4" as="offset" />
          </mxGeometry>
        </mxCell>
        <mxCell id="3eHf1jaRX6m5ibN5TcEB-33" value="uses" style="edgeStyle=orthogonalEdgeStyle;rounded=0;orthogonalLoop=1;jettySize=auto;html=1;entryX=0.5;entryY=0;entryDx=0;entryDy=0;dashed=1;dashPattern=12 12;" edge="1" parent="1" source="3eHf1jaRX6m5ibN5TcEB-37" target="3eHf1jaRX6m5ibN5TcEB-148">
          <mxGeometry relative="1" as="geometry">
            <Array as="points">
              <mxPoint x="2774" y="988" />
              <mxPoint x="2424" y="988" />
            </Array>
          </mxGeometry>
        </mxCell>
        <mxCell id="3eHf1jaRX6m5ibN5TcEB-34" value="created&lt;br&gt;from" style="edgeStyle=orthogonalEdgeStyle;rounded=0;orthogonalLoop=1;jettySize=auto;html=1;entryX=1;entryY=0.25;entryDx=0;entryDy=0;" edge="1" parent="1" source="3eHf1jaRX6m5ibN5TcEB-37" target="3eHf1jaRX6m5ibN5TcEB-70">
          <mxGeometry relative="1" as="geometry">
            <Array as="points">
              <mxPoint x="2824" y="630" />
            </Array>
          </mxGeometry>
        </mxCell>
        <mxCell id="3eHf1jaRX6m5ibN5TcEB-35" value="0..1" style="edgeLabel;html=1;align=center;verticalAlign=middle;resizable=0;points=[];" vertex="1" connectable="0" parent="3eHf1jaRX6m5ibN5TcEB-34">
          <mxGeometry x="-0.8963" y="-1" relative="1" as="geometry">
            <mxPoint x="10" y="-2" as="offset" />
          </mxGeometry>
        </mxCell>
        <mxCell id="3eHf1jaRX6m5ibN5TcEB-36" value="0..1" style="edgeLabel;html=1;align=center;verticalAlign=middle;resizable=0;points=[];" vertex="1" connectable="0" parent="3eHf1jaRX6m5ibN5TcEB-34">
          <mxGeometry x="0.8349" y="-2" relative="1" as="geometry">
            <mxPoint x="1" y="-11" as="offset" />
          </mxGeometry>
        </mxCell>
        <mxCell id="3eHf1jaRX6m5ibN5TcEB-37" value="Order" style="swimlane;fontStyle=1;align=center;verticalAlign=top;childLayout=stackLayout;horizontal=1;startSize=26;horizontalStack=0;resizeParent=1;resizeParentMax=0;resizeLast=0;collapsible=1;marginBottom=0;whiteSpace=wrap;html=1;" vertex="1" parent="1">
          <mxGeometry x="2744" y="788" width="135" height="60" as="geometry" />
        </mxCell>
        <mxCell id="3eHf1jaRX6m5ibN5TcEB-38" value="- isComplete" style="text;strokeColor=none;fillColor=none;align=left;verticalAlign=top;spacingLeft=4;spacingRight=4;overflow=hidden;rotatable=0;points=[[0,0.5],[1,0.5]];portConstraint=eastwest;whiteSpace=wrap;html=1;" vertex="1" parent="3eHf1jaRX6m5ibN5TcEB-37">
          <mxGeometry y="26" width="135" height="26" as="geometry" />
        </mxCell>
        <mxCell id="3eHf1jaRX6m5ibN5TcEB-39" value="" style="line;strokeWidth=1;fillColor=none;align=left;verticalAlign=middle;spacingTop=-1;spacingLeft=3;spacingRight=3;rotatable=0;labelPosition=right;points=[];portConstraint=eastwest;strokeColor=inherit;" vertex="1" parent="3eHf1jaRX6m5ibN5TcEB-37">
          <mxGeometry y="52" width="135" height="8" as="geometry" />
        </mxCell>
        <mxCell id="3eHf1jaRX6m5ibN5TcEB-40" style="edgeStyle=orthogonalEdgeStyle;rounded=0;orthogonalLoop=1;jettySize=auto;html=1;endArrow=none;endFill=0;" edge="1" parent="1" source="3eHf1jaRX6m5ibN5TcEB-43">
          <mxGeometry relative="1" as="geometry">
            <mxPoint x="1980" y="505" as="targetPoint" />
          </mxGeometry>
        </mxCell>
        <mxCell id="3eHf1jaRX6m5ibN5TcEB-41" value="1" style="edgeLabel;html=1;align=center;verticalAlign=middle;resizable=0;points=[];" vertex="1" connectable="0" parent="3eHf1jaRX6m5ibN5TcEB-40">
          <mxGeometry x="-0.8176" relative="1" as="geometry">
            <mxPoint x="6" y="1" as="offset" />
          </mxGeometry>
        </mxCell>
        <mxCell id="3eHf1jaRX6m5ibN5TcEB-42" value="0..*" style="edgeLabel;html=1;align=center;verticalAlign=middle;resizable=0;points=[];" vertex="1" connectable="0" parent="3eHf1jaRX6m5ibN5TcEB-40">
          <mxGeometry x="0.7795" y="1" relative="1" as="geometry">
            <mxPoint x="12" y="-4" as="offset" />
          </mxGeometry>
        </mxCell>
        <mxCell id="3eHf1jaRX6m5ibN5TcEB-43" value="DiscountPolicy" style="swimlane;fontStyle=1;align=center;verticalAlign=top;childLayout=stackLayout;horizontal=1;startSize=26;horizontalStack=0;resizeParent=1;resizeParentMax=0;resizeLast=0;collapsible=1;marginBottom=0;whiteSpace=wrap;html=1;" vertex="1" parent="1">
          <mxGeometry x="1900" y="395" width="160" height="34" as="geometry" />
        </mxCell>
        <mxCell id="3eHf1jaRX6m5ibN5TcEB-44" value="" style="line;strokeWidth=1;fillColor=none;align=left;verticalAlign=middle;spacingTop=-1;spacingLeft=3;spacingRight=3;rotatable=0;labelPosition=right;points=[];portConstraint=eastwest;strokeColor=inherit;" vertex="1" parent="3eHf1jaRX6m5ibN5TcEB-43">
          <mxGeometry y="26" width="160" height="8" as="geometry" />
        </mxCell>
        <mxCell id="3eHf1jaRX6m5ibN5TcEB-45" value="Discount" style="swimlane;fontStyle=1;align=center;verticalAlign=top;childLayout=stackLayout;horizontal=1;startSize=26;horizontalStack=0;resizeParent=1;resizeParentMax=0;resizeLast=0;collapsible=1;marginBottom=0;whiteSpace=wrap;html=1;" vertex="1" parent="1">
          <mxGeometry x="1900" y="505" width="160" height="34" as="geometry">
            <mxRectangle x="370" y="630" width="90" height="30" as="alternateBounds" />
          </mxGeometry>
        </mxCell>
        <mxCell id="3eHf1jaRX6m5ibN5TcEB-46" value="" style="line;strokeWidth=1;fillColor=none;align=left;verticalAlign=middle;spacingTop=-1;spacingLeft=3;spacingRight=3;rotatable=0;labelPosition=right;points=[];portConstraint=eastwest;strokeColor=inherit;" vertex="1" parent="3eHf1jaRX6m5ibN5TcEB-45">
          <mxGeometry y="26" width="160" height="8" as="geometry" />
        </mxCell>
        <mxCell id="3eHf1jaRX6m5ibN5TcEB-47" value="VisibleDiscount" style="swimlane;fontStyle=1;align=center;verticalAlign=top;childLayout=stackLayout;horizontal=1;startSize=26;horizontalStack=0;resizeParent=1;resizeParentMax=0;resizeLast=0;collapsible=1;marginBottom=0;whiteSpace=wrap;html=1;" vertex="1" parent="1">
          <mxGeometry x="1860" y="618" width="120" height="34" as="geometry" />
        </mxCell>
        <mxCell id="3eHf1jaRX6m5ibN5TcEB-48" value="" style="line;strokeWidth=1;fillColor=none;align=left;verticalAlign=middle;spacingTop=-1;spacingLeft=3;spacingRight=3;rotatable=0;labelPosition=right;points=[];portConstraint=eastwest;strokeColor=inherit;" vertex="1" parent="3eHf1jaRX6m5ibN5TcEB-47">
          <mxGeometry y="26" width="120" height="8" as="geometry" />
        </mxCell>
        <mxCell id="3eHf1jaRX6m5ibN5TcEB-49" value="HiddenDiscount" style="swimlane;fontStyle=1;align=center;verticalAlign=top;childLayout=stackLayout;horizontal=1;startSize=26;horizontalStack=0;resizeParent=1;resizeParentMax=0;resizeLast=0;collapsible=1;marginBottom=0;whiteSpace=wrap;html=1;" vertex="1" parent="1">
          <mxGeometry x="1984" y="618" width="120" height="34" as="geometry" />
        </mxCell>
        <mxCell id="3eHf1jaRX6m5ibN5TcEB-50" value="" style="line;strokeWidth=1;fillColor=none;align=left;verticalAlign=middle;spacingTop=-1;spacingLeft=3;spacingRight=3;rotatable=0;labelPosition=right;points=[];portConstraint=eastwest;strokeColor=inherit;" vertex="1" parent="3eHf1jaRX6m5ibN5TcEB-49">
          <mxGeometry y="26" width="120" height="8" as="geometry" />
        </mxCell>
        <mxCell id="3eHf1jaRX6m5ibN5TcEB-51" style="edgeStyle=orthogonalEdgeStyle;rounded=0;orthogonalLoop=1;jettySize=auto;html=1;endArrow=block;endFill=0;entryX=0.5;entryY=1;entryDx=0;entryDy=0;" edge="1" parent="1" source="3eHf1jaRX6m5ibN5TcEB-47" target="3eHf1jaRX6m5ibN5TcEB-45">
          <mxGeometry relative="1" as="geometry">
            <Array as="points">
              <mxPoint x="1915" y="605" />
              <mxPoint x="1980" y="605" />
            </Array>
            <mxPoint x="1978" y="539" as="targetPoint" />
          </mxGeometry>
        </mxCell>
        <mxCell id="3eHf1jaRX6m5ibN5TcEB-52" style="edgeStyle=orthogonalEdgeStyle;rounded=0;orthogonalLoop=1;jettySize=auto;html=1;endArrow=none;endFill=0;" edge="1" parent="1" source="3eHf1jaRX6m5ibN5TcEB-49">
          <mxGeometry relative="1" as="geometry">
            <mxPoint x="1970" y="605" as="targetPoint" />
            <Array as="points">
              <mxPoint x="2035" y="605" />
            </Array>
          </mxGeometry>
        </mxCell>
        <mxCell id="3eHf1jaRX6m5ibN5TcEB-53" style="edgeStyle=orthogonalEdgeStyle;rounded=0;orthogonalLoop=1;jettySize=auto;html=1;entryX=0.993;entryY=0.395;entryDx=0;entryDy=0;entryPerimeter=0;" edge="1" parent="1" source="3eHf1jaRX6m5ibN5TcEB-64" target="3eHf1jaRX6m5ibN5TcEB-17">
          <mxGeometry relative="1" as="geometry">
            <mxPoint x="2564" y="507" as="targetPoint" />
            <Array as="points">
              <mxPoint x="2564" y="481" />
            </Array>
          </mxGeometry>
        </mxCell>
        <mxCell id="3eHf1jaRX6m5ibN5TcEB-54" value="0..*" style="edgeLabel;html=1;align=center;verticalAlign=middle;resizable=0;points=[];" vertex="1" connectable="0" parent="3eHf1jaRX6m5ibN5TcEB-53">
          <mxGeometry x="0.5074" relative="1" as="geometry">
            <mxPoint x="-3" y="-11" as="offset" />
          </mxGeometry>
        </mxCell>
        <mxCell id="3eHf1jaRX6m5ibN5TcEB-55" value="1" style="edgeLabel;html=1;align=center;verticalAlign=middle;resizable=0;points=[];" vertex="1" connectable="0" parent="3eHf1jaRX6m5ibN5TcEB-53">
          <mxGeometry x="-0.7763" y="1" relative="1" as="geometry">
            <mxPoint y="-10" as="offset" />
          </mxGeometry>
        </mxCell>
        <mxCell id="3eHf1jaRX6m5ibN5TcEB-56" style="edgeStyle=orthogonalEdgeStyle;rounded=0;orthogonalLoop=1;jettySize=auto;html=1;entryX=1;entryY=0.25;entryDx=0;entryDy=0;" edge="1" parent="1" source="3eHf1jaRX6m5ibN5TcEB-64" target="3eHf1jaRX6m5ibN5TcEB-22">
          <mxGeometry relative="1" as="geometry">
            <Array as="points">
              <mxPoint x="2704" y="508" />
              <mxPoint x="2604" y="508" />
              <mxPoint x="2604" y="586" />
            </Array>
          </mxGeometry>
        </mxCell>
        <mxCell id="3eHf1jaRX6m5ibN5TcEB-57" value="0..*" style="edgeLabel;html=1;align=center;verticalAlign=middle;resizable=0;points=[];" vertex="1" connectable="0" parent="3eHf1jaRX6m5ibN5TcEB-56">
          <mxGeometry x="0.8754" relative="1" as="geometry">
            <mxPoint x="1" y="-16" as="offset" />
          </mxGeometry>
        </mxCell>
        <mxCell id="3eHf1jaRX6m5ibN5TcEB-58" value="1" style="edgeLabel;html=1;align=center;verticalAlign=middle;resizable=0;points=[];" vertex="1" connectable="0" parent="3eHf1jaRX6m5ibN5TcEB-56">
          <mxGeometry x="-0.945" relative="1" as="geometry">
            <mxPoint x="-6" y="3" as="offset" />
          </mxGeometry>
        </mxCell>
        <mxCell id="3eHf1jaRX6m5ibN5TcEB-59" style="edgeStyle=orthogonalEdgeStyle;rounded=0;orthogonalLoop=1;jettySize=auto;html=1;entryX=0.5;entryY=0;entryDx=0;entryDy=0;exitX=1;exitY=0.25;exitDx=0;exitDy=0;endArrow=none;endFill=0;" edge="1" parent="1" source="3eHf1jaRX6m5ibN5TcEB-162" target="3eHf1jaRX6m5ibN5TcEB-70">
          <mxGeometry relative="1" as="geometry">
            <Array as="points">
              <mxPoint x="2784" y="378" />
              <mxPoint x="2854" y="378" />
              <mxPoint x="2854" y="588" />
              <mxPoint x="2714" y="588" />
            </Array>
          </mxGeometry>
        </mxCell>
        <mxCell id="3eHf1jaRX6m5ibN5TcEB-60" value="1" style="edgeLabel;html=1;align=center;verticalAlign=middle;resizable=0;points=[];" vertex="1" connectable="0" parent="3eHf1jaRX6m5ibN5TcEB-59">
          <mxGeometry x="-0.8958" y="2" relative="1" as="geometry">
            <mxPoint x="-13" y="-18" as="offset" />
          </mxGeometry>
        </mxCell>
        <mxCell id="3eHf1jaRX6m5ibN5TcEB-61" value="1" style="edgeLabel;html=1;align=center;verticalAlign=middle;resizable=0;points=[];" vertex="1" connectable="0" parent="3eHf1jaRX6m5ibN5TcEB-59">
          <mxGeometry x="0.7895" y="2" relative="1" as="geometry">
            <mxPoint x="-8" y="8" as="offset" />
          </mxGeometry>
        </mxCell>
        <mxCell id="3eHf1jaRX6m5ibN5TcEB-62" value="1" style="edgeLabel;html=1;align=center;verticalAlign=middle;resizable=0;points=[];" vertex="1" connectable="0" parent="3eHf1jaRX6m5ibN5TcEB-59">
          <mxGeometry x="-0.9503" y="1" relative="1" as="geometry">
            <mxPoint y="11" as="offset" />
          </mxGeometry>
        </mxCell>
        <mxCell id="3eHf1jaRX6m5ibN5TcEB-63" style="edgeStyle=orthogonalEdgeStyle;rounded=0;orthogonalLoop=1;jettySize=auto;html=1;entryX=0.5;entryY=1;entryDx=0;entryDy=0;endArrow=block;endFill=0;" edge="1" parent="1" source="3eHf1jaRX6m5ibN5TcEB-64" target="3eHf1jaRX6m5ibN5TcEB-162">
          <mxGeometry relative="1" as="geometry">
            <Array as="points">
              <mxPoint x="2674" y="438" />
              <mxPoint x="2704" y="438" />
            </Array>
          </mxGeometry>
        </mxCell>
        <mxCell id="3eHf1jaRX6m5ibN5TcEB-64" value="Subscriber" style="swimlane;fontStyle=1;align=center;verticalAlign=top;childLayout=stackLayout;horizontal=1;startSize=26;horizontalStack=0;resizeParent=1;resizeParentMax=0;resizeLast=0;collapsible=1;marginBottom=0;whiteSpace=wrap;html=1;" vertex="1" parent="1">
          <mxGeometry x="2624" y="451" width="100" height="60" as="geometry" />
        </mxCell>
        <mxCell id="3eHf1jaRX6m5ibN5TcEB-65" value="- username" style="text;strokeColor=none;fillColor=none;align=left;verticalAlign=top;spacingLeft=4;spacingRight=4;overflow=hidden;rotatable=0;points=[[0,0.5],[1,0.5]];portConstraint=eastwest;whiteSpace=wrap;html=1;" vertex="1" parent="3eHf1jaRX6m5ibN5TcEB-64">
          <mxGeometry y="26" width="100" height="26" as="geometry" />
        </mxCell>
        <mxCell id="3eHf1jaRX6m5ibN5TcEB-66" value="" style="line;strokeWidth=1;fillColor=none;align=left;verticalAlign=middle;spacingTop=-1;spacingLeft=3;spacingRight=3;rotatable=0;labelPosition=right;points=[];portConstraint=eastwest;strokeColor=inherit;" vertex="1" parent="3eHf1jaRX6m5ibN5TcEB-64">
          <mxGeometry y="52" width="100" height="8" as="geometry" />
        </mxCell>
        <mxCell id="3eHf1jaRX6m5ibN5TcEB-67" style="edgeStyle=orthogonalEdgeStyle;rounded=0;orthogonalLoop=1;jettySize=auto;html=1;entryX=0.5;entryY=0;entryDx=0;entryDy=0;endArrow=none;endFill=0;" edge="1" parent="1" source="3eHf1jaRX6m5ibN5TcEB-70" target="3eHf1jaRX6m5ibN5TcEB-137">
          <mxGeometry relative="1" as="geometry" />
        </mxCell>
        <mxCell id="3eHf1jaRX6m5ibN5TcEB-68" value="0..*" style="edgeLabel;html=1;align=center;verticalAlign=middle;resizable=0;points=[];" vertex="1" connectable="0" parent="3eHf1jaRX6m5ibN5TcEB-67">
          <mxGeometry x="0.5472" y="1" relative="1" as="geometry">
            <mxPoint x="12" as="offset" />
          </mxGeometry>
        </mxCell>
        <mxCell id="3eHf1jaRX6m5ibN5TcEB-69" value="1" style="edgeLabel;html=1;align=center;verticalAlign=middle;resizable=0;points=[];" vertex="1" connectable="0" parent="3eHf1jaRX6m5ibN5TcEB-67">
          <mxGeometry x="-0.8079" y="1" relative="1" as="geometry">
            <mxPoint x="6" y="4" as="offset" />
          </mxGeometry>
        </mxCell>
        <mxCell id="3eHf1jaRX6m5ibN5TcEB-70" value="ShoppingCart" style="swimlane;fontStyle=1;align=center;verticalAlign=top;childLayout=stackLayout;horizontal=1;startSize=26;horizontalStack=0;resizeParent=1;resizeParentMax=0;resizeLast=0;collapsible=1;marginBottom=0;whiteSpace=wrap;html=1;" vertex="1" parent="1">
          <mxGeometry x="2634" y="622" width="160" height="34" as="geometry" />
        </mxCell>
        <mxCell id="3eHf1jaRX6m5ibN5TcEB-71" value="" style="line;strokeWidth=1;fillColor=none;align=left;verticalAlign=middle;spacingTop=-1;spacingLeft=3;spacingRight=3;rotatable=0;labelPosition=right;points=[];portConstraint=eastwest;strokeColor=inherit;" vertex="1" parent="3eHf1jaRX6m5ibN5TcEB-70">
          <mxGeometry y="26" width="160" height="8" as="geometry" />
        </mxCell>
        <mxCell id="3eHf1jaRX6m5ibN5TcEB-72" value="" style="endArrow=none;dashed=1;html=1;rounded=0;exitX=0.186;exitY=-0.008;exitDx=0;exitDy=0;exitPerimeter=0;" edge="1" parent="1" source="3eHf1jaRX6m5ibN5TcEB-74">
          <mxGeometry width="50" height="50" relative="1" as="geometry">
            <mxPoint x="2404" y="688" as="sourcePoint" />
            <mxPoint x="2354" y="598" as="targetPoint" />
            <Array as="points">
              <mxPoint x="2404" y="680" />
              <mxPoint x="2354" y="680" />
            </Array>
          </mxGeometry>
        </mxCell>
        <mxCell id="3eHf1jaRX6m5ibN5TcEB-73" value="0..*" style="edgeLabel;html=1;align=center;verticalAlign=middle;resizable=0;points=[];" vertex="1" connectable="0" parent="3eHf1jaRX6m5ibN5TcEB-72">
          <mxGeometry x="-0.8328" relative="1" as="geometry">
            <mxPoint x="11" y="1" as="offset" />
          </mxGeometry>
        </mxCell>
        <mxCell id="3eHf1jaRX6m5ibN5TcEB-74" value="&lt;div&gt;&lt;span style=&quot;font-weight: normal;&quot;&gt;&amp;nbsp;&amp;lt;&amp;lt;enum&amp;gt;&amp;gt;&lt;/span&gt;&lt;br&gt;&lt;/div&gt;ManagerAuthorization" style="swimlane;fontStyle=1;align=center;verticalAlign=top;childLayout=stackLayout;horizontal=1;startSize=40;horizontalStack=0;resizeParent=1;resizeParentMax=0;resizeLast=0;collapsible=1;marginBottom=0;whiteSpace=wrap;html=1;" vertex="1" parent="1">
          <mxGeometry x="2374" y="693" width="160" height="152" as="geometry" />
        </mxCell>
        <mxCell id="3eHf1jaRX6m5ibN5TcEB-75" value="- View" style="text;strokeColor=none;fillColor=none;align=left;verticalAlign=top;spacingLeft=4;spacingRight=4;overflow=hidden;rotatable=0;points=[[0,0.5],[1,0.5]];portConstraint=eastwest;whiteSpace=wrap;html=1;" vertex="1" parent="3eHf1jaRX6m5ibN5TcEB-74">
          <mxGeometry y="40" width="160" height="26" as="geometry" />
        </mxCell>
        <mxCell id="3eHf1jaRX6m5ibN5TcEB-76" value="- UpdateSupply" style="text;strokeColor=none;fillColor=none;align=left;verticalAlign=top;spacingLeft=4;spacingRight=4;overflow=hidden;rotatable=0;points=[[0,0.5],[1,0.5]];portConstraint=eastwest;whiteSpace=wrap;html=1;" vertex="1" parent="3eHf1jaRX6m5ibN5TcEB-74">
          <mxGeometry y="66" width="160" height="26" as="geometry" />
        </mxCell>
        <mxCell id="3eHf1jaRX6m5ibN5TcEB-77" value="- UpdatePurchasePolicy" style="text;strokeColor=none;fillColor=none;align=left;verticalAlign=top;spacingLeft=4;spacingRight=4;overflow=hidden;rotatable=0;points=[[0,0.5],[1,0.5]];portConstraint=eastwest;whiteSpace=wrap;html=1;" vertex="1" parent="3eHf1jaRX6m5ibN5TcEB-74">
          <mxGeometry y="92" width="160" height="26" as="geometry" />
        </mxCell>
        <mxCell id="3eHf1jaRX6m5ibN5TcEB-78" value="- UpdateDiscountPolicy" style="text;strokeColor=none;fillColor=none;align=left;verticalAlign=top;spacingLeft=4;spacingRight=4;overflow=hidden;rotatable=0;points=[[0,0.5],[1,0.5]];portConstraint=eastwest;whiteSpace=wrap;html=1;" vertex="1" parent="3eHf1jaRX6m5ibN5TcEB-74">
          <mxGeometry y="118" width="160" height="26" as="geometry" />
        </mxCell>
        <mxCell id="3eHf1jaRX6m5ibN5TcEB-79" value="" style="line;strokeWidth=1;fillColor=none;align=left;verticalAlign=middle;spacingTop=-1;spacingLeft=3;spacingRight=3;rotatable=0;labelPosition=right;points=[];portConstraint=eastwest;strokeColor=inherit;" vertex="1" parent="3eHf1jaRX6m5ibN5TcEB-74">
          <mxGeometry y="144" width="160" height="8" as="geometry" />
        </mxCell>
        <mxCell id="3eHf1jaRX6m5ibN5TcEB-80" style="edgeStyle=orthogonalEdgeStyle;rounded=0;orthogonalLoop=1;jettySize=auto;html=1;endArrow=none;endFill=0;startArrow=diamondThin;startFill=0;" edge="1" parent="1" source="3eHf1jaRX6m5ibN5TcEB-83" target="3eHf1jaRX6m5ibN5TcEB-10">
          <mxGeometry relative="1" as="geometry">
            <Array as="points">
              <mxPoint x="2184" y="448" />
              <mxPoint x="2184" y="448" />
            </Array>
          </mxGeometry>
        </mxCell>
        <mxCell id="3eHf1jaRX6m5ibN5TcEB-81" value="0..*" style="edgeLabel;html=1;align=center;verticalAlign=middle;resizable=0;points=[];" vertex="1" connectable="0" parent="3eHf1jaRX6m5ibN5TcEB-80">
          <mxGeometry x="0.7704" relative="1" as="geometry">
            <mxPoint x="11" y="-1" as="offset" />
          </mxGeometry>
        </mxCell>
        <mxCell id="3eHf1jaRX6m5ibN5TcEB-82" value="1" style="edgeLabel;html=1;align=center;verticalAlign=middle;resizable=0;points=[];" vertex="1" connectable="0" parent="3eHf1jaRX6m5ibN5TcEB-80">
          <mxGeometry x="-0.8214" y="1" relative="1" as="geometry">
            <mxPoint x="5" y="4" as="offset" />
          </mxGeometry>
        </mxCell>
        <mxCell id="3eHf1jaRX6m5ibN5TcEB-83" value="StoreController" style="swimlane;fontStyle=1;align=center;verticalAlign=top;childLayout=stackLayout;horizontal=1;startSize=26;horizontalStack=0;resizeParent=1;resizeParentMax=0;resizeLast=0;collapsible=1;marginBottom=0;whiteSpace=wrap;html=1;" vertex="1" parent="1">
          <mxGeometry x="2084" y="270" width="200" height="70" as="geometry" />
        </mxCell>
        <mxCell id="3eHf1jaRX6m5ibN5TcEB-84" value="" style="line;strokeWidth=1;fillColor=none;align=left;verticalAlign=middle;spacingTop=-1;spacingLeft=3;spacingRight=3;rotatable=0;labelPosition=right;points=[];portConstraint=eastwest;strokeColor=inherit;" vertex="1" parent="3eHf1jaRX6m5ibN5TcEB-83">
          <mxGeometry y="26" width="200" height="8" as="geometry" />
        </mxCell>
        <mxCell id="3eHf1jaRX6m5ibN5TcEB-190" value="+ createStore(storeID)" style="text;strokeColor=none;fillColor=none;align=left;verticalAlign=top;spacingLeft=4;spacingRight=4;overflow=hidden;rotatable=0;points=[[0,0.5],[1,0.5]];portConstraint=eastwest;whiteSpace=wrap;html=1;fontSize=7;" vertex="1" parent="3eHf1jaRX6m5ibN5TcEB-83">
          <mxGeometry y="34" width="200" height="16" as="geometry" />
        </mxCell>
        <mxCell id="3eHf1jaRX6m5ibN5TcEB-191" value="+ closeStore(storeID)" style="text;strokeColor=none;fillColor=none;align=left;verticalAlign=top;spacingLeft=4;spacingRight=4;overflow=hidden;rotatable=0;points=[[0,0.5],[1,0.5]];portConstraint=eastwest;whiteSpace=wrap;html=1;fontSize=7;" vertex="1" parent="3eHf1jaRX6m5ibN5TcEB-83">
          <mxGeometry y="50" width="200" height="20" as="geometry" />
        </mxCell>
        <mxCell id="3eHf1jaRX6m5ibN5TcEB-85" style="edgeStyle=orthogonalEdgeStyle;rounded=0;orthogonalLoop=1;jettySize=auto;html=1;endArrow=none;endFill=0;startArrow=diamondThin;startFill=0;exitX=0.5;exitY=1;exitDx=0;exitDy=0;entryX=0.172;entryY=0.002;entryDx=0;entryDy=0;entryPerimeter=0;" edge="1" parent="1" source="3eHf1jaRX6m5ibN5TcEB-145" target="3eHf1jaRX6m5ibN5TcEB-101">
          <mxGeometry relative="1" as="geometry">
            <Array as="points" />
            <mxPoint x="2632" y="270" as="targetPoint" />
          </mxGeometry>
        </mxCell>
        <mxCell id="3eHf1jaRX6m5ibN5TcEB-86" value="1" style="edgeLabel;html=1;align=center;verticalAlign=middle;resizable=0;points=[];" vertex="1" connectable="0" parent="3eHf1jaRX6m5ibN5TcEB-85">
          <mxGeometry x="0.9107" y="-1" relative="1" as="geometry">
            <mxPoint x="-6" y="1" as="offset" />
          </mxGeometry>
        </mxCell>
        <mxCell id="3eHf1jaRX6m5ibN5TcEB-87" value="1" style="edgeLabel;html=1;align=center;verticalAlign=middle;resizable=0;points=[];" vertex="1" connectable="0" parent="3eHf1jaRX6m5ibN5TcEB-85">
          <mxGeometry x="-0.8857" y="1" relative="1" as="geometry">
            <mxPoint x="-10" y="1" as="offset" />
          </mxGeometry>
        </mxCell>
        <mxCell id="3eHf1jaRX6m5ibN5TcEB-88" value="returns" style="edgeStyle=orthogonalEdgeStyle;rounded=0;orthogonalLoop=1;jettySize=auto;html=1;exitX=1;exitY=0.25;exitDx=0;exitDy=0;entryX=0;entryY=0.297;entryDx=0;entryDy=0;entryPerimeter=0;" edge="1" parent="1" source="3eHf1jaRX6m5ibN5TcEB-128" target="3eHf1jaRX6m5ibN5TcEB-131">
          <mxGeometry relative="1" as="geometry">
            <mxPoint x="2773" y="-8" as="targetPoint" />
            <Array as="points" />
          </mxGeometry>
        </mxCell>
        <mxCell id="3eHf1jaRX6m5ibN5TcEB-89" style="edgeStyle=orthogonalEdgeStyle;rounded=0;orthogonalLoop=1;jettySize=auto;html=1;startArrow=diamondThin;startFill=0;endArrow=none;endFill=0;exitX=0.478;exitY=1.01;exitDx=0;exitDy=0;exitPerimeter=0;" edge="1" parent="1" source="3eHf1jaRX6m5ibN5TcEB-189">
          <mxGeometry relative="1" as="geometry">
            <mxPoint x="2174" y="270" as="targetPoint" />
            <Array as="points">
              <mxPoint x="2175" y="148" />
              <mxPoint x="2174" y="148" />
            </Array>
            <mxPoint x="2174" y="-2" as="sourcePoint" />
          </mxGeometry>
        </mxCell>
        <mxCell id="3eHf1jaRX6m5ibN5TcEB-90" value="1" style="edgeLabel;html=1;align=center;verticalAlign=middle;resizable=0;points=[];" vertex="1" connectable="0" parent="3eHf1jaRX6m5ibN5TcEB-89">
          <mxGeometry x="0.919" y="1" relative="1" as="geometry">
            <mxPoint x="-8" y="-3" as="offset" />
          </mxGeometry>
        </mxCell>
        <mxCell id="3eHf1jaRX6m5ibN5TcEB-91" value="1" style="edgeLabel;html=1;align=center;verticalAlign=middle;resizable=0;points=[];" vertex="1" connectable="0" parent="3eHf1jaRX6m5ibN5TcEB-89">
          <mxGeometry x="-0.9193" y="-2" relative="1" as="geometry">
            <mxPoint x="-8" y="3" as="offset" />
          </mxGeometry>
        </mxCell>
        <mxCell id="3eHf1jaRX6m5ibN5TcEB-92" value="appointed" style="edgeStyle=orthogonalEdgeStyle;rounded=0;orthogonalLoop=1;jettySize=auto;html=1;endArrow=none;endFill=0;startArrow=classic;startFill=1;entryX=0.526;entryY=1.009;entryDx=0;entryDy=0;exitX=0.476;exitY=-0.018;exitDx=0;exitDy=0;exitPerimeter=0;entryPerimeter=0;" edge="1" parent="1" source="3eHf1jaRX6m5ibN5TcEB-22" target="3eHf1jaRX6m5ibN5TcEB-196">
          <mxGeometry relative="1" as="geometry">
            <Array as="points">
              <mxPoint x="2474" y="518" />
              <mxPoint x="2474" y="518" />
            </Array>
            <mxPoint x="2474" y="578" as="sourcePoint" />
            <mxPoint x="2474" y="502" as="targetPoint" />
          </mxGeometry>
        </mxCell>
        <mxCell id="3eHf1jaRX6m5ibN5TcEB-93" value="0..*" style="edgeLabel;html=1;align=center;verticalAlign=middle;resizable=0;points=[];" vertex="1" connectable="0" parent="3eHf1jaRX6m5ibN5TcEB-92">
          <mxGeometry x="-0.7724" y="1" relative="1" as="geometry">
            <mxPoint x="15" as="offset" />
          </mxGeometry>
        </mxCell>
        <mxCell id="3eHf1jaRX6m5ibN5TcEB-94" value="1" style="edgeLabel;html=1;align=center;verticalAlign=middle;resizable=0;points=[];" vertex="1" connectable="0" parent="3eHf1jaRX6m5ibN5TcEB-92">
          <mxGeometry x="0.7174" y="-1" relative="1" as="geometry">
            <mxPoint x="4" y="1" as="offset" />
          </mxGeometry>
        </mxCell>
        <mxCell id="3eHf1jaRX6m5ibN5TcEB-95" value="appointed" style="edgeStyle=orthogonalEdgeStyle;rounded=0;orthogonalLoop=1;jettySize=auto;html=1;entryX=0.781;entryY=-0.014;entryDx=0;entryDy=0;entryPerimeter=0;" edge="1" parent="1" source="3eHf1jaRX6m5ibN5TcEB-17" target="3eHf1jaRX6m5ibN5TcEB-17">
          <mxGeometry relative="1" as="geometry">
            <Array as="points">
              <mxPoint x="2469" y="448" />
              <mxPoint x="2522" y="448" />
              <mxPoint x="2522" y="458" />
              <mxPoint x="2522" y="458" />
            </Array>
          </mxGeometry>
        </mxCell>
        <mxCell id="3eHf1jaRX6m5ibN5TcEB-96" value="0..*" style="edgeLabel;html=1;align=center;verticalAlign=middle;resizable=0;points=[];" vertex="1" connectable="0" parent="3eHf1jaRX6m5ibN5TcEB-95">
          <mxGeometry x="0.9176" y="-1" relative="1" as="geometry">
            <mxPoint x="14" y="-7" as="offset" />
          </mxGeometry>
        </mxCell>
        <mxCell id="3eHf1jaRX6m5ibN5TcEB-97" value="1" style="edgeLabel;html=1;align=center;verticalAlign=middle;resizable=0;points=[];" vertex="1" connectable="0" parent="3eHf1jaRX6m5ibN5TcEB-95">
          <mxGeometry x="-0.7897" relative="1" as="geometry">
            <mxPoint x="-5" as="offset" />
          </mxGeometry>
        </mxCell>
        <mxCell id="3eHf1jaRX6m5ibN5TcEB-98" style="edgeStyle=orthogonalEdgeStyle;rounded=0;orthogonalLoop=1;jettySize=auto;html=1;entryX=0.5;entryY=0;entryDx=0;entryDy=0;endArrow=none;endFill=0;" edge="1" parent="1" source="3eHf1jaRX6m5ibN5TcEB-101" target="3eHf1jaRX6m5ibN5TcEB-153">
          <mxGeometry relative="1" as="geometry" />
        </mxCell>
        <mxCell id="3eHf1jaRX6m5ibN5TcEB-99" value="1" style="edgeLabel;html=1;align=center;verticalAlign=middle;resizable=0;points=[];" vertex="1" connectable="0" parent="3eHf1jaRX6m5ibN5TcEB-98">
          <mxGeometry x="-0.8625" y="-1" relative="1" as="geometry">
            <mxPoint y="-7" as="offset" />
          </mxGeometry>
        </mxCell>
        <mxCell id="3eHf1jaRX6m5ibN5TcEB-100" value="1" style="edgeLabel;html=1;align=center;verticalAlign=middle;resizable=0;points=[];" vertex="1" connectable="0" parent="3eHf1jaRX6m5ibN5TcEB-98">
          <mxGeometry x="0.8907" y="1" relative="1" as="geometry">
            <mxPoint x="4" y="-1" as="offset" />
          </mxGeometry>
        </mxCell>
        <mxCell id="3eHf1jaRX6m5ibN5TcEB-101" value="UserController" style="swimlane;fontStyle=1;align=center;verticalAlign=top;childLayout=stackLayout;horizontal=1;startSize=26;horizontalStack=0;resizeParent=1;resizeParentMax=0;resizeLast=0;collapsible=1;marginBottom=0;whiteSpace=wrap;html=1;" vertex="1" parent="1">
          <mxGeometry x="2594" y="271" width="220" height="70" as="geometry" />
        </mxCell>
        <mxCell id="3eHf1jaRX6m5ibN5TcEB-102" value="" style="line;strokeWidth=1;fillColor=none;align=left;verticalAlign=middle;spacingTop=-1;spacingLeft=3;spacingRight=3;rotatable=0;labelPosition=right;points=[];portConstraint=eastwest;strokeColor=inherit;" vertex="1" parent="3eHf1jaRX6m5ibN5TcEB-101">
          <mxGeometry y="26" width="220" height="8" as="geometry" />
        </mxCell>
        <mxCell id="3eHf1jaRX6m5ibN5TcEB-193" value="+ getUser(username)" style="text;strokeColor=none;fillColor=none;align=left;verticalAlign=top;spacingLeft=4;spacingRight=4;overflow=hidden;rotatable=0;points=[[0,0.5],[1,0.5]];portConstraint=eastwest;whiteSpace=wrap;html=1;fontSize=7;spacing=0;spacingTop=-3;" vertex="1" parent="3eHf1jaRX6m5ibN5TcEB-101">
          <mxGeometry y="34" width="220" height="6" as="geometry" />
        </mxCell>
        <mxCell id="3eHf1jaRX6m5ibN5TcEB-195" value="+ createUser(username, password)" style="text;strokeColor=none;fillColor=none;align=left;verticalAlign=top;spacingLeft=4;spacingRight=4;overflow=hidden;rotatable=0;points=[[0,0.5],[1,0.5]];portConstraint=eastwest;whiteSpace=wrap;html=1;fontSize=7;spacing=0;" vertex="1" parent="3eHf1jaRX6m5ibN5TcEB-101">
          <mxGeometry y="40" width="220" height="10" as="geometry" />
        </mxCell>
        <mxCell id="3eHf1jaRX6m5ibN5TcEB-194" value="+ login(username, password)" style="text;strokeColor=none;fillColor=none;align=left;verticalAlign=top;spacingLeft=4;spacingRight=4;overflow=hidden;rotatable=0;points=[[0,0.5],[1,0.5]];portConstraint=eastwest;whiteSpace=wrap;html=1;fontSize=7;spacing=0;" vertex="1" parent="3eHf1jaRX6m5ibN5TcEB-101">
          <mxGeometry y="50" width="220" height="20" as="geometry" />
        </mxCell>
        <mxCell id="3eHf1jaRX6m5ibN5TcEB-103" value="Product" style="swimlane;fontStyle=1;align=center;verticalAlign=top;childLayout=stackLayout;horizontal=1;startSize=26;horizontalStack=0;resizeParent=1;resizeParentMax=0;resizeLast=0;collapsible=1;marginBottom=0;whiteSpace=wrap;html=1;" vertex="1" parent="1">
          <mxGeometry x="2124" y="669" width="160" height="86" as="geometry" />
        </mxCell>
        <mxCell id="3eHf1jaRX6m5ibN5TcEB-104" value="- storeID" style="text;strokeColor=none;fillColor=none;align=left;verticalAlign=top;spacingLeft=4;spacingRight=4;overflow=hidden;rotatable=0;points=[[0,0.5],[1,0.5]];portConstraint=eastwest;whiteSpace=wrap;html=1;" vertex="1" parent="3eHf1jaRX6m5ibN5TcEB-103">
          <mxGeometry y="26" width="160" height="26" as="geometry" />
        </mxCell>
        <mxCell id="3eHf1jaRX6m5ibN5TcEB-105" value="..." style="text;strokeColor=none;fillColor=none;align=left;verticalAlign=top;spacingLeft=4;spacingRight=4;overflow=hidden;rotatable=0;points=[[0,0.5],[1,0.5]];portConstraint=eastwest;whiteSpace=wrap;html=1;" vertex="1" parent="3eHf1jaRX6m5ibN5TcEB-103">
          <mxGeometry y="52" width="160" height="26" as="geometry" />
        </mxCell>
        <mxCell id="3eHf1jaRX6m5ibN5TcEB-106" value="" style="line;strokeWidth=1;fillColor=none;align=left;verticalAlign=middle;spacingTop=-1;spacingLeft=3;spacingRight=3;rotatable=0;labelPosition=right;points=[];portConstraint=eastwest;strokeColor=inherit;" vertex="1" parent="3eHf1jaRX6m5ibN5TcEB-103">
          <mxGeometry y="78" width="160" height="8" as="geometry" />
        </mxCell>
        <mxCell id="3eHf1jaRX6m5ibN5TcEB-107" value="founded by" style="edgeStyle=orthogonalEdgeStyle;rounded=0;orthogonalLoop=1;jettySize=auto;html=1;entryX=0.263;entryY=-0.013;entryDx=0;entryDy=0;entryPerimeter=0;" edge="1" parent="1" source="3eHf1jaRX6m5ibN5TcEB-10" target="3eHf1jaRX6m5ibN5TcEB-17">
          <mxGeometry relative="1" as="geometry">
            <Array as="points">
              <mxPoint x="2424" y="448" />
            </Array>
            <mxPoint x="2424" y="466" as="targetPoint" />
          </mxGeometry>
        </mxCell>
        <mxCell id="3eHf1jaRX6m5ibN5TcEB-108" value="1" style="edgeLabel;html=1;align=center;verticalAlign=middle;resizable=0;points=[];" vertex="1" connectable="0" parent="3eHf1jaRX6m5ibN5TcEB-107">
          <mxGeometry x="0.8443" y="1" relative="1" as="geometry">
            <mxPoint x="-4" y="-14" as="offset" />
          </mxGeometry>
        </mxCell>
        <mxCell id="3eHf1jaRX6m5ibN5TcEB-109" value="1" style="edgeLabel;html=1;align=center;verticalAlign=middle;resizable=0;points=[];" vertex="1" connectable="0" parent="3eHf1jaRX6m5ibN5TcEB-107">
          <mxGeometry x="-0.9179" y="1" relative="1" as="geometry">
            <mxPoint x="4" y="-8" as="offset" />
          </mxGeometry>
        </mxCell>
        <mxCell id="3eHf1jaRX6m5ibN5TcEB-110" style="edgeStyle=orthogonalEdgeStyle;rounded=0;orthogonalLoop=1;jettySize=auto;html=1;entryX=0.438;entryY=0.01;entryDx=0;entryDy=0;endArrow=none;endFill=0;startArrow=diamondThin;startFill=0;entryPerimeter=0;" edge="1" parent="1" source="3eHf1jaRX6m5ibN5TcEB-101" target="3eHf1jaRX6m5ibN5TcEB-162">
          <mxGeometry relative="1" as="geometry">
            <Array as="points">
              <mxPoint x="2694" y="328" />
              <mxPoint x="2694" y="328" />
            </Array>
          </mxGeometry>
        </mxCell>
        <mxCell id="3eHf1jaRX6m5ibN5TcEB-111" value="1" style="edgeLabel;html=1;align=center;verticalAlign=middle;resizable=0;points=[];" vertex="1" connectable="0" parent="3eHf1jaRX6m5ibN5TcEB-110">
          <mxGeometry x="-0.6178" relative="1" as="geometry">
            <mxPoint x="5" y="1" as="offset" />
          </mxGeometry>
        </mxCell>
        <mxCell id="3eHf1jaRX6m5ibN5TcEB-112" value="1..*" style="edgeLabel;html=1;align=center;verticalAlign=middle;resizable=0;points=[];" vertex="1" connectable="0" parent="3eHf1jaRX6m5ibN5TcEB-110">
          <mxGeometry x="0.6252" y="2" relative="1" as="geometry">
            <mxPoint x="8" y="-3" as="offset" />
          </mxGeometry>
        </mxCell>
        <mxCell id="3eHf1jaRX6m5ibN5TcEB-113" value="creates" style="edgeStyle=orthogonalEdgeStyle;rounded=0;orthogonalLoop=1;jettySize=auto;html=1;exitX=-0.007;exitY=0.343;exitDx=0;exitDy=0;exitPerimeter=0;entryX=0.997;entryY=0.281;entryDx=0;entryDy=0;entryPerimeter=0;" edge="1" parent="1" target="3eHf1jaRX6m5ibN5TcEB-122">
          <mxGeometry relative="1" as="geometry">
            <mxPoint x="2332.7200000000003" y="-5.420000000000073" as="sourcePoint" />
            <mxPoint x="2260" y="91" as="targetPoint" />
            <Array as="points">
              <mxPoint x="2314" y="-5" />
              <mxPoint x="2314" y="91" />
            </Array>
          </mxGeometry>
        </mxCell>
        <mxCell id="3eHf1jaRX6m5ibN5TcEB-114" value="creates" style="edgeStyle=orthogonalEdgeStyle;rounded=0;orthogonalLoop=1;jettySize=auto;html=1;entryX=0.002;entryY=0.225;entryDx=0;entryDy=0;exitX=1.008;exitY=-0.147;exitDx=0;exitDy=0;exitPerimeter=0;entryPerimeter=0;" edge="1" parent="1" source="3eHf1jaRX6m5ibN5TcEB-126" target="3eHf1jaRX6m5ibN5TcEB-145">
          <mxGeometry x="0.0018" relative="1" as="geometry">
            <Array as="points">
              <mxPoint x="2514" y="-4" />
              <mxPoint x="2514" y="86" />
              <mxPoint x="2552" y="86" />
            </Array>
            <mxPoint x="2454" y="-15.5" as="sourcePoint" />
            <mxPoint as="offset" />
          </mxGeometry>
        </mxCell>
        <mxCell id="3eHf1jaRX6m5ibN5TcEB-115" style="edgeStyle=orthogonalEdgeStyle;rounded=0;orthogonalLoop=1;jettySize=auto;html=1;entryX=0.5;entryY=0;entryDx=0;entryDy=0;endArrow=none;endFill=0;" edge="1" parent="1" source="3eHf1jaRX6m5ibN5TcEB-118" target="3eHf1jaRX6m5ibN5TcEB-171">
          <mxGeometry relative="1" as="geometry" />
        </mxCell>
        <mxCell id="3eHf1jaRX6m5ibN5TcEB-116" value="0..*" style="edgeLabel;html=1;align=center;verticalAlign=middle;resizable=0;points=[];" vertex="1" connectable="0" parent="3eHf1jaRX6m5ibN5TcEB-115">
          <mxGeometry x="0.5048" relative="1" as="geometry">
            <mxPoint x="11" as="offset" />
          </mxGeometry>
        </mxCell>
        <mxCell id="3eHf1jaRX6m5ibN5TcEB-117" value="1" style="edgeLabel;html=1;align=center;verticalAlign=middle;resizable=0;points=[];" vertex="1" connectable="0" parent="3eHf1jaRX6m5ibN5TcEB-115">
          <mxGeometry x="-0.6143" y="-1" relative="1" as="geometry">
            <mxPoint x="7" as="offset" />
          </mxGeometry>
        </mxCell>
        <mxCell id="3eHf1jaRX6m5ibN5TcEB-118" value="StoreDTO" style="swimlane;fontStyle=1;align=center;verticalAlign=top;childLayout=stackLayout;horizontal=1;startSize=26;horizontalStack=0;resizeParent=1;resizeParentMax=0;resizeLast=0;collapsible=1;marginBottom=0;whiteSpace=wrap;html=1;" vertex="1" parent="1">
          <mxGeometry x="1854" y="-29" width="160" height="60" as="geometry" />
        </mxCell>
        <mxCell id="3eHf1jaRX6m5ibN5TcEB-119" value="-" style="text;strokeColor=none;fillColor=none;align=left;verticalAlign=top;spacingLeft=4;spacingRight=4;overflow=hidden;rotatable=0;points=[[0,0.5],[1,0.5]];portConstraint=eastwest;whiteSpace=wrap;html=1;" vertex="1" parent="3eHf1jaRX6m5ibN5TcEB-118">
          <mxGeometry y="26" width="160" height="26" as="geometry" />
        </mxCell>
        <mxCell id="3eHf1jaRX6m5ibN5TcEB-120" value="" style="line;strokeWidth=1;fillColor=none;align=left;verticalAlign=middle;spacingTop=-1;spacingLeft=3;spacingRight=3;rotatable=0;labelPosition=right;points=[];portConstraint=eastwest;strokeColor=inherit;" vertex="1" parent="3eHf1jaRX6m5ibN5TcEB-118">
          <mxGeometry y="52" width="160" height="8" as="geometry" />
        </mxCell>
        <mxCell id="3eHf1jaRX6m5ibN5TcEB-121" style="edgeStyle=orthogonalEdgeStyle;rounded=0;orthogonalLoop=1;jettySize=auto;html=1;entryX=0.5;entryY=1;entryDx=0;entryDy=0;endArrow=block;endFill=0;" edge="1" parent="1" source="3eHf1jaRX6m5ibN5TcEB-122" target="3eHf1jaRX6m5ibN5TcEB-140">
          <mxGeometry relative="1" as="geometry" />
        </mxCell>
        <mxCell id="3eHf1jaRX6m5ibN5TcEB-122" value="StoreService" style="swimlane;fontStyle=1;align=center;verticalAlign=top;childLayout=stackLayout;horizontal=1;startSize=26;horizontalStack=0;resizeParent=1;resizeParentMax=0;resizeLast=0;collapsible=1;marginBottom=0;whiteSpace=wrap;html=1;" vertex="1" parent="1">
          <mxGeometry x="2098" y="71" width="160" height="70" as="geometry" />
        </mxCell>
        <mxCell id="3eHf1jaRX6m5ibN5TcEB-124" value="" style="line;strokeWidth=1;fillColor=none;align=left;verticalAlign=middle;spacingTop=-1;spacingLeft=3;spacingRight=3;rotatable=0;labelPosition=right;points=[];portConstraint=eastwest;strokeColor=inherit;" vertex="1" parent="3eHf1jaRX6m5ibN5TcEB-122">
          <mxGeometry y="26" width="160" height="8" as="geometry" />
        </mxCell>
        <mxCell id="3eHf1jaRX6m5ibN5TcEB-188" value="+ deleteStore(username, storeID)" style="text;strokeColor=none;fillColor=none;align=left;verticalAlign=top;spacingLeft=4;spacingRight=4;overflow=hidden;rotatable=0;points=[[0,0.5],[1,0.5]];portConstraint=eastwest;whiteSpace=wrap;html=1;fontSize=7;" vertex="1" parent="3eHf1jaRX6m5ibN5TcEB-122">
          <mxGeometry y="34" width="160" height="14" as="geometry" />
        </mxCell>
        <mxCell id="3eHf1jaRX6m5ibN5TcEB-189" value="+ getStore(storeID)" style="text;strokeColor=none;fillColor=none;align=left;verticalAlign=top;spacingLeft=4;spacingRight=4;overflow=hidden;rotatable=0;points=[[0,0.5],[1,0.5]];portConstraint=eastwest;whiteSpace=wrap;html=1;fontSize=7;" vertex="1" parent="3eHf1jaRX6m5ibN5TcEB-122">
          <mxGeometry y="48" width="160" height="22" as="geometry" />
        </mxCell>
        <mxCell id="3eHf1jaRX6m5ibN5TcEB-125" value="ServiceFactory" style="swimlane;fontStyle=1;align=center;verticalAlign=top;childLayout=stackLayout;horizontal=1;startSize=26;horizontalStack=0;resizeParent=1;resizeParentMax=0;resizeLast=0;collapsible=1;marginBottom=0;whiteSpace=wrap;html=1;" vertex="1" parent="1">
          <mxGeometry x="2334" y="-26" width="160" height="60" as="geometry" />
        </mxCell>
        <mxCell id="3eHf1jaRX6m5ibN5TcEB-126" value="-" style="text;strokeColor=none;fillColor=none;align=left;verticalAlign=top;spacingLeft=4;spacingRight=4;overflow=hidden;rotatable=0;points=[[0,0.5],[1,0.5]];portConstraint=eastwest;whiteSpace=wrap;html=1;" vertex="1" parent="3eHf1jaRX6m5ibN5TcEB-125">
          <mxGeometry y="26" width="160" height="26" as="geometry" />
        </mxCell>
        <mxCell id="3eHf1jaRX6m5ibN5TcEB-127" value="" style="line;strokeWidth=1;fillColor=none;align=left;verticalAlign=middle;spacingTop=-1;spacingLeft=3;spacingRight=3;rotatable=0;labelPosition=right;points=[];portConstraint=eastwest;strokeColor=inherit;" vertex="1" parent="3eHf1jaRX6m5ibN5TcEB-125">
          <mxGeometry y="52" width="160" height="8" as="geometry" />
        </mxCell>
        <mxCell id="3eHf1jaRX6m5ibN5TcEB-128" value="&lt;div&gt;&lt;span style=&quot;font-weight: normal;&quot;&gt;&amp;lt;&amp;lt;interface&amp;gt;&amp;gt;&lt;/span&gt;&lt;/div&gt;IUserService" style="swimlane;fontStyle=1;align=center;verticalAlign=top;childLayout=stackLayout;horizontal=1;startSize=37;horizontalStack=0;resizeParent=1;resizeParentMax=0;resizeLast=0;collapsible=1;marginBottom=0;whiteSpace=wrap;html=1;" vertex="1" parent="1">
          <mxGeometry x="2552" y="-26" width="160" height="71" as="geometry" />
        </mxCell>
        <mxCell id="3eHf1jaRX6m5ibN5TcEB-129" value="-" style="text;strokeColor=none;fillColor=none;align=left;verticalAlign=top;spacingLeft=4;spacingRight=4;overflow=hidden;rotatable=0;points=[[0,0.5],[1,0.5]];portConstraint=eastwest;whiteSpace=wrap;html=1;" vertex="1" parent="3eHf1jaRX6m5ibN5TcEB-128">
          <mxGeometry y="37" width="160" height="26" as="geometry" />
        </mxCell>
        <mxCell id="3eHf1jaRX6m5ibN5TcEB-130" value="" style="line;strokeWidth=1;fillColor=none;align=left;verticalAlign=middle;spacingTop=-1;spacingLeft=3;spacingRight=3;rotatable=0;labelPosition=right;points=[];portConstraint=eastwest;strokeColor=inherit;" vertex="1" parent="3eHf1jaRX6m5ibN5TcEB-128">
          <mxGeometry y="63" width="160" height="8" as="geometry" />
        </mxCell>
        <mxCell id="3eHf1jaRX6m5ibN5TcEB-131" value="UserDTO" style="swimlane;fontStyle=1;align=center;verticalAlign=top;childLayout=stackLayout;horizontal=1;startSize=26;horizontalStack=0;resizeParent=1;resizeParentMax=0;resizeLast=0;collapsible=1;marginBottom=0;whiteSpace=wrap;html=1;" vertex="1" parent="1">
          <mxGeometry x="2774" y="-26" width="130" height="60" as="geometry" />
        </mxCell>
        <mxCell id="3eHf1jaRX6m5ibN5TcEB-132" value="-" style="text;strokeColor=none;fillColor=none;align=left;verticalAlign=top;spacingLeft=4;spacingRight=4;overflow=hidden;rotatable=0;points=[[0,0.5],[1,0.5]];portConstraint=eastwest;whiteSpace=wrap;html=1;" vertex="1" parent="3eHf1jaRX6m5ibN5TcEB-131">
          <mxGeometry y="26" width="130" height="26" as="geometry" />
        </mxCell>
        <mxCell id="3eHf1jaRX6m5ibN5TcEB-133" value="" style="line;strokeWidth=1;fillColor=none;align=left;verticalAlign=middle;spacingTop=-1;spacingLeft=3;spacingRight=3;rotatable=0;labelPosition=right;points=[];portConstraint=eastwest;strokeColor=inherit;" vertex="1" parent="3eHf1jaRX6m5ibN5TcEB-131">
          <mxGeometry y="52" width="130" height="8" as="geometry" />
        </mxCell>
        <mxCell id="3eHf1jaRX6m5ibN5TcEB-134" style="edgeStyle=orthogonalEdgeStyle;rounded=0;orthogonalLoop=1;jettySize=auto;html=1;entryX=0.5;entryY=1;entryDx=0;entryDy=0;endArrow=none;endFill=0;" edge="1" parent="1" source="3eHf1jaRX6m5ibN5TcEB-137" target="3eHf1jaRX6m5ibN5TcEB-103">
          <mxGeometry relative="1" as="geometry">
            <Array as="points">
              <mxPoint x="2714" y="888" />
              <mxPoint x="2204" y="888" />
            </Array>
          </mxGeometry>
        </mxCell>
        <mxCell id="3eHf1jaRX6m5ibN5TcEB-135" value="0..*" style="edgeLabel;html=1;align=center;verticalAlign=middle;resizable=0;points=[];" vertex="1" connectable="0" parent="3eHf1jaRX6m5ibN5TcEB-134">
          <mxGeometry x="-0.9574" y="4" relative="1" as="geometry">
            <mxPoint x="8" y="-3" as="offset" />
          </mxGeometry>
        </mxCell>
        <mxCell id="3eHf1jaRX6m5ibN5TcEB-136" value="0..*" style="edgeLabel;html=1;align=center;verticalAlign=middle;resizable=0;points=[];" vertex="1" connectable="0" parent="3eHf1jaRX6m5ibN5TcEB-134">
          <mxGeometry x="0.9524" y="2" relative="1" as="geometry">
            <mxPoint x="14" y="-8" as="offset" />
          </mxGeometry>
        </mxCell>
        <mxCell id="3eHf1jaRX6m5ibN5TcEB-137" value="ShoopingBasket" style="swimlane;fontStyle=1;align=center;verticalAlign=top;childLayout=stackLayout;horizontal=1;startSize=26;horizontalStack=0;resizeParent=1;resizeParentMax=0;resizeLast=0;collapsible=1;marginBottom=0;whiteSpace=wrap;html=1;" vertex="1" parent="1">
          <mxGeometry x="2634" y="691" width="160" height="60" as="geometry" />
        </mxCell>
        <mxCell id="3eHf1jaRX6m5ibN5TcEB-138" value="- storeID" style="text;strokeColor=none;fillColor=none;align=left;verticalAlign=top;spacingLeft=4;spacingRight=4;overflow=hidden;rotatable=0;points=[[0,0.5],[1,0.5]];portConstraint=eastwest;whiteSpace=wrap;html=1;" vertex="1" parent="3eHf1jaRX6m5ibN5TcEB-137">
          <mxGeometry y="26" width="160" height="26" as="geometry" />
        </mxCell>
        <mxCell id="3eHf1jaRX6m5ibN5TcEB-139" value="" style="line;strokeWidth=1;fillColor=none;align=left;verticalAlign=middle;spacingTop=-1;spacingLeft=3;spacingRight=3;rotatable=0;labelPosition=right;points=[];portConstraint=eastwest;strokeColor=inherit;" vertex="1" parent="3eHf1jaRX6m5ibN5TcEB-137">
          <mxGeometry y="52" width="160" height="8" as="geometry" />
        </mxCell>
        <mxCell id="3eHf1jaRX6m5ibN5TcEB-140" value="&lt;div&gt;&lt;span style=&quot;font-weight: normal;&quot;&gt;&amp;lt;&amp;lt;interface&amp;gt;&amp;gt;&lt;/span&gt;&lt;/div&gt;IStoreService" style="swimlane;fontStyle=1;align=center;verticalAlign=top;childLayout=stackLayout;horizontal=1;startSize=37;horizontalStack=0;resizeParent=1;resizeParentMax=0;resizeLast=0;collapsible=1;marginBottom=0;whiteSpace=wrap;html=1;" vertex="1" parent="1">
          <mxGeometry x="2098" y="-25.5" width="160" height="71" as="geometry" />
        </mxCell>
        <mxCell id="3eHf1jaRX6m5ibN5TcEB-141" value="-" style="text;strokeColor=none;fillColor=none;align=left;verticalAlign=top;spacingLeft=4;spacingRight=4;overflow=hidden;rotatable=0;points=[[0,0.5],[1,0.5]];portConstraint=eastwest;whiteSpace=wrap;html=1;" vertex="1" parent="3eHf1jaRX6m5ibN5TcEB-140">
          <mxGeometry y="37" width="160" height="26" as="geometry" />
        </mxCell>
        <mxCell id="3eHf1jaRX6m5ibN5TcEB-142" value="" style="line;strokeWidth=1;fillColor=none;align=left;verticalAlign=middle;spacingTop=-1;spacingLeft=3;spacingRight=3;rotatable=0;labelPosition=right;points=[];portConstraint=eastwest;strokeColor=inherit;" vertex="1" parent="3eHf1jaRX6m5ibN5TcEB-140">
          <mxGeometry y="63" width="160" height="8" as="geometry" />
        </mxCell>
        <mxCell id="3eHf1jaRX6m5ibN5TcEB-143" value="returns" style="edgeStyle=orthogonalEdgeStyle;rounded=0;orthogonalLoop=1;jettySize=auto;html=1;entryX=0.997;entryY=0.265;entryDx=0;entryDy=0;entryPerimeter=0;exitX=-0.003;exitY=0.411;exitDx=0;exitDy=0;exitPerimeter=0;" edge="1" parent="1" source="3eHf1jaRX6m5ibN5TcEB-140" target="3eHf1jaRX6m5ibN5TcEB-119">
          <mxGeometry relative="1" as="geometry">
            <mxPoint x="2094" y="4" as="sourcePoint" />
          </mxGeometry>
        </mxCell>
        <mxCell id="3eHf1jaRX6m5ibN5TcEB-144" style="edgeStyle=orthogonalEdgeStyle;rounded=0;orthogonalLoop=1;jettySize=auto;html=1;entryX=0.5;entryY=1;entryDx=0;entryDy=0;endArrow=block;endFill=0;" edge="1" parent="1" source="3eHf1jaRX6m5ibN5TcEB-145" target="3eHf1jaRX6m5ibN5TcEB-128">
          <mxGeometry relative="1" as="geometry" />
        </mxCell>
        <mxCell id="3eHf1jaRX6m5ibN5TcEB-145" value="IUserService" style="swimlane;fontStyle=1;align=center;verticalAlign=top;childLayout=stackLayout;horizontal=1;startSize=26;horizontalStack=0;resizeParent=1;resizeParentMax=0;resizeLast=0;collapsible=1;marginBottom=0;whiteSpace=wrap;html=1;" vertex="1" parent="1">
          <mxGeometry x="2552" y="71" width="160" height="70" as="geometry" />
        </mxCell>
        <mxCell id="3eHf1jaRX6m5ibN5TcEB-147" value="" style="line;strokeWidth=1;fillColor=none;align=left;verticalAlign=middle;spacingTop=-1;spacingLeft=3;spacingRight=3;rotatable=0;labelPosition=right;points=[];portConstraint=eastwest;strokeColor=inherit;" vertex="1" parent="3eHf1jaRX6m5ibN5TcEB-145">
          <mxGeometry y="26" width="160" height="8" as="geometry" />
        </mxCell>
        <mxCell id="3eHf1jaRX6m5ibN5TcEB-186" value="+ login(username, password): UserDTO" style="text;strokeColor=none;fillColor=none;align=left;verticalAlign=top;spacingLeft=4;spacingRight=4;overflow=hidden;rotatable=0;points=[[0,0.5],[1,0.5]];portConstraint=eastwest;whiteSpace=wrap;html=1;fontStyle=0;fontSize=7;" vertex="1" parent="3eHf1jaRX6m5ibN5TcEB-145">
          <mxGeometry y="34" width="160" height="14" as="geometry" />
        </mxCell>
        <mxCell id="3eHf1jaRX6m5ibN5TcEB-187" value="+ createUser(username, password)" style="text;strokeColor=none;fillColor=none;align=left;verticalAlign=top;spacingLeft=4;spacingRight=4;overflow=hidden;rotatable=0;points=[[0,0.5],[1,0.5]];portConstraint=eastwest;whiteSpace=wrap;html=1;fontStyle=0;fontSize=7;" vertex="1" parent="3eHf1jaRX6m5ibN5TcEB-145">
          <mxGeometry y="48" width="160" height="22" as="geometry" />
        </mxCell>
        <mxCell id="3eHf1jaRX6m5ibN5TcEB-148" value="SupplierService" style="swimlane;fontStyle=1;align=center;verticalAlign=top;childLayout=stackLayout;horizontal=1;startSize=26;horizontalStack=0;resizeParent=1;resizeParentMax=0;resizeLast=0;collapsible=1;marginBottom=0;whiteSpace=wrap;html=1;" vertex="1" parent="1">
          <mxGeometry x="2344" y="1056" width="160" height="34" as="geometry" />
        </mxCell>
        <mxCell id="3eHf1jaRX6m5ibN5TcEB-149" value="" style="line;strokeWidth=1;fillColor=none;align=left;verticalAlign=middle;spacingTop=-1;spacingLeft=3;spacingRight=3;rotatable=0;labelPosition=right;points=[];portConstraint=eastwest;strokeColor=inherit;" vertex="1" parent="3eHf1jaRX6m5ibN5TcEB-148">
          <mxGeometry y="26" width="160" height="8" as="geometry" />
        </mxCell>
        <mxCell id="3eHf1jaRX6m5ibN5TcEB-150" value="PaymentService" style="swimlane;fontStyle=1;align=center;verticalAlign=top;childLayout=stackLayout;horizontal=1;startSize=26;horizontalStack=0;resizeParent=1;resizeParentMax=0;resizeLast=0;collapsible=1;marginBottom=0;whiteSpace=wrap;html=1;" vertex="1" parent="1">
          <mxGeometry x="2704" y="1056" width="160" height="34" as="geometry" />
        </mxCell>
        <mxCell id="3eHf1jaRX6m5ibN5TcEB-151" value="" style="line;strokeWidth=1;fillColor=none;align=left;verticalAlign=middle;spacingTop=-1;spacingLeft=3;spacingRight=3;rotatable=0;labelPosition=right;points=[];portConstraint=eastwest;strokeColor=inherit;" vertex="1" parent="3eHf1jaRX6m5ibN5TcEB-150">
          <mxGeometry y="26" width="160" height="8" as="geometry" />
        </mxCell>
        <mxCell id="3eHf1jaRX6m5ibN5TcEB-153" value="NotificationSystem" style="swimlane;fontStyle=1;align=center;verticalAlign=top;childLayout=stackLayout;horizontal=1;startSize=26;horizontalStack=0;resizeParent=1;resizeParentMax=0;resizeLast=0;collapsible=1;marginBottom=0;whiteSpace=wrap;html=1;" vertex="1" parent="1">
          <mxGeometry x="2404" y="361" width="160" height="34" as="geometry" />
        </mxCell>
        <mxCell id="3eHf1jaRX6m5ibN5TcEB-154" value="" style="line;strokeWidth=1;fillColor=none;align=left;verticalAlign=middle;spacingTop=-1;spacingLeft=3;spacingRight=3;rotatable=0;labelPosition=right;points=[];portConstraint=eastwest;strokeColor=inherit;" vertex="1" parent="3eHf1jaRX6m5ibN5TcEB-153">
          <mxGeometry y="26" width="160" height="8" as="geometry" />
        </mxCell>
        <mxCell id="3eHf1jaRX6m5ibN5TcEB-155" style="edgeStyle=orthogonalEdgeStyle;rounded=0;orthogonalLoop=1;jettySize=auto;html=1;entryX=1;entryY=0.5;entryDx=0;entryDy=0;dashed=1;" edge="1" parent="1" source="3eHf1jaRX6m5ibN5TcEB-156" target="3eHf1jaRX6m5ibN5TcEB-137">
          <mxGeometry relative="1" as="geometry">
            <Array as="points">
              <mxPoint x="2874" y="721" />
              <mxPoint x="2874" y="721" />
            </Array>
          </mxGeometry>
        </mxCell>
        <mxCell id="3eHf1jaRX6m5ibN5TcEB-156" value="&lt;font style=&quot;font-size: 13px;&quot;&gt;Each shopping basket contains the requested products from a single store&lt;/font&gt;" style="shape=note;size=20;whiteSpace=wrap;html=1;fontSize=13;" vertex="1" parent="1">
          <mxGeometry x="2954" y="669" width="140" height="100" as="geometry" />
        </mxCell>
        <mxCell id="3eHf1jaRX6m5ibN5TcEB-157" style="edgeStyle=orthogonalEdgeStyle;rounded=0;orthogonalLoop=1;jettySize=auto;html=1;entryX=0.5;entryY=0;entryDx=0;entryDy=0;endArrow=none;endFill=0;" edge="1" parent="1" source="3eHf1jaRX6m5ibN5TcEB-160" target="3eHf1jaRX6m5ibN5TcEB-103">
          <mxGeometry relative="1" as="geometry" />
        </mxCell>
        <mxCell id="3eHf1jaRX6m5ibN5TcEB-158" value="1" style="edgeLabel;html=1;align=center;verticalAlign=middle;resizable=0;points=[];" vertex="1" connectable="0" parent="3eHf1jaRX6m5ibN5TcEB-157">
          <mxGeometry x="-0.7851" relative="1" as="geometry">
            <mxPoint x="6" y="2" as="offset" />
          </mxGeometry>
        </mxCell>
        <mxCell id="3eHf1jaRX6m5ibN5TcEB-159" value="0..*" style="edgeLabel;html=1;align=center;verticalAlign=middle;resizable=0;points=[];" vertex="1" connectable="0" parent="3eHf1jaRX6m5ibN5TcEB-157">
          <mxGeometry x="0.5403" relative="1" as="geometry">
            <mxPoint x="11" as="offset" />
          </mxGeometry>
        </mxCell>
        <mxCell id="3eHf1jaRX6m5ibN5TcEB-160" value="Inventory" style="swimlane;fontStyle=1;align=center;verticalAlign=top;childLayout=stackLayout;horizontal=1;startSize=26;horizontalStack=0;resizeParent=1;resizeParentMax=0;resizeLast=0;collapsible=1;marginBottom=0;whiteSpace=wrap;html=1;" vertex="1" parent="1">
          <mxGeometry x="2124" y="568" width="160" height="34" as="geometry" />
        </mxCell>
        <mxCell id="3eHf1jaRX6m5ibN5TcEB-161" value="" style="line;strokeWidth=1;fillColor=none;align=left;verticalAlign=middle;spacingTop=-1;spacingLeft=3;spacingRight=3;rotatable=0;labelPosition=right;points=[];portConstraint=eastwest;strokeColor=inherit;" vertex="1" parent="3eHf1jaRX6m5ibN5TcEB-160">
          <mxGeometry y="26" width="160" height="8" as="geometry" />
        </mxCell>
        <mxCell id="3eHf1jaRX6m5ibN5TcEB-162" value="User" style="swimlane;fontStyle=1;align=center;verticalAlign=top;childLayout=stackLayout;horizontal=1;startSize=26;horizontalStack=0;resizeParent=1;resizeParentMax=0;resizeLast=0;collapsible=1;marginBottom=0;whiteSpace=wrap;html=1;fontSize=8;" vertex="1" parent="1">
          <mxGeometry x="2624" y="361" width="160" height="68" as="geometry" />
        </mxCell>
        <mxCell id="3eHf1jaRX6m5ibN5TcEB-185" value="+ login(username, password)" style="text;strokeColor=none;fillColor=none;align=left;verticalAlign=top;spacingLeft=4;spacingRight=4;overflow=hidden;rotatable=0;points=[[0,0.5],[1,0.5]];portConstraint=eastwest;whiteSpace=wrap;html=1;fontSize=7;spacing=0;" vertex="1" parent="3eHf1jaRX6m5ibN5TcEB-162">
          <mxGeometry y="26" width="160" height="14" as="geometry" />
        </mxCell>
        <mxCell id="3eHf1jaRX6m5ibN5TcEB-184" value="+ createUser(username, password)" style="text;strokeColor=none;fillColor=none;align=left;verticalAlign=top;spacingLeft=4;spacingRight=4;overflow=hidden;rotatable=0;points=[[0,0.5],[1,0.5]];portConstraint=eastwest;whiteSpace=wrap;html=1;fontSize=7;spacing=0;" vertex="1" parent="3eHf1jaRX6m5ibN5TcEB-162">
          <mxGeometry y="40" width="160" height="10" as="geometry" />
        </mxCell>
        <mxCell id="3eHf1jaRX6m5ibN5TcEB-183" value="+ getUser(username)" style="text;strokeColor=none;fillColor=none;align=left;verticalAlign=top;spacingLeft=4;spacingRight=4;overflow=hidden;rotatable=0;points=[[0,0.5],[1,0.5]];portConstraint=eastwest;whiteSpace=wrap;html=1;fontSize=7;spacing=0;" vertex="1" parent="3eHf1jaRX6m5ibN5TcEB-162">
          <mxGeometry y="50" width="160" height="10" as="geometry" />
        </mxCell>
        <mxCell id="3eHf1jaRX6m5ibN5TcEB-163" value="" style="line;strokeWidth=1;fillColor=none;align=left;verticalAlign=middle;spacingTop=-1;spacingLeft=3;spacingRight=3;rotatable=0;labelPosition=right;points=[];portConstraint=eastwest;strokeColor=inherit;" vertex="1" parent="3eHf1jaRX6m5ibN5TcEB-162">
          <mxGeometry y="60" width="160" height="8" as="geometry" />
        </mxCell>
        <mxCell id="3eHf1jaRX6m5ibN5TcEB-164" style="edgeStyle=orthogonalEdgeStyle;rounded=0;orthogonalLoop=1;jettySize=auto;html=1;entryX=0.5;entryY=1;entryDx=0;entryDy=0;endArrow=block;endFill=0;" edge="1" parent="1" source="3eHf1jaRX6m5ibN5TcEB-165" target="3eHf1jaRX6m5ibN5TcEB-162">
          <mxGeometry relative="1" as="geometry">
            <Array as="points">
              <mxPoint x="2799" y="438" />
              <mxPoint x="2704" y="438" />
            </Array>
          </mxGeometry>
        </mxCell>
        <mxCell id="3eHf1jaRX6m5ibN5TcEB-165" value="Guest" style="swimlane;fontStyle=1;align=center;verticalAlign=top;childLayout=stackLayout;horizontal=1;startSize=26;horizontalStack=0;resizeParent=1;resizeParentMax=0;resizeLast=0;collapsible=1;marginBottom=0;whiteSpace=wrap;html=1;" vertex="1" parent="1">
          <mxGeometry x="2754" y="451" width="90" height="34" as="geometry" />
        </mxCell>
        <mxCell id="3eHf1jaRX6m5ibN5TcEB-166" value="" style="line;strokeWidth=1;fillColor=none;align=left;verticalAlign=middle;spacingTop=-1;spacingLeft=3;spacingRight=3;rotatable=0;labelPosition=right;points=[];portConstraint=eastwest;strokeColor=inherit;" vertex="1" parent="3eHf1jaRX6m5ibN5TcEB-165">
          <mxGeometry y="26" width="90" height="8" as="geometry" />
        </mxCell>
        <mxCell id="3eHf1jaRX6m5ibN5TcEB-167" value="uses" style="edgeStyle=orthogonalEdgeStyle;rounded=0;orthogonalLoop=1;jettySize=auto;html=1;entryX=0.563;entryY=-0.067;entryDx=0;entryDy=0;entryPerimeter=0;dashed=1;dashPattern=12 12;" edge="1" parent="1" source="3eHf1jaRX6m5ibN5TcEB-37" target="3eHf1jaRX6m5ibN5TcEB-150">
          <mxGeometry x="0.3727" relative="1" as="geometry">
            <Array as="points">
              <mxPoint x="2794" y="998" />
              <mxPoint x="2794" y="998" />
            </Array>
            <mxPoint as="offset" />
          </mxGeometry>
        </mxCell>
        <mxCell id="3eHf1jaRX6m5ibN5TcEB-168" style="edgeStyle=orthogonalEdgeStyle;rounded=0;orthogonalLoop=1;jettySize=auto;html=1;entryX=0.5;entryY=1;entryDx=0;entryDy=0;endArrow=block;endFill=0;" edge="1" parent="1" source="3eHf1jaRX6m5ibN5TcEB-169" target="3eHf1jaRX6m5ibN5TcEB-64">
          <mxGeometry relative="1" as="geometry" />
        </mxCell>
        <mxCell id="3eHf1jaRX6m5ibN5TcEB-169" value="Admin" style="swimlane;fontStyle=1;align=center;verticalAlign=top;childLayout=stackLayout;horizontal=1;startSize=26;horizontalStack=0;resizeParent=1;resizeParentMax=0;resizeLast=0;collapsible=1;marginBottom=0;whiteSpace=wrap;html=1;" vertex="1" parent="1">
          <mxGeometry x="2619" y="539" width="110" height="34" as="geometry" />
        </mxCell>
        <mxCell id="3eHf1jaRX6m5ibN5TcEB-170" value="" style="line;strokeWidth=1;fillColor=none;align=left;verticalAlign=middle;spacingTop=-1;spacingLeft=3;spacingRight=3;rotatable=0;labelPosition=right;points=[];portConstraint=eastwest;strokeColor=inherit;" vertex="1" parent="3eHf1jaRX6m5ibN5TcEB-169">
          <mxGeometry y="26" width="110" height="8" as="geometry" />
        </mxCell>
        <mxCell id="3eHf1jaRX6m5ibN5TcEB-171" value="ProductDTO" style="swimlane;fontStyle=1;align=center;verticalAlign=top;childLayout=stackLayout;horizontal=1;startSize=26;horizontalStack=0;resizeParent=1;resizeParentMax=0;resizeLast=0;collapsible=1;marginBottom=0;whiteSpace=wrap;html=1;" vertex="1" parent="1">
          <mxGeometry x="1854" y="71" width="160" height="60" as="geometry" />
        </mxCell>
        <mxCell id="3eHf1jaRX6m5ibN5TcEB-172" value="-" style="text;strokeColor=none;fillColor=none;align=left;verticalAlign=top;spacingLeft=4;spacingRight=4;overflow=hidden;rotatable=0;points=[[0,0.5],[1,0.5]];portConstraint=eastwest;whiteSpace=wrap;html=1;" vertex="1" parent="3eHf1jaRX6m5ibN5TcEB-171">
          <mxGeometry y="26" width="160" height="26" as="geometry" />
        </mxCell>
        <mxCell id="3eHf1jaRX6m5ibN5TcEB-173" value="" style="line;strokeWidth=1;fillColor=none;align=left;verticalAlign=middle;spacingTop=-1;spacingLeft=3;spacingRight=3;rotatable=0;labelPosition=right;points=[];portConstraint=eastwest;strokeColor=inherit;" vertex="1" parent="3eHf1jaRX6m5ibN5TcEB-171">
          <mxGeometry y="52" width="160" height="8" as="geometry" />
        </mxCell>
        <mxCell id="3eHf1jaRX6m5ibN5TcEB-174" style="edgeStyle=orthogonalEdgeStyle;rounded=0;orthogonalLoop=1;jettySize=auto;html=1;entryX=1.005;entryY=0.81;entryDx=0;entryDy=0;entryPerimeter=0;dashed=1;" edge="1" parent="1" source="3eHf1jaRX6m5ibN5TcEB-175" target="3eHf1jaRX6m5ibN5TcEB-65">
          <mxGeometry relative="1" as="geometry">
            <mxPoint x="2724" y="498" as="targetPoint" />
            <Array as="points">
              <mxPoint x="2894" y="498" />
              <mxPoint x="2894" y="498" />
            </Array>
          </mxGeometry>
        </mxCell>
        <mxCell id="3eHf1jaRX6m5ibN5TcEB-175" value="Each registered user (subscriber) has a unique username" style="shape=note;size=20;whiteSpace=wrap;html=1;fontSize=13;" vertex="1" parent="1">
          <mxGeometry x="2954" y="411" width="140" height="100" as="geometry" />
        </mxCell>
        <mxCell id="3eHf1jaRX6m5ibN5TcEB-176" style="edgeStyle=orthogonalEdgeStyle;rounded=0;orthogonalLoop=1;jettySize=auto;html=1;entryX=1;entryY=0.25;entryDx=0;entryDy=0;dashed=1;" edge="1" parent="1" source="3eHf1jaRX6m5ibN5TcEB-177" target="3eHf1jaRX6m5ibN5TcEB-37">
          <mxGeometry relative="1" as="geometry">
            <Array as="points">
              <mxPoint x="2934" y="803" />
              <mxPoint x="2934" y="803" />
            </Array>
          </mxGeometry>
        </mxCell>
        <mxCell id="3eHf1jaRX6m5ibN5TcEB-177" value="&lt;font style=&quot;font-size: 13px;&quot;&gt;Represents the order history of the user, each order is created from the current shopping cart, copies all information from the baskets and checks the availability using the external services before being marked as complete.&lt;br&gt;If one of the external services failed the order is marked as failed but could still be saved in the order history&lt;/font&gt;" style="shape=note;size=20;whiteSpace=wrap;html=1;fontSize=13;" vertex="1" parent="1">
          <mxGeometry x="2954" y="778" width="140" height="290" as="geometry" />
        </mxCell>
        <mxCell id="3eHf1jaRX6m5ibN5TcEB-178" style="edgeStyle=orthogonalEdgeStyle;rounded=0;orthogonalLoop=1;jettySize=auto;html=1;entryX=1;entryY=0.5;entryDx=0;entryDy=0;dashed=1;" edge="1" parent="1" source="3eHf1jaRX6m5ibN5TcEB-179" target="3eHf1jaRX6m5ibN5TcEB-169">
          <mxGeometry relative="1" as="geometry">
            <Array as="points">
              <mxPoint x="2904" y="556" />
              <mxPoint x="2904" y="556" />
            </Array>
          </mxGeometry>
        </mxCell>
        <mxCell id="3eHf1jaRX6m5ibN5TcEB-179" value="System Administrator (admin) is a kind of subscriber with managing permissions, there has to be at least 1 at all times" style="shape=note;size=20;whiteSpace=wrap;html=1;fontSize=13;" vertex="1" parent="1">
          <mxGeometry x="2954" y="522" width="140" height="136" as="geometry" />
        </mxCell>
        <mxCell id="3eHf1jaRX6m5ibN5TcEB-180" value="notifies" style="edgeStyle=orthogonalEdgeStyle;rounded=0;orthogonalLoop=1;jettySize=auto;html=1;entryX=-0.001;entryY=0.11;entryDx=0;entryDy=0;entryPerimeter=0;endArrow=none;endFill=0;" edge="1" parent="1" source="3eHf1jaRX6m5ibN5TcEB-153" target="3eHf1jaRX6m5ibN5TcEB-64">
          <mxGeometry relative="1" as="geometry" />
        </mxCell>
        <mxCell id="3eHf1jaRX6m5ibN5TcEB-181" value="0..*" style="edgeLabel;html=1;align=center;verticalAlign=middle;resizable=0;points=[];" vertex="1" connectable="0" parent="3eHf1jaRX6m5ibN5TcEB-180">
          <mxGeometry x="0.74" y="-2" relative="1" as="geometry">
            <mxPoint y="-10" as="offset" />
          </mxGeometry>
        </mxCell>
        <mxCell id="3eHf1jaRX6m5ibN5TcEB-182" value="1" style="edgeLabel;html=1;align=center;verticalAlign=middle;resizable=0;points=[];" vertex="1" connectable="0" parent="3eHf1jaRX6m5ibN5TcEB-180">
          <mxGeometry x="-0.8928" y="2" relative="1" as="geometry">
            <mxPoint y="-6" as="offset" />
          </mxGeometry>
        </mxCell>
      </root>
    </mxGraphModel>
  </diagram>
</mxfile>
